<svg xmlns="http://www.w3.org/2000/svg" id="Path_18755" width="12.449" height="17.869" viewBox="0 0 12.449 17.869">
    <defs>
        <style>
            .cls-1{fill:#dedfe4}
        </style>
    </defs>
    <path id="Path_18756" d="M447.619 238.332h-10.838a.507.507 0 0 0-.506.506V255.1a.506.506 0 0 0 .864.358l5.061-5.061 5.061 5.061a.506.506 0 0 0 .864-.358v-16.262a.507.507 0 0 0-.506-.506zM442.2 249.17a.506.506 0 0 0-.358.148l-4.556 4.555v-14.529h9.826v14.53l-4.555-4.555a.5.5 0 0 0-.357-.149z" class="cls-1" transform="translate(-435.976 -238.032)"/>
    <path id="Path_18757" d="M436.78 255.9a.8.8 0 0 1-.8-.807v-16.255a.807.807 0 0 1 .8-.806h10.838a.807.807 0 0 1 .806.806V255.1a.806.806 0 0 1-1.376.57l-4.849-4.849-4.849 4.849a.814.814 0 0 1-.57.23zm0-17.269a.207.207 0 0 0-.206.206V255.1a.206.206 0 0 0 .061.146.212.212 0 0 0 .291 0l5.061-5.061a.308.308 0 0 1 .424 0l5.061 5.061a.208.208 0 0 0 .292 0 .211.211 0 0 0 .06-.146v-16.262a.207.207 0 0 0-.206-.206zm10.331 15.542a.3.3 0 0 1-.212-.088l-4.555-4.555a.212.212 0 0 0-.291 0l-4.556 4.555a.3.3 0 0 1-.512-.212v-14.529a.3.3 0 0 1 .3-.3h9.826a.3.3 0 0 1 .3.3v14.53a.3.3 0 0 1-.184.277.3.3 0 0 1-.115.023zm-4.912-5.3a.812.812 0 0 1 .569.238l4.042 4.041v-13.508h-9.226v13.5l4.044-4.042a.8.8 0 0 1 .572-.232z" class="cls-1" transform="translate(-435.976 -238.032)"/>
</svg>
