<svg xmlns="http://www.w3.org/2000/svg" width="16.144" height="16.174" viewBox="0 0 16.144 16.174">
  <defs>
    <style>
      .cls-1 {
        fill: none;
        stroke: #039;
        stroke-linecap: round;
        stroke-linejoin: round;
        stroke-width: 1.4px;
      }
    </style>
  </defs>
  <path id="_8216011891543238910" data-name="8216011891543238910" class="cls-1" d="M16.854,13.06v2.224a1.483,1.483,0,0,1-1.616,1.483,14.67,14.67,0,0,1-6.4-2.276,14.455,14.455,0,0,1-4.448-4.448A14.67,14.67,0,0,1,2.118,3.616,1.483,1.483,0,0,1,3.593,2H5.817A1.483,1.483,0,0,1,7.3,3.275a9.518,9.518,0,0,0,.519,2.083,1.483,1.483,0,0,1-.334,1.564l-.941.941a11.86,11.86,0,0,0,4.448,4.448l.941-.941a1.483,1.483,0,0,1,1.564-.334,9.518,9.518,0,0,0,2.083.519,1.483,1.483,0,0,1,1.275,1.5Z" transform="translate(-1.411 -1.3)"/>
</svg>
