<svg xmlns="http://www.w3.org/2000/svg" width="14.253" height="16.29" viewBox="0 0 14.253 16.29">
    <g>
        <g>
            <g>
                <path fill="#b2b2b2" d="M54.4 0h-6.1a2.121 2.121 0 0 0-2.036 2.036l-.588.014a2.039 2.039 0 0 0-1.957 2.022v10.181a2.121 2.121 0 0 0 2.031 2.037h7.636a2.121 2.121 0 0 0 2.036-2.036h.509a2.121 2.121 0 0 0 2.036-2.036V4.085zm-1.014 15.271H45.75a1.067 1.067 0 0 1-1.018-1.018V4.072a1.009 1.009 0 0 1 .97-1l.557-.017v9.163a2.121 2.121 0 0 0 2.041 2.035h6.1a1.067 1.067 0 0 1-1.014 1.018zm3.563-3.054a1.068 1.068 0 0 1-1.018 1.018H48.3a1.067 1.067 0 0 1-1.018-1.018V2.036A1.067 1.067 0 0 1 48.3 1.018h5.091c-.008 1.172 0 2.049 0 2.049a2.1 2.1 0 0 0 2.036 2.023h1.527zm-1.527-8.145c-.542 0-1.018-.985-1.018-1.513V1.034l2.545 3.04zM54.4 7.136h-4.577a.509.509 0 1 0 0 1.017H54.4a.509.509 0 1 0 0-1.017zm0 2.543h-4.577a.509.509 0 1 0 0 1.017H54.4a.509.509 0 1 0 0-1.017z" transform="translate(-43.714) translate(43.714) translate(0) translate(-43.714)"/>
            </g>
        </g>
    </g>
</svg>
