<?xml version="1.0" encoding="UTF-8" standalone="no"?>
<!DOCTYPE svg PUBLIC "-//W3C//DTD SVG 1.1//EN"
 "http://www.w3.org/Graphics/SVG/1.1/DTD/svg11.dtd">
<!-- Generated by graphviz version 2.47.3 (20210619.1520)
 -->
<!-- Title: dependencies Pages: 1 -->
<svg width="202pt" height="174pt"
 viewBox="0.00 0.00 202.00 173.80" xmlns="http://www.w3.org/2000/svg" xmlns:xlink="http://www.w3.org/1999/xlink">
<g id="graph0" class="graph" transform="scale(1 1) rotate(0) translate(4 169.8)">
<title>dependencies</title>
<polygon fill="white" stroke="transparent" points="-4,4 -4,-169.8 198,-169.8 198,4 -4,4"/>
<text text-anchor="middle" x="97" y="-8.2" font-family="sans-serif" font-size="14.00">dependencies</text>
<g id="clust1" class="cluster">
<title>cluster_HealthComponentModule</title>
<polygon fill="none" stroke="black" stroke-dasharray="1,5" points="8,-32.8 8,-157.8 186,-157.8 186,-32.8 8,-32.8"/>
</g>
<g id="clust2" class="cluster">
<title>cluster_HealthComponentModule_declarations</title>
<polygon fill="none" stroke="black" points="30,-40.8 30,-92.8 164,-92.8 164,-40.8 30,-40.8"/>
</g>
<!-- HealthComponent -->
<g id="node1" class="node">
<title>HealthComponent</title>
<polygon fill="#ffffb3" stroke="black" points="156.15,-84.8 37.85,-84.8 37.85,-48.8 156.15,-48.8 156.15,-84.8"/>
<text text-anchor="middle" x="97" y="-62.6" font-family="Times,serif" font-size="14.00">HealthComponent</text>
</g>
<!-- HealthComponentModule -->
<g id="node2" class="node">
<title>HealthComponentModule</title>
<polygon fill="#8dd3c7" stroke="black" points="178.2,-149.8 175.2,-153.8 154.2,-153.8 151.2,-149.8 15.8,-149.8 15.8,-113.8 178.2,-113.8 178.2,-149.8"/>
<text text-anchor="middle" x="97" y="-127.6" font-family="Times,serif" font-size="14.00">HealthComponentModule</text>
</g>
<!-- HealthComponent&#45;&gt;HealthComponentModule -->
<g id="edge1" class="edge">
<title>HealthComponent&#45;&gt;HealthComponentModule</title>
<path fill="none" stroke="black" d="M97,-84.91C97,-84.91 97,-103.79 97,-103.79"/>
<polygon fill="black" stroke="black" points="93.5,-103.79 97,-113.79 100.5,-103.79 93.5,-103.79"/>
</g>
</g>
</svg>
