<svg id="Component_90_46" data-name="Component 90 – 46" xmlns="http://www.w3.org/2000/svg" width="9.051" height="16.101" viewBox="0 0 9.051 16.101">
  <defs>
    <style>
      .cls-1 {
        fill: #039;
      }
    </style>
  </defs>
  <path id="Path_20771" data-name="Path 20771" class="cls-1" d="M12892.344-3843.194l-7.052-7.048a1,1,0,0,1-.291-.708.994.994,0,0,1,.291-.706l7.052-7.051a1,1,0,0,1,1.414,0,1,1,0,0,1,0,1.414l-6.345,6.344,6.345,6.341a1,1,0,0,1,0,1.414.985.985,0,0,1-.706.294A.991.991,0,0,1,12892.344-3843.194Z" transform="translate(-12885.001 3859)"/>
</svg>
