<svg id="Group_11792" data-name="Group 11792" xmlns="http://www.w3.org/2000/svg" width="11.526" height="11.525" viewBox="0 0 11.526 11.525">
  <defs>
    <style>
      .cls-1 {
        fill: #29ad00;
      }
    </style>
  </defs>
  <path id="Path_15939" data-name="Path 15939" class="cls-1" d="M395.8,748a5.769,5.769,0,1,0,4.073,1.69A5.766,5.766,0,0,0,395.8,748Zm0,10.565a4.807,4.807,0,1,1,3.394-1.408A4.8,4.8,0,0,1,395.8,758.565Z" transform="translate(-390.039 -748)"/>
  <path id="Path_273" data-name="Path 273" class="cls-1" d="M271.557,1566.166l-2.254,2.26-1.208-1.259a.478.478,0,0,0-.172-.124.465.465,0,0,0-.208-.049.471.471,0,0,0-.21.032.58.58,0,0,0-.18.113.62.62,0,0,0-.122.178.534.534,0,0,0-.044.21.561.561,0,0,0,.041.21.6.6,0,0,0,.119.178l1.241,1.292a1.018,1.018,0,0,0,.329.232,1.007,1.007,0,0,0,.4.091h.018a.973.973,0,0,0,.389-.081.942.942,0,0,0,.329-.221l2.3-2.3a.525.525,0,0,0,.117-.172.572.572,0,0,0,.041-.21.535.535,0,0,0-.041-.2.549.549,0,0,0-.117-.177.575.575,0,0,0-.175-.119.587.587,0,0,0-.413,0A.569.569,0,0,0,271.557,1566.166Z" transform="translate(-264.057 -1562.007)"/>
</svg>
