<?xml version="1.0" encoding="UTF-8" standalone="no"?>
<!DOCTYPE svg PUBLIC "-//W3C//DTD SVG 1.1//EN"
 "http://www.w3.org/Graphics/SVG/1.1/DTD/svg11.dtd">
<!-- Generated by graphviz version 2.47.3 (20210619.1520)
 -->
<!-- Title: dependencies Pages: 1 -->
<svg width="360pt" height="174pt"
 viewBox="0.00 0.00 360.00 173.80" xmlns="http://www.w3.org/2000/svg" xmlns:xlink="http://www.w3.org/1999/xlink">
<g id="graph0" class="graph" transform="scale(1 1) rotate(0) translate(4 169.8)">
<title>dependencies</title>
<polygon fill="white" stroke="transparent" points="-4,4 -4,-169.8 356,-169.8 356,4 -4,4"/>
<text text-anchor="middle" x="176" y="-8.2" font-family="sans-serif" font-size="14.00">dependencies</text>
<g id="clust1" class="cluster">
<title>cluster_MfFilterModule</title>
<polygon fill="none" stroke="black" stroke-dasharray="1,5" points="8,-32.8 8,-157.8 344,-157.8 344,-32.8 8,-32.8"/>
</g>
<g id="clust4" class="cluster">
<title>cluster_MfFilterModule_imports</title>
<polygon fill="none" stroke="black" points="168,-40.8 168,-92.8 336,-92.8 336,-40.8 168,-40.8"/>
</g>
<g id="clust2" class="cluster">
<title>cluster_MfFilterModule_declarations</title>
<polygon fill="none" stroke="black" points="16,-40.8 16,-92.8 160,-92.8 160,-40.8 16,-40.8"/>
</g>
<!-- MfFilterComponent -->
<g id="node1" class="node">
<title>MfFilterComponent</title>
<polygon fill="#ffffb3" stroke="black" points="152.27,-84.8 23.73,-84.8 23.73,-48.8 152.27,-48.8 152.27,-84.8"/>
<text text-anchor="middle" x="88" y="-62.6" font-family="Times,serif" font-size="14.00">MfFilterComponent</text>
</g>
<!-- MfFilterModule -->
<g id="node2" class="node">
<title>MfFilterModule</title>
<polygon fill="#8dd3c7" stroke="black" points="223.48,-149.8 220.48,-153.8 199.48,-153.8 196.48,-149.8 116.52,-149.8 116.52,-113.8 223.48,-113.8 223.48,-149.8"/>
<text text-anchor="middle" x="170" y="-127.6" font-family="Times,serif" font-size="14.00">MfFilterModule</text>
</g>
<!-- MfFilterComponent&#45;&gt;MfFilterModule -->
<g id="edge1" class="edge">
<title>MfFilterComponent&#45;&gt;MfFilterModule</title>
<path fill="none" stroke="black" d="M134.45,-84.91C134.45,-84.91 134.45,-103.79 134.45,-103.79"/>
<polygon fill="black" stroke="black" points="130.95,-103.79 134.45,-113.79 137.95,-103.79 130.95,-103.79"/>
</g>
<!-- MfFilterRoutingModule -->
<g id="node3" class="node">
<title>MfFilterRoutingModule</title>
<polygon fill="#8dd3c7" stroke="black" points="328.1,-84.8 325.1,-88.8 304.1,-88.8 301.1,-84.8 175.9,-84.8 175.9,-48.8 328.1,-48.8 328.1,-84.8"/>
<text text-anchor="middle" x="252" y="-62.6" font-family="Times,serif" font-size="14.00">MfFilterRoutingModule</text>
</g>
<!-- MfFilterRoutingModule&#45;&gt;MfFilterModule -->
<g id="edge2" class="edge">
<title>MfFilterRoutingModule&#45;&gt;MfFilterModule</title>
<path fill="none" stroke="black" d="M199.72,-84.91C199.72,-84.91 199.72,-103.79 199.72,-103.79"/>
<polygon fill="black" stroke="black" points="196.22,-103.79 199.72,-113.79 203.22,-103.79 196.22,-103.79"/>
</g>
</g>
</svg>
