<?xml version="1.0" encoding="UTF-8" standalone="no"?>
<!DOCTYPE svg PUBLIC "-//W3C//DTD SVG 1.1//EN"
 "http://www.w3.org/Graphics/SVG/1.1/DTD/svg11.dtd">
<!-- Generated by graphviz version 2.47.3 (20210619.1520)
 -->
<!-- Title: dependencies Pages: 1 -->
<svg width="1163pt" height="174pt"
 viewBox="0.00 0.00 1163.00 173.80" xmlns="http://www.w3.org/2000/svg" xmlns:xlink="http://www.w3.org/1999/xlink">
<g id="graph0" class="graph" transform="scale(1 1) rotate(0) translate(4 169.8)">
<title>dependencies</title>
<polygon fill="white" stroke="transparent" points="-4,4 -4,-169.8 1159,-169.8 1159,4 -4,4"/>
<text text-anchor="middle" x="577.5" y="-8.2" font-family="sans-serif" font-size="14.00">dependencies</text>
<g id="clust1" class="cluster">
<title>cluster_SupperAppLandingPageModule</title>
<polygon fill="none" stroke="black" stroke-dasharray="1,5" points="8,-32.8 8,-157.8 1147,-157.8 1147,-32.8 8,-32.8"/>
</g>
<g id="clust8" class="cluster">
<title>cluster_SupperAppLandingPageModule_imports</title>
<polygon fill="none" stroke="black" points="881,-40.8 881,-92.8 1139,-92.8 1139,-40.8 881,-40.8"/>
</g>
<g id="clust2" class="cluster">
<title>cluster_SupperAppLandingPageModule_declarations</title>
<polygon fill="none" stroke="black" points="16,-40.8 16,-92.8 873,-92.8 873,-40.8 16,-40.8"/>
</g>
<!-- AllWellnessComponent -->
<g id="node1" class="node">
<title>AllWellnessComponent</title>
<polygon fill="#ffffb3" stroke="black" points="865.04,-84.8 714.96,-84.8 714.96,-48.8 865.04,-48.8 865.04,-84.8"/>
<text text-anchor="middle" x="790" y="-62.6" font-family="Times,serif" font-size="14.00">AllWellnessComponent</text>
</g>
<!-- SupperAppLandingPageModule -->
<g id="node6" class="node">
<title>SupperAppLandingPageModule</title>
<polygon fill="#8dd3c7" stroke="black" points="652.68,-149.8 649.68,-153.8 628.68,-153.8 625.68,-149.8 455.32,-149.8 455.32,-113.8 652.68,-113.8 652.68,-149.8"/>
<text text-anchor="middle" x="554" y="-127.6" font-family="Times,serif" font-size="14.00">SupperAppLandingPageModule</text>
</g>
<!-- AllWellnessComponent&#45;&gt;SupperAppLandingPageModule -->
<g id="edge1" class="edge">
<title>AllWellnessComponent&#45;&gt;SupperAppLandingPageModule</title>
<path fill="none" stroke="black" d="M790,-84.82C790,-102.17 790,-125.8 790,-125.8 790,-125.8 662.72,-125.8 662.72,-125.8"/>
<polygon fill="black" stroke="black" points="662.72,-122.3 652.72,-125.8 662.72,-129.3 662.72,-122.3"/>
</g>
<!-- HeaderComponent -->
<g id="node2" class="node">
<title>HeaderComponent</title>
<polygon fill="#ffffb3" stroke="black" points="696.74,-84.8 575.26,-84.8 575.26,-48.8 696.74,-48.8 696.74,-84.8"/>
<text text-anchor="middle" x="636" y="-62.6" font-family="Times,serif" font-size="14.00">HeaderComponent</text>
</g>
<!-- HeaderComponent&#45;&gt;SupperAppLandingPageModule -->
<g id="edge2" class="edge">
<title>HeaderComponent&#45;&gt;SupperAppLandingPageModule</title>
<path fill="none" stroke="black" d="M613.86,-84.91C613.86,-84.91 613.86,-103.79 613.86,-103.79"/>
<polygon fill="black" stroke="black" points="610.36,-103.79 613.86,-113.79 617.36,-103.79 610.36,-103.79"/>
</g>
<!-- HealthWellnessComponent -->
<g id="node3" class="node">
<title>HealthWellnessComponent</title>
<polygon fill="#ffffb3" stroke="black" points="556.96,-84.8 387.04,-84.8 387.04,-48.8 556.96,-48.8 556.96,-84.8"/>
<text text-anchor="middle" x="472" y="-62.6" font-family="Times,serif" font-size="14.00">HealthWellnessComponent</text>
</g>
<!-- HealthWellnessComponent&#45;&gt;SupperAppLandingPageModule -->
<g id="edge3" class="edge">
<title>HealthWellnessComponent&#45;&gt;SupperAppLandingPageModule</title>
<path fill="none" stroke="black" d="M506.19,-84.91C506.19,-84.91 506.19,-103.79 506.19,-103.79"/>
<polygon fill="black" stroke="black" points="502.7,-103.79 506.19,-113.79 509.7,-103.79 502.7,-103.79"/>
</g>
<!-- SupperAppLandingPage -->
<g id="node4" class="node">
<title>SupperAppLandingPage</title>
<polygon fill="#ffffb3" stroke="black" points="368.63,-84.8 215.37,-84.8 215.37,-48.8 368.63,-48.8 368.63,-84.8"/>
<text text-anchor="middle" x="292" y="-62.6" font-family="Times,serif" font-size="14.00">SupperAppLandingPage</text>
</g>
<!-- SupperAppLandingPage&#45;&gt;SupperAppLandingPageModule -->
<g id="edge4" class="edge">
<title>SupperAppLandingPage&#45;&gt;SupperAppLandingPageModule</title>
<path fill="none" stroke="black" d="M292,-84.82C292,-102.17 292,-125.8 292,-125.8 292,-125.8 445.32,-125.8 445.32,-125.8"/>
<polygon fill="black" stroke="black" points="445.32,-129.3 455.32,-125.8 445.32,-122.3 445.32,-129.3"/>
</g>
<!-- WealthWellnessComponent -->
<g id="node5" class="node">
<title>WealthWellnessComponent</title>
<polygon fill="#ffffb3" stroke="black" points="197.57,-84.8 24.43,-84.8 24.43,-48.8 197.57,-48.8 197.57,-84.8"/>
<text text-anchor="middle" x="111" y="-62.6" font-family="Times,serif" font-size="14.00">WealthWellnessComponent</text>
</g>
<!-- WealthWellnessComponent&#45;&gt;SupperAppLandingPageModule -->
<g id="edge5" class="edge">
<title>WealthWellnessComponent&#45;&gt;SupperAppLandingPageModule</title>
<path fill="none" stroke="black" d="M111,-85.08C111,-106.12 111,-137.8 111,-137.8 111,-137.8 445.13,-137.8 445.13,-137.8"/>
<polygon fill="black" stroke="black" points="445.13,-141.3 455.13,-137.8 445.13,-134.3 445.13,-141.3"/>
</g>
<!-- SupperAppLandingPageRoutingModule -->
<g id="node7" class="node">
<title>SupperAppLandingPageRoutingModule</title>
<polygon fill="#8dd3c7" stroke="black" points="1131.3,-84.8 1128.3,-88.8 1107.3,-88.8 1104.3,-84.8 888.7,-84.8 888.7,-48.8 1131.3,-48.8 1131.3,-84.8"/>
<text text-anchor="middle" x="1010" y="-62.6" font-family="Times,serif" font-size="14.00">SupperAppLandingPageRoutingModule</text>
</g>
<!-- SupperAppLandingPageRoutingModule&#45;&gt;SupperAppLandingPageModule -->
<g id="edge6" class="edge">
<title>SupperAppLandingPageRoutingModule&#45;&gt;SupperAppLandingPageModule</title>
<path fill="none" stroke="black" d="M1010,-85.08C1010,-106.12 1010,-137.8 1010,-137.8 1010,-137.8 662.66,-137.8 662.66,-137.8"/>
<polygon fill="black" stroke="black" points="662.66,-134.3 652.66,-137.8 662.66,-141.3 662.66,-134.3"/>
</g>
</g>
</svg>
