<?xml version="1.0" encoding="UTF-8" standalone="no"?>
<!DOCTYPE svg PUBLIC "-//W3C//DTD SVG 1.1//EN"
 "http://www.w3.org/Graphics/SVG/1.1/DTD/svg11.dtd">
<!-- Generated by graphviz version 2.47.3 (20210619.1520)
 -->
<!-- Title: dependencies Pages: 1 -->
<svg width="448pt" height="174pt"
 viewBox="0.00 0.00 448.00 173.80" xmlns="http://www.w3.org/2000/svg" xmlns:xlink="http://www.w3.org/1999/xlink">
<g id="graph0" class="graph" transform="scale(1 1) rotate(0) translate(4 169.8)">
<title>dependencies</title>
<polygon fill="white" stroke="transparent" points="-4,4 -4,-169.8 444,-169.8 444,4 -4,4"/>
<text text-anchor="middle" x="220" y="-8.2" font-family="sans-serif" font-size="14.00">dependencies</text>
<g id="clust1" class="cluster">
<title>cluster_MarketingScreenPageModule</title>
<polygon fill="none" stroke="black" stroke-dasharray="1,5" points="8,-32.8 8,-157.8 432,-157.8 432,-32.8 8,-32.8"/>
</g>
<g id="clust2" class="cluster">
<title>cluster_MarketingScreenPageModule_declarations</title>
<polygon fill="none" stroke="black" points="268,-40.8 268,-92.8 424,-92.8 424,-40.8 268,-40.8"/>
</g>
<g id="clust4" class="cluster">
<title>cluster_MarketingScreenPageModule_imports</title>
<polygon fill="none" stroke="black" points="16,-40.8 16,-92.8 260,-92.8 260,-40.8 16,-40.8"/>
</g>
<!-- MarketingScreenPage -->
<g id="node1" class="node">
<title>MarketingScreenPage</title>
<polygon fill="#ffffb3" stroke="black" points="415.61,-84.8 276.39,-84.8 276.39,-48.8 415.61,-48.8 415.61,-84.8"/>
<text text-anchor="middle" x="346" y="-62.6" font-family="Times,serif" font-size="14.00">MarketingScreenPage</text>
</g>
<!-- MarketingScreenPageModule -->
<g id="node2" class="node">
<title>MarketingScreenPageModule</title>
<polygon fill="#8dd3c7" stroke="black" points="326.66,-149.8 323.66,-153.8 302.66,-153.8 299.66,-149.8 143.34,-149.8 143.34,-113.8 326.66,-113.8 326.66,-149.8"/>
<text text-anchor="middle" x="235" y="-127.6" font-family="Times,serif" font-size="14.00">MarketingScreenPageModule</text>
</g>
<!-- MarketingScreenPage&#45;&gt;MarketingScreenPageModule -->
<g id="edge1" class="edge">
<title>MarketingScreenPage&#45;&gt;MarketingScreenPageModule</title>
<path fill="none" stroke="black" d="M301.39,-84.91C301.39,-84.91 301.39,-103.79 301.39,-103.79"/>
<polygon fill="black" stroke="black" points="297.89,-103.79 301.39,-113.79 304.89,-103.79 297.89,-103.79"/>
</g>
<!-- MarketingScreenPageRoutingModule -->
<g id="node3" class="node">
<title>MarketingScreenPageRoutingModule</title>
<polygon fill="#8dd3c7" stroke="black" points="252.28,-84.8 249.28,-88.8 228.28,-88.8 225.28,-84.8 23.72,-84.8 23.72,-48.8 252.28,-48.8 252.28,-84.8"/>
<text text-anchor="middle" x="138" y="-62.6" font-family="Times,serif" font-size="14.00">MarketingScreenPageRoutingModule</text>
</g>
<!-- MarketingScreenPageRoutingModule&#45;&gt;MarketingScreenPageModule -->
<g id="edge2" class="edge">
<title>MarketingScreenPageRoutingModule&#45;&gt;MarketingScreenPageModule</title>
<path fill="none" stroke="black" d="M197.78,-84.91C197.78,-84.91 197.78,-103.79 197.78,-103.79"/>
<polygon fill="black" stroke="black" points="194.28,-103.79 197.78,-113.79 201.28,-103.79 194.28,-103.79"/>
</g>
</g>
</svg>
