<?xml version="1.0" encoding="UTF-8" standalone="no"?>
<!DOCTYPE svg PUBLIC "-//W3C//DTD SVG 1.1//EN"
 "http://www.w3.org/Graphics/SVG/1.1/DTD/svg11.dtd">
<!-- Generated by graphviz version 2.47.3 (20210619.1520)
 -->
<!-- Title: dependencies Pages: 1 -->
<svg width="206pt" height="174pt"
 viewBox="0.00 0.00 206.00 173.80" xmlns="http://www.w3.org/2000/svg" xmlns:xlink="http://www.w3.org/1999/xlink">
<g id="graph0" class="graph" transform="scale(1 1) rotate(0) translate(4 169.8)">
<title>dependencies</title>
<polygon fill="white" stroke="transparent" points="-4,4 -4,-169.8 202,-169.8 202,4 -4,4"/>
<text text-anchor="middle" x="99" y="-8.2" font-family="sans-serif" font-size="14.00">dependencies</text>
<g id="clust1" class="cluster">
<title>cluster_WealthComponentModule</title>
<polygon fill="none" stroke="black" stroke-dasharray="1,5" points="8,-32.8 8,-157.8 190,-157.8 190,-32.8 8,-32.8"/>
</g>
<g id="clust2" class="cluster">
<title>cluster_WealthComponentModule_declarations</title>
<polygon fill="none" stroke="black" points="30,-40.8 30,-92.8 168,-92.8 168,-40.8 30,-40.8"/>
</g>
<!-- WealthComponent -->
<g id="node1" class="node">
<title>WealthComponent</title>
<polygon fill="#ffffb3" stroke="black" points="159.76,-84.8 38.24,-84.8 38.24,-48.8 159.76,-48.8 159.76,-84.8"/>
<text text-anchor="middle" x="99" y="-62.6" font-family="Times,serif" font-size="14.00">WealthComponent</text>
</g>
<!-- WealthComponentModule -->
<g id="node2" class="node">
<title>WealthComponentModule</title>
<polygon fill="#8dd3c7" stroke="black" points="181.81,-149.8 178.81,-153.8 157.81,-153.8 154.81,-149.8 16.19,-149.8 16.19,-113.8 181.81,-113.8 181.81,-149.8"/>
<text text-anchor="middle" x="99" y="-127.6" font-family="Times,serif" font-size="14.00">WealthComponentModule</text>
</g>
<!-- WealthComponent&#45;&gt;WealthComponentModule -->
<g id="edge1" class="edge">
<title>WealthComponent&#45;&gt;WealthComponentModule</title>
<path fill="none" stroke="black" d="M99,-84.91C99,-84.91 99,-103.79 99,-103.79"/>
<polygon fill="black" stroke="black" points="95.5,-103.79 99,-113.79 102.5,-103.79 95.5,-103.79"/>
</g>
</g>
</svg>
