<?xml version="1.0" encoding="UTF-8" standalone="no"?>
<!DOCTYPE svg PUBLIC "-//W3C//DTD SVG 1.1//EN"
 "http://www.w3.org/Graphics/SVG/1.1/DTD/svg11.dtd">
<!-- Generated by graphviz version 2.47.3 (20210619.1520)
 -->
<!-- Title: dependencies Pages: 1 -->
<svg width="222pt" height="174pt"
 viewBox="0.00 0.00 222.00 173.80" xmlns="http://www.w3.org/2000/svg" xmlns:xlink="http://www.w3.org/1999/xlink">
<g id="graph0" class="graph" transform="scale(1 1) rotate(0) translate(4 169.8)">
<title>dependencies</title>
<polygon fill="white" stroke="transparent" points="-4,4 -4,-169.8 218,-169.8 218,4 -4,4"/>
<text text-anchor="middle" x="107" y="-8.2" font-family="sans-serif" font-size="14.00">dependencies</text>
<g id="clust1" class="cluster">
<title>cluster_EducationComponentModule</title>
<polygon fill="none" stroke="black" stroke-dasharray="1,5" points="8,-32.8 8,-157.8 206,-157.8 206,-32.8 8,-32.8"/>
</g>
<g id="clust2" class="cluster">
<title>cluster_EducationComponentModule_declarations</title>
<polygon fill="none" stroke="black" points="30,-40.8 30,-92.8 184,-92.8 184,-40.8 30,-40.8"/>
</g>
<!-- EducationComponent -->
<g id="node1" class="node">
<title>EducationComponent</title>
<polygon fill="#ffffb3" stroke="black" points="176.1,-84.8 37.9,-84.8 37.9,-48.8 176.1,-48.8 176.1,-84.8"/>
<text text-anchor="middle" x="107" y="-62.6" font-family="Times,serif" font-size="14.00">EducationComponent</text>
</g>
<!-- EducationComponentModule -->
<g id="node2" class="node">
<title>EducationComponentModule</title>
<polygon fill="#8dd3c7" stroke="black" points="197.65,-149.8 194.65,-153.8 173.65,-153.8 170.65,-149.8 16.35,-149.8 16.35,-113.8 197.65,-113.8 197.65,-149.8"/>
<text text-anchor="middle" x="107" y="-127.6" font-family="Times,serif" font-size="14.00">EducationComponentModule</text>
</g>
<!-- EducationComponent&#45;&gt;EducationComponentModule -->
<g id="edge1" class="edge">
<title>EducationComponent&#45;&gt;EducationComponentModule</title>
<path fill="none" stroke="black" d="M107,-84.91C107,-84.91 107,-103.79 107,-103.79"/>
<polygon fill="black" stroke="black" points="103.5,-103.79 107,-113.79 110.5,-103.79 103.5,-103.79"/>
</g>
</g>
</svg>
