<?xml version="1.0" encoding="UTF-8" standalone="no"?>
<!DOCTYPE svg PUBLIC "-//W3C//DTD SVG 1.1//EN"
 "http://www.w3.org/Graphics/SVG/1.1/DTD/svg11.dtd">
<!-- Generated by graphviz version 2.47.3 (20210619.1520)
 -->
<!-- Title: dependencies Pages: 1 -->
<svg width="519pt" height="174pt"
 viewBox="0.00 0.00 519.00 173.80" xmlns="http://www.w3.org/2000/svg" xmlns:xlink="http://www.w3.org/1999/xlink">
<g id="graph0" class="graph" transform="scale(1 1) rotate(0) translate(4 169.8)">
<title>dependencies</title>
<polygon fill="white" stroke="transparent" points="-4,4 -4,-169.8 515,-169.8 515,4 -4,4"/>
<text text-anchor="middle" x="255.5" y="-8.2" font-family="sans-serif" font-size="14.00">dependencies</text>
<g id="clust1" class="cluster">
<title>cluster_WatchlistPageModule</title>
<polygon fill="none" stroke="black" stroke-dasharray="1,5" points="8,-32.8 8,-157.8 503,-157.8 503,-32.8 8,-32.8"/>
</g>
<g id="clust2" class="cluster">
<title>cluster_WatchlistPageModule_declarations</title>
<polygon fill="none" stroke="black" points="226,-40.8 226,-92.8 495,-92.8 495,-40.8 226,-40.8"/>
</g>
<g id="clust5" class="cluster">
<title>cluster_WatchlistPageModule_imports</title>
<polygon fill="none" stroke="black" points="16,-40.8 16,-92.8 218,-92.8 218,-40.8 16,-40.8"/>
</g>
<!-- MfHeaderComponent -->
<g id="node1" class="node">
<title>MfHeaderComponent</title>
<polygon fill="#ffffb3" stroke="black" points="487.35,-84.8 348.65,-84.8 348.65,-48.8 487.35,-48.8 487.35,-84.8"/>
<text text-anchor="middle" x="418" y="-62.6" font-family="Times,serif" font-size="14.00">MfHeaderComponent</text>
</g>
<!-- WatchlistPageModule -->
<g id="node3" class="node">
<title>WatchlistPageModule</title>
<polygon fill="#8dd3c7" stroke="black" points="352.41,-149.8 349.41,-153.8 328.41,-153.8 325.41,-149.8 211.59,-149.8 211.59,-113.8 352.41,-113.8 352.41,-149.8"/>
<text text-anchor="middle" x="282" y="-127.6" font-family="Times,serif" font-size="14.00">WatchlistPageModule</text>
</g>
<!-- MfHeaderComponent&#45;&gt;WatchlistPageModule -->
<g id="edge1" class="edge">
<title>MfHeaderComponent&#45;&gt;WatchlistPageModule</title>
<path fill="none" stroke="black" d="M348.51,-66.8C343,-66.8 339.5,-66.8 339.5,-66.8 339.5,-66.8 339.5,-103.69 339.5,-103.69"/>
<polygon fill="black" stroke="black" points="336,-103.69 339.5,-113.69 343,-103.69 336,-103.69"/>
</g>
<!-- WatchlistPage -->
<g id="node2" class="node">
<title>WatchlistPage</title>
<polygon fill="#ffffb3" stroke="black" points="330.36,-84.8 233.64,-84.8 233.64,-48.8 330.36,-48.8 330.36,-84.8"/>
<text text-anchor="middle" x="282" y="-62.6" font-family="Times,serif" font-size="14.00">WatchlistPage</text>
</g>
<!-- WatchlistPage&#45;&gt;WatchlistPageModule -->
<g id="edge2" class="edge">
<title>WatchlistPage&#45;&gt;WatchlistPageModule</title>
<path fill="none" stroke="black" d="M282,-84.91C282,-84.91 282,-103.79 282,-103.79"/>
<polygon fill="black" stroke="black" points="278.5,-103.79 282,-113.79 285.5,-103.79 278.5,-103.79"/>
</g>
<!-- WatchlistPageRoutingModule -->
<g id="node4" class="node">
<title>WatchlistPageRoutingModule</title>
<polygon fill="#8dd3c7" stroke="black" points="209.53,-84.8 206.53,-88.8 185.53,-88.8 182.53,-84.8 24.47,-84.8 24.47,-48.8 209.53,-48.8 209.53,-84.8"/>
<text text-anchor="middle" x="117" y="-62.6" font-family="Times,serif" font-size="14.00">WatchlistPageRoutingModule</text>
</g>
<!-- WatchlistPageRoutingModule&#45;&gt;WatchlistPageModule -->
<g id="edge3" class="edge">
<title>WatchlistPageRoutingModule&#45;&gt;WatchlistPageModule</title>
<path fill="none" stroke="black" d="M209.72,-66.8C217.62,-66.8 222.68,-66.8 222.68,-66.8 222.68,-66.8 222.68,-103.69 222.68,-103.69"/>
<polygon fill="black" stroke="black" points="219.18,-103.69 222.68,-113.69 226.18,-103.69 219.18,-103.69"/>
</g>
</g>
</svg>
