<svg xmlns="http://www.w3.org/2000/svg" width="328" height="174" viewBox="0 0 328 174">
    <defs>
        <style>
            .cls-24{opacity:.4}.cls-25,.cls-3{fill:#44c8f5}.cls-3{stroke:transparent}.cls-4{fill:#ffb93e}.cls-5{fill:#ffa412}.cls-24,.cls-8{fill:#a7e1f7}.cls-7{fill:#75d4f6}.cls-10{fill:#ea8e50}.cls-12{fill:#233862}.cls-13{fill:#e2810e}.cls-14{fill:#2b478b}.cls-15{fill:#ffb07b}.cls-16{fill:#d2e3fc}.cls-18{fill:#ffb27d}.cls-20{fill:#fff}.cls-22{fill:#f99746}.cls-23{fill:#ed7d2b}.cls-26{fill:#36a7ce}.cls-27{fill:#2c3a64}.cls-30{fill:#b23b38}
        </style>
    </defs>
    <g id="Group_14749" transform="translate(-187.985 -245.036)">
        <path id="Path_18761" fill="#ebf3fa" d="M219.118 412.013s-39.662-39.783-6.708-82.853c29.24-38.215 63.33-35.6 88.342-20.095 10.653 6.6 41.366.814 67.507-38.071 35.649-53.029 159.221-20.867 136.69 60.72-10.9 39.482 33.184 40.917 10.72 80.383z" transform="translate(-10.046 0)"/>
        <g id="Group_14682" transform="translate(374.194 368.474)">
            <g id="Group_14681" transform="translate(0 0)">
                <g id="Group_14676" opacity="0.4" transform="translate(3.526 19.032)">
                    <path id="Path_18763" d="M1854.539 1498.776s.425 3.308 2.442 4.276 4.864-.77 4.864-.77-.425-3.308-2.442-4.276-4.864.77-4.864.77z" class="cls-3" transform="translate(-1854.539 -1497.623)"/>
                    <g id="Group_14674" transform="translate(7.113)">
                        <path id="Path_18764" d="M1924.14 1510.256a14.981 14.981 0 0 1 .674-6.529 12.213 12.213 0 0 0 .486-6.015h.81a26.492 26.492 0 0 1-.785 6.51c-.776 3.326.673 6.034.365 6.034z" class="cls-3" transform="translate(-1923.235 -1497.623)"/>
                        <path id="Path_18923" d="M1918.133 1540.116c0-.023.125-2.593-1.116-3.184l.088-.084a2.532 2.532 0 0 1 1.451 1.679c.188.644.045.786.046.81z" class="cls-3" transform="translate(-1917.017 -1532.303)"/>
                        <path id="Path_18924" d="M1950.364 1500.859c-1.554-.314-2.422-2.513-2.422-2.513s1.653-1.69 3.208-1.376 2.422 2.513 2.422 2.513-1.653 1.69-3.208 1.376z" class="cls-3" transform="translate(-1944.421 -1496.932)"/>
                    </g>
                    <g id="Group_14675" transform="translate(9.588 1.211)">
                        <path id="Path_18765" d="M1938.887 1510.057c0-.017.391-2.235 1.431-2.487a1.935 1.935 0 0 0-1.386 1.013c-.245.461-.16.591-.164.609z" class="cls-3" transform="translate(-1938.757 -1507.57)"/>
                    </g>
                </g>
                <g id="Group_14680">
                    <g id="Group_14678">
                        <circle id="Ellipse_1132" cx="8.149" cy="8.149" r="8.149" class="cls-4" transform="translate(0 9.105) rotate(-33.961)"/>
                        <g id="Group_14677" transform="translate(7.19 6.135)">
                            <path id="Path_18767" d="M1887.392 1385.968a.5.5 0 0 1-.661-.353.5.5 0 0 1 .042-.368.534.534 0 0 1 .365-.248l5.052-1.317a.522.522 0 0 1 .442.045.527.527 0 0 1 .219.307.5.5 0 0 1-.043.368.534.534 0 0 1-.365.248l-.737.192q-.478.125-.809.2a4 4 0 0 1-.4.076l.014.055a1.787 1.787 0 0 1 .667.264 1.878 1.878 0 0 1 .6.617l.969-.253a.5.5 0 0 1 .661.353.5.5 0 0 1-.043.368.534.534 0 0 1-.365.248l-.9.235a2.568 2.568 0 0 1-.534 2.064 3.045 3.045 0 0 1-.746.661 4.461 4.461 0 0 1-.872.432l3.858 2.158a.7.7 0 0 1 .347.435.639.639 0 0 1-.05.479.6.6 0 0 1-.4.3.956.956 0 0 1-.306.029.8.8 0 0 1-.345-.121l-4.557-2.6a.95.95 0 0 1-.291-.223.7.7 0 0 1-.145-.276.616.616 0 0 1 .052-.473.579.579 0 0 1 .379-.281l.177-.046a4.878 4.878 0 0 0 .82-.294 2.527 2.527 0 0 0 .683-.455 1.966 1.966 0 0 0 .444-.619 1.545 1.545 0 0 0 .112-.8l-2.772.723a.5.5 0 0 1-.661-.353.5.5 0 0 1 .042-.368.534.534 0 0 1 .365-.248l2.7-.7q-.654-1.054-2.388-.6z" class="cls-5" transform="translate(-1886.714 -1383.655)"/>
                        </g>
                    </g>
                    <g id="Group_14679" transform="translate(3.937 3.965)">
                        <path id="Path_18768" d="M1869.659 1378.217a7.425 7.425 0 1 1 3.188-4.7 7.375 7.375 0 0 1-3.188 4.7zm-7.924-12.032a6.982 6.982 0 1 0 9.671 1.991 6.99 6.99 0 0 0-9.671-1.99z" class="cls-5" transform="translate(-1858.148 -1364.589)"/>
                    </g>
                </g>
            </g>
            <g id="Group_14841" transform="translate(6.222 30.604)">
                <path id="Path_18769" fill="#a7e1f7" d="M1896.084 1600.98v.007l-.162 2.5-.6 9.268h-11.279l-.664-9.141-.183-2.519-.008-.111z" opacity="0.8" transform="translate(-1882.618 -1600.707)"/>
                <path id="Path_18770" d="M1896.146 1601.039l-.162 2.5a19.765 19.765 0 0 0-6.287-1.007 15.714 15.714 0 0 0-6.259 1.134l-.183-2.519z" class="cls-7" transform="translate(-1882.68 -1600.759)"/>
                <path id="Path_18771" d="M1892.071 1600.173h-13.7l-.157-1.593h14.032z" class="cls-8" transform="translate(-1878.213 -1598.58)"/>
                <path id="Path_18772" d="M1899.219 1704.4h-11.695l-.134-.555h11.977z" class="cls-7" transform="translate(-1886.346 -1691.865)"/>
            </g>
        </g>
        <rect id="Rectangle_8549" width="328" height=".87" fill="#2e3552" rx=".435" transform="translate(187.985 411.553)"/>
        <g id="Group_14689" transform="translate(440.571 310.87)">
            <g id="Group_14683" transform="translate(18.562 20.066)">
                <path id="Path_18773" d="M2574.411 1184.522l-1.1.889s-3-1.074-3.672 2.486c0 0-.18 1.517.781 1.52a19.228 19.228 0 0 1 1.926-.126 2.462 2.462 0 0 0 2.688-1.782l.651-.936z" class="cls-10" transform="translate(-2569.63 -1163.52)"/>
                <path id="Path_18774" fill="#1e3d70" d="M2606.443 1022.962a2.239 2.239 0 0 1-.8-1.586s10.117-8.283 11.143-8.958a124.829 124.829 0 0 0 11.632-11.092c1.728-2 3.867-1.222 6.316-.52l2.016.578a3.372 3.372 0 0 1 1.07 5.758c-5.626 4.66-14.984 9.9-16.735 11-4.347 2.734-12.855 5.984-12.855 5.984a5.392 5.392 0 0 1-1.787-1.164z" transform="translate(-2601.538 -1000.052)"/>
            </g>
            <path id="Path_18775" d="M2434.121 1648.26a7.627 7.627 0 0 1-6.217.868s-3.033-.691-3.7.822c0 0 4.652 2.363 5.829 3.009a14.105 14.105 0 0 1 2.468 1.85 1.22 1.22 0 0 0 1.767-.136c.2-.252.439-.551.7-.9.717-.972 2.388-4.112 2.388-4.112z" class="cls-12" transform="translate(-2422.2 -1554.396)"/>
            <g id="Group_14687" transform="translate(0 2.399)">
                <circle id="Ellipse_1133" cx="17.166" cy="17.166" r="17.166" class="cls-13" transform="translate(3.439 38.953) rotate(-82.238)"/>
                <g id="Group_14685" transform="translate(0 0)">
                    <circle id="Ellipse_1134" cx="17.157" cy="17.157" r="17.157" class="cls-4" transform="translate(0 24.263) rotate(-45)"/>
                    <g id="Group_14684" transform="translate(16.123 13.631)">
                        <path id="Path_18776" d="M2549.566 968.684a1.048 1.048 0 0 1-1.333-.843 1.05 1.05 0 0 1 .146-.767 1.125 1.125 0 0 1 .806-.465l10.815-1.984a1.048 1.048 0 0 1 1.332.843 1.051 1.051 0 0 1-.146.767 1.125 1.125 0 0 1-.806.465l-1.578.289q-1.023.188-1.729.287a8.392 8.392 0 0 1-.858.1l.021.117a3.757 3.757 0 0 1 1.359.657 3.948 3.948 0 0 1 1.161 1.388l2.075-.381a1.049 1.049 0 0 1 1.333.843 1.053 1.053 0 0 1-.146.767 1.126 1.126 0 0 1-.806.465l-1.928.354a5.4 5.4 0 0 1-1.439 4.251 6.415 6.415 0 0 1-1.669 1.273 9.4 9.4 0 0 1-1.9.771l7.767 5.128a1.48 1.48 0 0 1 .66.966 1.348 1.348 0 0 1-.179 1 1.268 1.268 0 0 1-.895.557 2.008 2.008 0 0 1-.647.013 1.686 1.686 0 0 1-.706-.308l-9.166-6.17a2 2 0 0 1-.577-.513 1.465 1.465 0 0 1-.261-.6 1.3 1.3 0 0 1 .182-.985 1.22 1.22 0 0 1 .838-.531l.38-.07a10.268 10.268 0 0 0 1.768-.49 5.309 5.309 0 0 0 1.5-.85 4.136 4.136 0 0 0 1.028-1.23 3.249 3.249 0 0 0 .359-1.667l-5.931 1.089a1.049 1.049 0 0 1-1.333-.843 1.05 1.05 0 0 1 .146-.767 1.125 1.125 0 0 1 .805-.465l5.785-1.062q-1.211-2.315-4.921-1.634z" class="cls-5" transform="translate(-2548.215 -964.595)"/>
                    </g>
                </g>
                <g id="Group_14686" transform="translate(8.623 8.826)">
                    <path id="Path_18777" d="M2486.919 949.09a15.64 15.64 0 1 1 11.059 4.581 15.537 15.537 0 0 1-11.059-4.581zm-3.648-11.059a14.707 14.707 0 1 0 14.707-14.707 14.723 14.723 0 0 0-14.707 14.707z" class="cls-5" transform="translate(-2482.338 -922.391)"/>
                </g>
            </g>
            <path id="Path_18778" d="M2498.641 1298.615s1.495 3.447 4.946 2.813a96.3 96.3 0 0 0 11.872-11.857 26.839 26.839 0 0 0 3.689-5.765c3.2-7.416 11.848-18.477 17.345-24.083l-13.752-4.975s-4.4 8.861-10.266 19.745c-4.224 7.843-9.202 16.736-13.834 24.122z" class="cls-14" transform="translate(-2488.162 -1205.686)"/>
            <path id="Path_18779" d="M2620.153 1274.494l2.984 15.078a26.839 26.839 0 0 0 3.689-5.765c3.2-7.416 11.848-18.477 17.345-24.083l-13.752-4.975s-4.405 8.861-10.266 19.745z" class="cls-12" transform="translate(-2595.84 -1205.686)"/>
            <path id="Path_18780" d="M2679.229 1654.1s.15 2.751-3.185 3.118c0 0-1.905.01-1.911 1.761l9.691.031a7.55 7.55 0 0 0 .35-2.219 17.327 17.327 0 0 0-1.126-4.2z" class="cls-12" transform="translate(-2643.675 -1558.231)"/>
            <path id="Path_18781" d="M2668.5 1250s-6.126 6.732-10.015 18.86c-2.116 6.6 3.878 23.189 5.047 28.954a18.375 18.375 0 0 0 6.77-.722s.209-11.906-1.4-21.082c-.9-5.136 8.067-10.984 11.984-20.263 2.666-6.313-.577-6.206-4.562-6.357z" class="cls-14" transform="translate(-2629.407 -1200.936)"/>
            <path id="Path_18782" d="M2812.065 926.279c3.408 1.925 10.387.15 10.387.15a9.72 9.72 0 0 1-1.546-8.457l-2.677 1.359-2.875 1.46a23.885 23.885 0 0 0-.315 2.577c-.033.426-.062.9-.083 1.423a8.94 8.94 0 0 0-2.891 1.488z" class="cls-15" transform="translate(-2765.903 -907.249)"/>
            <path id="Path_18783" d="M2702.279 1007.914c0 .6.69.886.837.915 1.375.251 5.214 1.745 8.672 2.087a27.727 27.727 0 0 0 8.585-.581c.394-.079 1.317-.328 1.382-.7.082-.412 11.456-23.187 2.614-32.97-.208-.229-1.953.184-3.549.563a6.553 6.553 0 0 1-4.034-.33l-1.5.788c-1.838 1.024-5.316 4.664-5.723 7.519-.207 1.452-1.037 2.528-1.278 3.8q-.134.709-.273 1.384-.272 1.323-.56 2.52c-.52 2.16-1.069 4.019-1.608 5.625-.573 1.705-1.136 3.124-1.639 4.31-.652 1.539-1.2 2.689-1.547 3.569a4.4 4.4 0 0 0-.379 1.501z" class="cls-16" transform="translate(-2668.615 -959.198)"/>
            <path id="Path_18784" fill="#a4c8fc" d="M2705.639 1066.578a44.688 44.688 0 0 0 21.616-22.09s-13.045 4.812-16.262 6.065q-.272 1.323-.56 2.52c-.52 2.16-1.069 4.019-1.608 5.625-.574 1.705-1.136 3.124-1.639 4.31-.652 1.539-1.203 2.692-1.547 3.57z" transform="translate(-2671.593 -1019.363)"/>
            <g id="Group_14688" transform="translate(18.562 20.784)">
                <path id="Path_18785" d="M2575.721 1199.319l-1.387.509a2.967 2.967 0 0 0-4.508 1.231s-.626 1.4.365 1.7.63.018 2.022.481 2.764.13 3.29-.865l.943-.692z" class="cls-15" transform="translate(-2569.63 -1177.272)"/>
                <path id="Path_18786" d="M2607.282 1030.367c-.513-1.338-.748-1.945-.748-1.945s10.484-8.545 11.552-9.278c.728-.5 7.975-5.916 11.508-10.138a7.4 7.4 0 0 1 7.188-2.491l2.2.462a3.273 3.273 0 0 1 1.459 5.688c-5.806 4.977-15.6 10.75-17.424 11.95-4.532 2.981-14.557 7.158-14.557 7.158a2.581 2.581 0 0 1-1.178-1.406z" class="cls-16" transform="translate(-2602.333 -1006.358)"/>
            </g>
            <path id="Path_18787" d="M2838.19 933.945a7.174 7.174 0 0 0 5.532-2.579 26.577 26.577 0 0 1-2.342-1.457l-2.875 1.46a23.8 23.8 0 0 0-.315 2.576z" class="cls-10" transform="translate(-2789.053 -917.828)"/>
            <path id="Path_18788" d="M2823.354 868.58s5.079 3.645 7.3.447 4.372-4.881 1.224-7.343-4.633-1.684-5.634-.8-4.153 6.666-2.89 7.696z" class="cls-15" transform="translate(-2775.646 -855.904)"/>
            <path id="Path_18789" d="M2846.187 825.892a8.18 8.18 0 0 1 .592-2.094s.319 1.32 2.731 1.138 6.237.237 7.512 2.987c.081.175.154.355.218.539a6.36 6.36 0 0 0 .286-1.523 4.692 4.692 0 0 1 0 2.664l.019.13a5.369 5.369 0 0 1 .98 1.85 1.676 1.676 0 0 0-.9-.8c.011 2.139-.857 4.231-2.38 4.854-2.227.911-2.209.216-4.448 1.7 0 0-.6-.745-.191-1.246s1.958-1.229 1.093-1.958-1.184.091-1.5-.41 1.275-1.958-.774-3.323-3.42-3.279-3.238-4.508z" class="cls-12" transform="translate(-2796.126 -823.798)"/>
        </g>
        <g id="Group_14722" transform="translate(203.413 324.172)">
            <g id="Group_14717" transform="translate(0 44.163)">
                <g id="Group_14712" transform="translate(25.069 4.879)">
                    <g id="Group_14691" transform="translate(4.023 34.833)">
                        <path id="Path_18790" d="M618.482 1678.129v1.984a.675.675 0 0 1-.156.427.906.906 0 0 1-.427.286 1 1 0 0 1-.167.039 1.036 1.036 0 0 1-.161.012h-37.629a.86.86 0 0 1-.909-.725v-2.023-.039a.86.86 0 0 1 .909-.725h37.629a1.036 1.036 0 0 1 .161.012.972.972 0 0 1 .167.039.908.908 0 0 1 .427.286.675.675 0 0 1 .156.427z" class="cls-4" transform="translate(-579.032 -1677.364)"/>
                        <path id="Path_18791" d="M600 1680.877h-20.155a.8.8 0 0 1-.812-.725v-2.023-.039a.8.8 0 0 1 .812-.725h17.684a6.158 6.158 0 0 0 2.471 3.512z" class="cls-5" transform="translate(-579.032 -1677.364)"/>
                        <g id="Group_14690" transform="translate(13.825)">
                            <path id="Rectangle_8550" d="M0 0H0.428V3.513H0z" class="cls-5" transform="translate(20.618 0)"/>
                            <path id="Rectangle_8551" d="M0 0H0.428V3.513H0z" class="cls-5" transform="translate(19.17 0)"/>
                            <path id="Rectangle_8552" d="M0 0H0.428V3.513H0z" class="cls-5" transform="translate(17.434 0)"/>
                            <path id="Rectangle_8553" d="M0 0H0.428V3.513H0z" class="cls-5" transform="translate(14.773 0)"/>
                            <path id="Rectangle_8554" d="M0 0H0.428V3.513H0z" class="cls-5" transform="translate(11.959 0)"/>
                            <path id="Rectangle_8555" d="M0 0H0.428V3.513H0z" class="cls-5" transform="translate(7.646 0)"/>
                            <path id="Rectangle_8556" d="M0 0H0.428V3.513H0z" class="cls-5" transform="translate(3.607 0)"/>
                            <path id="Rectangle_8557" d="M0 0H0.428V3.513H0z" class="cls-5" transform="translate(0 0)"/>
                            <path id="Rectangle_8558" d="M0 0H0.428V3.513H0z" class="cls-5" transform="translate(21.996 0)"/>
                            <path id="Rectangle_8559" d="M0 0H0.428V3.513H0z" class="cls-5" transform="translate(22.906 0)"/>
                            <path id="Rectangle_8560" d="M0 0H0.428V3.513H0z" class="cls-5" transform="translate(23.785 0)"/>
                            <path id="Path_18792" d="M915.626 1677.376v3.488a1.036 1.036 0 0 1-.161.012h-.265v-3.513h.267a1.036 1.036 0 0 1 .159.013z" class="cls-5" transform="translate(-890.751 -1677.364)"/>
                            <path id="Path_18793" d="M920.845 1678.1v2.838a.906.906 0 0 1-.427.286v-3.41a.907.907 0 0 1 .427.286z" class="cls-5" transform="translate(-895.377 -1677.765)"/>
                        </g>
                    </g>
                    <g id="Group_14693" transform="translate(0 31.32)">
                        <path id="Path_18794" d="M583.144 1647.274v1.984a.675.675 0 0 1-.156.427.9.9 0 0 1-.427.286.985.985 0 0 1-.167.039 1.067 1.067 0 0 1-.161.012H544.6a.86.86 0 0 1-.909-.725v-2.023-.039a.86.86 0 0 1 .909-.725h37.79a.973.973 0 0 1 .167.039l.024.008.023.009.046.019.026.012.023.012.043.023.047.029.035.024.023.017a.748.748 0 0 1 .066.057l.018.018.017.019.034.039a.675.675 0 0 1 .162.439z" class="cls-4" transform="translate(-543.694 -1646.509)"/>
                        <path id="Path_18795" d="M564.666 1650.022h-20.159a.8.8 0 0 1-.812-.725v-2.023-.039a.8.8 0 0 1 .812-.725h17.683l.025.087a6.147 6.147 0 0 0 2.451 3.425z" class="cls-5" transform="translate(-543.694 -1646.509)"/>
                        <g id="Group_14692" transform="translate(13.825)">
                            <path id="Rectangle_8561" d="M0 0H0.428V3.513H0z" class="cls-5" transform="translate(20.618 0)"/>
                            <path id="Rectangle_8562" d="M0 0H0.428V3.513H0z" class="cls-5" transform="translate(19.17 0)"/>
                            <path id="Rectangle_8563" d="M0 0H0.428V3.513H0z" class="cls-5" transform="translate(17.434 0)"/>
                            <path id="Rectangle_8564" d="M0 0H0.428V3.513H0z" class="cls-5" transform="translate(14.773 0)"/>
                            <path id="Rectangle_8565" d="M0 0H0.428V3.513H0z" class="cls-5" transform="translate(11.959 0)"/>
                            <path id="Rectangle_8566" d="M0 0H0.428V3.513H0z" class="cls-5" transform="translate(7.646 0)"/>
                            <path id="Rectangle_8567" d="M0 0H0.428V3.513H0z" class="cls-5" transform="translate(3.607 0)"/>
                            <path id="Rectangle_8568" d="M0 0H0.428V3.513H0z" class="cls-5" transform="translate(0 0)"/>
                            <path id="Rectangle_8569" d="M0 0H0.428V3.513H0z" class="cls-5" transform="translate(21.996 0)"/>
                            <path id="Rectangle_8570" d="M0 0H0.428V3.513H0z" class="cls-5" transform="translate(22.906 0)"/>
                            <path id="Rectangle_8571" d="M0 0H0.428V3.513H0z" class="cls-5" transform="translate(23.785 0)"/>
                            <path id="Path_18796" d="M880.287 1646.52v3.489a1.055 1.055 0 0 1-.161.012h-.267v-3.513h.267a1.087 1.087 0 0 1 .161.012z" class="cls-5" transform="translate(-855.412 -1646.508)"/>
                            <path id="Path_18797" d="M885.507 1647.247v2.837a.906.906 0 0 1-.427.286v-3.41a.906.906 0 0 1 .427.287z" class="cls-5" transform="translate(-860.039 -1646.909)"/>
                        </g>
                    </g>
                    <g id="Group_14695" transform="translate(1.944 27.894)">
                        <path id="Path_18798" d="M600.22 1617.179v1.984a.676.676 0 0 1-.156.427.907.907 0 0 1-.427.286.972.972 0 0 1-.167.039 1.068 1.068 0 0 1-.161.012h-37.628a1.042 1.042 0 0 1-.42-.087.78.78 0 0 1-.487-.6v-.034-2.023-.039a.859.859 0 0 1 .909-.725h37.629a1.037 1.037 0 0 1 .161.012.972.972 0 0 1 .167.039.906.906 0 0 1 .427.286.676.676 0 0 1 .153.423z" class="cls-4" transform="translate(-560.77 -1616.414)"/>
                        <path id="Path_18799" d="M581.742 1619.927h-20.159a.844.844 0 0 1-.374-.087.768.768 0 0 1-.434-.6v-.034-2.023-.039a.8.8 0 0 1 .812-.725h17.684a6.166 6.166 0 0 0 2.352 3.426z" class="cls-5" transform="translate(-560.77 -1616.414)"/>
                        <g id="Group_14694" transform="translate(13.826)">
                            <path id="Rectangle_8572" d="M0 0H0.428V3.513H0z" class="cls-5" transform="translate(20.618 0)"/>
                            <path id="Rectangle_8573" d="M0 0H0.428V3.513H0z" class="cls-5" transform="translate(19.17 0)"/>
                            <path id="Rectangle_8574" d="M0 0H0.428V3.513H0z" class="cls-5" transform="translate(17.434 0)"/>
                            <path id="Rectangle_8575" d="M0 0H0.428V3.513H0z" class="cls-5" transform="translate(14.773 0)"/>
                            <path id="Rectangle_8576" d="M0 0H0.428V3.513H0z" class="cls-5" transform="translate(11.959 0)"/>
                            <path id="Rectangle_8577" d="M0 0H0.428V3.513H0z" class="cls-5" transform="translate(7.646 0)"/>
                            <path id="Rectangle_8578" d="M0 0H0.428V3.513H0z" class="cls-5" transform="translate(3.607 0)"/>
                            <path id="Rectangle_8579" d="M0 0H0.428V3.513H0z" class="cls-5" transform="translate(0 0)"/>
                            <path id="Rectangle_8580" d="M0 0H0.428V3.513H0z" class="cls-5" transform="translate(21.996 0)"/>
                            <path id="Rectangle_8581" d="M0 0H0.428V3.513H0z" class="cls-5" transform="translate(22.906 0)"/>
                            <path id="Rectangle_8582" d="M0 0H0.428V3.513H0z" class="cls-5" transform="translate(23.785 0)"/>
                            <path id="Path_18800" d="M897.365 1616.425v3.488a1.085 1.085 0 0 1-.161.012h-.267v-3.513h.267a1.037 1.037 0 0 1 .161.013z" class="cls-5" transform="translate(-872.49 -1616.413)"/>
                            <path id="Path_18801" d="M902.585 1617.152v2.838a.907.907 0 0 1-.427.286v-3.41a.906.906 0 0 1 .427.286z" class="cls-5" transform="translate(-877.117 -1616.814)"/>
                        </g>
                    </g>
                    <g id="Group_14697" transform="translate(2.846 24.381)">
                        <path id="Path_18802" d="M608.138 1586.323v1.984a.675.675 0 0 1-.156.427.9.9 0 0 1-.427.286.979.979 0 0 1-.167.039 1.053 1.053 0 0 1-.161.012H569.6a.86.86 0 0 1-.909-.725v-2.023-.039a.839.839 0 0 1 .8-.72 1.037 1.037 0 0 1 .108-.005h37.629a1.069 1.069 0 0 1 .161.012.957.957 0 0 1 .167.039.906.906 0 0 1 .427.286.676.676 0 0 1 .155.427z" class="cls-4" transform="translate(-568.688 -1585.559)"/>
                        <path id="Path_18803" d="M589.66 1589.072H569.5a.8.8 0 0 1-.812-.725v-2.023-.039a.789.789 0 0 1 .716-.72.825.825 0 0 1 .1-.005h17.684v.005a6.159 6.159 0 0 0 2.472 3.507z" class="cls-5" transform="translate(-568.688 -1585.559)"/>
                        <g id="Group_14696" transform="translate(13.825)">
                            <path id="Rectangle_8583" d="M0 0H0.428V3.513H0z" class="cls-5" transform="translate(20.618 0)"/>
                            <path id="Rectangle_8584" d="M0 0H0.428V3.513H0z" class="cls-5" transform="translate(19.17 0)"/>
                            <path id="Rectangle_8585" d="M0 0H0.428V3.513H0z" class="cls-5" transform="translate(17.434 0)"/>
                            <path id="Rectangle_8586" d="M0 0H0.428V3.513H0z" class="cls-5" transform="translate(14.773 0)"/>
                            <path id="Rectangle_8587" d="M0 0H0.428V3.513H0z" class="cls-5" transform="translate(11.959 0)"/>
                            <path id="Rectangle_8588" d="M0 0H0.428V3.513H0z" class="cls-5" transform="translate(7.646 0)"/>
                            <path id="Rectangle_8589" d="M0 0H0.428V3.513H0z" class="cls-5" transform="translate(3.607 0)"/>
                            <path id="Rectangle_8590" d="M0 0H0.428V3.513H0z" class="cls-5" transform="translate(0 0)"/>
                            <path id="Rectangle_8591" d="M0 0H0.428V3.513H0z" class="cls-5" transform="translate(21.996 0)"/>
                            <path id="Rectangle_8592" d="M0 0H0.428V3.513H0z" class="cls-5" transform="translate(22.906 0)"/>
                            <path id="Rectangle_8593" d="M0 0H0.428V3.513H0z" class="cls-5" transform="translate(23.785 0)"/>
                            <path id="Path_18804" d="M905.281 1585.569v3.488a1.052 1.052 0 0 1-.16.012h-.267v-3.513h.267a1.022 1.022 0 0 1 .16.013z" class="cls-5" transform="translate(-880.406 -1585.557)"/>
                            <path id="Path_18805" d="M910.5 1586.3v2.838a.906.906 0 0 1-.427.286v-3.41a.907.907 0 0 1 .427.286z" class="cls-5" transform="translate(-885.033 -1585.958)"/>
                        </g>
                    </g>
                    <g id="Group_14699" transform="translate(0.079 20.874)">
                        <path id="Path_18806" d="M583.838 1555.516v1.984a.675.675 0 0 1-.156.427.905.905 0 0 1-.427.286.97.97 0 0 1-.167.039l-.053.007H545.3a.859.859 0 0 1-.909-.725v-2.023-.039-.032a.824.824 0 0 1 .682-.669l.028-.006a1.084 1.084 0 0 1 .2-.018h37.746l.042.006a.981.981 0 0 1 .167.039.906.906 0 0 1 .427.286.675.675 0 0 1 .155.438z" class="cls-4" transform="translate(-544.388 -1554.751)"/>
                        <path id="Path_18807" d="M565.36 1558.264H545.2a.8.8 0 0 1-.812-.725v-2.023-.039-.032a.785.785 0 0 1 .631-.674l.035-.007a.857.857 0 0 1 .144-.012h17.684c0 .008 0 .016.007.025a6.155 6.155 0 0 0 2.46 3.483z" class="cls-5" transform="translate(-544.388 -1554.751)"/>
                        <g id="Group_14698" transform="translate(13.826)">
                            <path id="Rectangle_8594" d="M0 0H0.428V3.513H0z" class="cls-5" transform="translate(20.618 0)"/>
                            <path id="Rectangle_8595" d="M0 0H0.428V3.513H0z" class="cls-5" transform="translate(19.17 0)"/>
                            <path id="Rectangle_8596" d="M0 0H0.428V3.513H0z" class="cls-5" transform="translate(17.434 0)"/>
                            <path id="Rectangle_8597" d="M0 0H0.428V3.513H0z" class="cls-5" transform="translate(14.773 0)"/>
                            <path id="Rectangle_8598" d="M0 0H0.428V3.513H0z" class="cls-5" transform="translate(11.959 0)"/>
                            <path id="Rectangle_8599" d="M0 0H0.428V3.513H0z" class="cls-5" transform="translate(7.646 0)"/>
                            <path id="Rectangle_8600" d="M0 0H0.428V3.513H0z" class="cls-5" transform="translate(3.607 0)"/>
                            <path id="Rectangle_8601" d="M0 0H0.428V3.513H0z" class="cls-5" transform="translate(0 0)"/>
                            <path id="Rectangle_8602" d="M0 0H0.428V3.513H0z" class="cls-5" transform="translate(21.996 0)"/>
                            <path id="Rectangle_8603" d="M0 0H0.428V3.513H0z" class="cls-5" transform="translate(22.906 0)"/>
                            <path id="Rectangle_8604" d="M0 0H0.428V3.513H0z" class="cls-5" transform="translate(23.785 0)"/>
                            <path id="Path_18808" d="M880.982 1554.762v3.489a1.083 1.083 0 0 1-.161.012h-.267v-3.513h.267a1.051 1.051 0 0 1 .161.012z" class="cls-5" transform="translate(-856.107 -1554.75)"/>
                            <path id="Path_18809" d="M886.2 1555.489v2.838a.907.907 0 0 1-.427.286v-3.41a.906.906 0 0 1 .427.286z" class="cls-5" transform="translate(-860.734 -1555.151)"/>
                        </g>
                    </g>
                    <g id="Group_14701" transform="translate(0 17.386)">
                        <path id="Path_18810" d="M583.144 1524.879v1.984a.675.675 0 0 1-.156.427.906.906 0 0 1-.427.286.956.956 0 0 1-.13.033l-.036.006a1.051 1.051 0 0 1-.161.012H544.6a.984.984 0 0 1-.118-.007l-.045-.006a.827.827 0 0 1-.747-.712v-2.023-.039a.86.86 0 0 1 .909-.725h37.79a.973.973 0 0 1 .167.039l.024.008.023.008.046.019.049.024.043.023.047.029.035.024.023.017a.771.771 0 0 1 .066.057l.018.018.017.019.034.039a.675.675 0 0 1 .163.44z" class="cls-4" transform="translate(-543.694 -1524.114)"/>
                        <path id="Path_18811" d="M564.666 1527.627h-20.259a.788.788 0 0 1-.712-.719v-2.023-.039a.8.8 0 0 1 .812-.725h17.683l.025.087a6.149 6.149 0 0 0 2.415 3.4z" class="cls-5" transform="translate(-543.694 -1524.114)"/>
                        <g id="Group_14700" transform="translate(13.825 0)">
                            <path id="Rectangle_8605" d="M0 0H0.428V3.513H0z" class="cls-5" transform="translate(20.618 0)"/>
                            <path id="Rectangle_8606" d="M0 0H0.428V3.513H0z" class="cls-5" transform="translate(19.17 0)"/>
                            <path id="Rectangle_8607" d="M0 0H0.428V3.513H0z" class="cls-5" transform="translate(17.434 0)"/>
                            <path id="Rectangle_8608" d="M0 0H0.428V3.513H0z" class="cls-5" transform="translate(14.773 0)"/>
                            <path id="Rectangle_8609" d="M0 0H0.428V3.513H0z" class="cls-5" transform="translate(11.959 0)"/>
                            <path id="Rectangle_8610" d="M0 0H0.428V3.513H0z" class="cls-5" transform="translate(7.646 0)"/>
                            <path id="Rectangle_8611" d="M0 0H0.428V3.513H0z" class="cls-5" transform="translate(3.607 0)"/>
                            <path id="Rectangle_8612" d="M0 0H0.428V3.513H0z" class="cls-5" transform="translate(0 0)"/>
                            <path id="Rectangle_8613" d="M0 0H0.428V3.513H0z" class="cls-5" transform="translate(21.996 0)"/>
                            <path id="Rectangle_8614" d="M0 0H0.428V3.513H0z" class="cls-5" transform="translate(22.906 0)"/>
                            <path id="Rectangle_8615" d="M0 0H0.428V3.513H0z" class="cls-5" transform="translate(23.785 0)"/>
                            <path id="Path_18812" d="M880.287 1524.127v3.488a1.039 1.039 0 0 1-.161.012h-.267v-3.513h.267a1.055 1.055 0 0 1 .161.013z" class="cls-5" transform="translate(-855.412 -1524.115)"/>
                            <path id="Path_18813" d="M885.507 1524.853v2.837a.907.907 0 0 1-.427.286v-3.41a.908.908 0 0 1 .427.287z" class="cls-5" transform="translate(-860.039 -1524.516)"/>
                        </g>
                    </g>
                    <g id="Group_14703" transform="translate(1.944 13.96)">
                        <path id="Path_18814" d="M600.22 1494.784v1.984a.675.675 0 0 1-.156.427.906.906 0 0 1-.427.286.984.984 0 0 1-.167.039 1.052 1.052 0 0 1-.161.012h-37.628a1.042 1.042 0 0 1-.42-.087.78.78 0 0 1-.487-.6v-.034-2.023-.039a.859.859 0 0 1 .909-.725h37.629a1.084 1.084 0 0 1 .161.012.984.984 0 0 1 .167.04.907.907 0 0 1 .427.286.677.677 0 0 1 .153.422z" class="cls-4" transform="translate(-560.77 -1494.02)"/>
                        <path id="Path_18815" d="M581.742 1497.533h-20.159a.844.844 0 0 1-.374-.087.767.767 0 0 1-.434-.6v-.034-2.023-.039a.8.8 0 0 1 .812-.725h17.684a6.166 6.166 0 0 0 2.352 3.426z" class="cls-5" transform="translate(-560.77 -1494.02)"/>
                        <g id="Group_14702" transform="translate(13.826 0)">
                            <path id="Rectangle_8616" d="M0 0H0.428V3.513H0z" class="cls-5" transform="translate(20.618 0)"/>
                            <path id="Rectangle_8617" d="M0 0H0.428V3.513H0z" class="cls-5" transform="translate(19.17 0)"/>
                            <path id="Rectangle_8618" d="M0 0H0.428V3.513H0z" class="cls-5" transform="translate(17.434 0)"/>
                            <path id="Rectangle_8619" d="M0 0H0.428V3.513H0z" class="cls-5" transform="translate(14.773 0)"/>
                            <path id="Rectangle_8620" d="M0 0H0.428V3.513H0z" class="cls-5" transform="translate(11.959 0)"/>
                            <path id="Rectangle_8621" d="M0 0H0.428V3.513H0z" class="cls-5" transform="translate(7.646 0)"/>
                            <path id="Rectangle_8622" d="M0 0H0.428V3.513H0z" class="cls-5" transform="translate(3.607 0)"/>
                            <path id="Rectangle_8623" d="M0 0H0.428V3.513H0z" class="cls-5" transform="translate(0 0)"/>
                            <path id="Rectangle_8624" d="M0 0H0.428V3.513H0z" class="cls-5" transform="translate(21.996 0)"/>
                            <path id="Rectangle_8625" d="M0 0H0.428V3.513H0z" class="cls-5" transform="translate(22.906 0)"/>
                            <path id="Rectangle_8626" d="M0 0H0.428V3.513H0z" class="cls-5" transform="translate(23.785 0)"/>
                            <path id="Path_18816" d="M897.365 1494.033v3.488a1.068 1.068 0 0 1-.161.012h-.267v-3.513h.267a1.053 1.053 0 0 1 .161.013z" class="cls-5" transform="translate(-872.49 -1494.021)"/>
                            <path id="Path_18817" d="M902.585 1494.759v2.838a.907.907 0 0 1-.427.286v-3.41a.907.907 0 0 1 .427.286z" class="cls-5" transform="translate(-877.117 -1494.422)"/>
                        </g>
                    </g>
                    <g id="Group_14705" transform="translate(5.019 10.447)">
                        <path id="Path_18818" d="M627.23 1463.928v1.984a.676.676 0 0 1-.156.427.907.907 0 0 1-.427.286.962.962 0 0 1-.167.039 1.054 1.054 0 0 1-.161.012H588.69a.86.86 0 0 1-.909-.725v-2.023-.039a.839.839 0 0 1 .8-.72.982.982 0 0 1 .108-.006h37.629a1.039 1.039 0 0 1 .161.012.962.962 0 0 1 .167.039.9.9 0 0 1 .427.286.676.676 0 0 1 .157.428z" class="cls-4" transform="translate(-587.78 -1463.164)"/>
                        <path id="Path_18819" d="M608.752 1466.677h-20.159a.8.8 0 0 1-.812-.725v-2.023-.039a.789.789 0 0 1 .716-.72.775.775 0 0 1 .1-.006h17.684v.006a6.159 6.159 0 0 0 2.471 3.507z" class="cls-5" transform="translate(-587.78 -1463.164)"/>
                        <g id="Group_14704" transform="translate(13.826)">
                            <path id="Rectangle_8627" d="M0 0H0.428V3.513H0z" class="cls-5" transform="translate(20.618 0)"/>
                            <path id="Rectangle_8628" d="M0 0H0.428V3.513H0z" class="cls-5" transform="translate(19.17 0)"/>
                            <path id="Rectangle_8629" d="M0 0H0.428V3.513H0z" class="cls-5" transform="translate(17.434 0)"/>
                            <path id="Rectangle_8630" d="M0 0H0.428V3.513H0z" class="cls-5" transform="translate(14.773 0)"/>
                            <path id="Rectangle_8631" d="M0 0H0.428V3.513H0z" class="cls-5" transform="translate(11.959 0)"/>
                            <path id="Rectangle_8632" d="M0 0H0.428V3.513H0z" class="cls-5" transform="translate(7.646 0)"/>
                            <path id="Rectangle_8633" d="M0 0H0.428V3.513H0z" class="cls-5" transform="translate(3.607 0)"/>
                            <path id="Rectangle_8634" d="M0 0H0.428V3.513H0z" class="cls-5" transform="translate(0 0)"/>
                            <path id="Rectangle_8635" d="M0 0H0.428V3.513H0z" class="cls-5" transform="translate(21.996 0)"/>
                            <path id="Rectangle_8636" d="M0 0H0.428V3.513H0z" class="cls-5" transform="translate(22.906 0)"/>
                            <path id="Rectangle_8637" d="M0 0H0.428V3.513H0z" class="cls-5" transform="translate(23.785 0)"/>
                            <path id="Path_18820" d="M924.376 1463.176v3.488a1.053 1.053 0 0 1-.161.012h-.267v-3.513h.267a1.037 1.037 0 0 1 .161.013z" class="cls-5" transform="translate(-899.501 -1463.164)"/>
                            <path id="Path_18821" d="M929.6 1463.9v2.838a.907.907 0 0 1-.427.286v-3.41a.906.906 0 0 1 .427.286z" class="cls-5" transform="translate(-904.127 -1463.565)"/>
                        </g>
                    </g>
                    <g id="Group_14707" transform="translate(0.079 6.939)">
                        <path id="Path_18822" d="M583.838 1433.12v1.984a.675.675 0 0 1-.156.427.905.905 0 0 1-.427.286.981.981 0 0 1-.167.039l-.053.007H545.3a.86.86 0 0 1-.909-.725v-2.023-.039a.86.86 0 0 1 .909-.725h37.677c.038 0 .076.006.112.011a.959.959 0 0 1 .167.039c.027.009.054.018.079.029l.047.021h.005l.046.024h.008l.041.025a.734.734 0 0 1 .091.066l.026.022.016.015.027.028c.013.013.025.027.036.041a.676.676 0 0 1 .16.448z" class="cls-4" transform="translate(-544.388 -1432.356)"/>
                        <path id="Path_18823" d="M565.36 1435.869H545.2a.8.8 0 0 1-.812-.725v-2.023-.039a.8.8 0 0 1 .812-.725h17.684l.023.081a6.146 6.146 0 0 0 2.444 3.426z" class="cls-5" transform="translate(-544.388 -1432.356)"/>
                        <g id="Group_14706" transform="translate(13.826)">
                            <path id="Rectangle_8638" d="M0 0H0.428V3.513H0z" class="cls-5" transform="translate(20.618 0)"/>
                            <path id="Rectangle_8639" d="M0 0H0.428V3.513H0z" class="cls-5" transform="translate(19.17 0)"/>
                            <path id="Rectangle_8640" d="M0 0H0.428V3.513H0z" class="cls-5" transform="translate(17.434 0)"/>
                            <path id="Rectangle_8641" d="M0 0H0.428V3.513H0z" class="cls-5" transform="translate(14.773 0)"/>
                            <path id="Rectangle_8642" d="M0 0H0.428V3.513H0z" class="cls-5" transform="translate(11.959 0)"/>
                            <path id="Rectangle_8643" d="M0 0H0.428V3.513H0z" class="cls-5" transform="translate(7.646 0)"/>
                            <path id="Rectangle_8644" d="M0 0H0.428V3.513H0z" class="cls-5" transform="translate(3.607 0)"/>
                            <path id="Rectangle_8645" d="M0 0H0.428V3.513H0z" class="cls-5" transform="translate(0 0)"/>
                            <path id="Rectangle_8646" d="M0 0H0.428V3.513H0z" class="cls-5" transform="translate(21.996 0)"/>
                            <path id="Rectangle_8647" d="M0 0H0.428V3.513H0z" class="cls-5" transform="translate(22.906 0)"/>
                            <path id="Rectangle_8648" d="M0 0H0.428V3.513H0z" class="cls-5" transform="translate(23.785 0)"/>
                            <path id="Path_18824" d="M880.982 1432.368v3.488a1.035 1.035 0 0 1-.161.012h-.267v-3.513h.267a1.051 1.051 0 0 1 .161.013z" class="cls-5" transform="translate(-856.107 -1432.356)"/>
                            <path id="Path_18825" d="M886.2 1433.1v2.838a.906.906 0 0 1-.427.286v-3.41a.906.906 0 0 1 .427.286z" class="cls-5" transform="translate(-860.734 -1432.758)"/>
                        </g>
                    </g>
                    <g id="Group_14709" transform="translate(2.846 3.507)">
                        <path id="Path_18826" d="M608.138 1402.979v1.984a.675.675 0 0 1-.156.427.9.9 0 0 1-.427.286.956.956 0 0 1-.167.039 1.053 1.053 0 0 1-.161.012H569.6a1.036 1.036 0 0 1-.407-.081.782.782 0 0 1-.5-.613v-.031-2.023-.039a.839.839 0 0 1 .8-.72 1 1 0 0 1 .108-.005h37.629a1.053 1.053 0 0 1 .161.012.991.991 0 0 1 .167.039.906.906 0 0 1 .427.286.675.675 0 0 1 .153.427z" class="cls-4" transform="translate(-568.688 -1402.214)"/>
                        <path id="Path_18827" d="M589.66 1405.727H569.5a.838.838 0 0 1-.363-.081.769.769 0 0 1-.446-.613v-.031-2.023-.039a.789.789 0 0 1 .716-.72.8.8 0 0 1 .1-.005h17.684v.005a6.163 6.163 0 0 0 2.358 3.426c.033.027.072.054.111.081z" class="cls-5" transform="translate(-568.688 -1402.214)"/>
                        <g id="Group_14708" transform="translate(13.825)">
                            <path id="Rectangle_8649" d="M0 0H0.428V3.513H0z" class="cls-5" transform="translate(20.618 0)"/>
                            <path id="Rectangle_8650" d="M0 0H0.428V3.513H0z" class="cls-5" transform="translate(19.17 0)"/>
                            <path id="Rectangle_8651" d="M0 0H0.428V3.513H0z" class="cls-5" transform="translate(17.434 0)"/>
                            <path id="Rectangle_8652" d="M0 0H0.428V3.513H0z" class="cls-5" transform="translate(14.773 0)"/>
                            <path id="Rectangle_8653" d="M0 0H0.428V3.513H0z" class="cls-5" transform="translate(11.959 0)"/>
                            <path id="Rectangle_8654" d="M0 0H0.428V3.513H0z" class="cls-5" transform="translate(7.646 0)"/>
                            <path id="Rectangle_8655" d="M0 0H0.428V3.513H0z" class="cls-5" transform="translate(3.607 0)"/>
                            <path id="Rectangle_8656" d="M0 0H0.428V3.513H0z" class="cls-5" transform="translate(0 0)"/>
                            <path id="Rectangle_8657" d="M0 0H0.428V3.513H0z" class="cls-5" transform="translate(21.996 0)"/>
                            <path id="Rectangle_8658" d="M0 0H0.428V3.513H0z" class="cls-5" transform="translate(22.906 0)"/>
                            <path id="Rectangle_8659" d="M0 0H0.428V3.513H0z" class="cls-5" transform="translate(23.785 0)"/>
                            <path id="Path_18828" d="M905.281 1402.225v3.488a1.052 1.052 0 0 1-.16.012h-.267v-3.513h.267a1.068 1.068 0 0 1 .16.013z" class="cls-5" transform="translate(-880.406 -1402.213)"/>
                            <path id="Path_18829" d="M910.5 1402.952v2.838a.908.908 0 0 1-.427.286v-3.41a.906.906 0 0 1 .427.286z" class="cls-5" transform="translate(-885.033 -1402.614)"/>
                        </g>
                    </g>
                    <g id="Group_14711" transform="translate(4.023)">
                        <path id="Path_18830" d="M618.482 1372.17v1.984a.676.676 0 0 1-.156.427.907.907 0 0 1-.427.286.961.961 0 0 1-.167.039l-.053.007h-37.737a.86.86 0 0 1-.909-.725v-2.023-.039a.859.859 0 0 1 .909-.725h37.629a1.051 1.051 0 0 1 .161.012.972.972 0 0 1 .167.039.907.907 0 0 1 .427.286.675.675 0 0 1 .156.432z" class="cls-4" transform="translate(-579.032 -1371.406)"/>
                        <path id="Path_18831" d="M600 1374.919h-20.155a.8.8 0 0 1-.812-.725v-2.023-.039a.8.8 0 0 1 .812-.725h17.684a6.157 6.157 0 0 0 2.467 3.507z" class="cls-5" transform="translate(-579.032 -1371.406)"/>
                        <g id="Group_14710" transform="translate(13.825)">
                            <path id="Rectangle_8660" d="M0 0H0.428V3.513H0z" class="cls-5" transform="translate(20.618 0)"/>
                            <path id="Rectangle_8661" d="M0 0H0.428V3.513H0z" class="cls-5" transform="translate(19.17 0)"/>
                            <path id="Rectangle_8662" d="M0 0H0.428V3.513H0z" class="cls-5" transform="translate(17.434 0)"/>
                            <path id="Rectangle_8663" d="M0 0H0.428V3.513H0z" class="cls-5" transform="translate(14.773 0)"/>
                            <path id="Rectangle_8664" d="M0 0H0.428V3.513H0z" class="cls-5" transform="translate(11.959 0)"/>
                            <path id="Rectangle_8665" d="M0 0H0.428V3.513H0z" class="cls-5" transform="translate(7.646 0)"/>
                            <path id="Rectangle_8666" d="M0 0H0.428V3.513H0z" class="cls-5" transform="translate(3.607 0)"/>
                            <path id="Rectangle_8667" d="M0 0H0.428V3.513H0z" class="cls-5" transform="translate(0 0)"/>
                            <path id="Rectangle_8668" d="M0 0H0.428V3.513H0z" class="cls-5" transform="translate(21.996 0)"/>
                            <path id="Rectangle_8669" d="M0 0H0.428V3.513H0z" class="cls-5" transform="translate(22.906 0)"/>
                            <path id="Rectangle_8670" d="M0 0H0.428V3.513H0z" class="cls-5" transform="translate(23.785 0)"/>
                            <path id="Path_18832" d="M915.626 1371.417v3.488a1.037 1.037 0 0 1-.161.012h-.265v-3.513h.267a1.023 1.023 0 0 1 .159.013z" class="cls-5" transform="translate(-890.751 -1371.405)"/>
                            <path id="Path_18833" d="M920.846 1372.144v2.838a.909.909 0 0 1-.427.286v-3.41a.908.908 0 0 1 .427.286z" class="cls-5" transform="translate(-895.378 -1371.806)"/>
                        </g>
                    </g>
                </g>
                <g id="Group_14716" transform="translate(0 0)">
                    <circle id="Ellipse_1135" cx="17.884" cy="17.884" r="17.884" class="cls-13" transform="translate(1.619 25.35) rotate(-45)"/>
                    <g id="Group_14714">
                        <circle id="Ellipse_1136" cx="17.925" cy="17.925" r="17.925" class="cls-4" transform="translate(0 25.35) rotate(-45)"/>
                        <g id="Group_14713" transform="translate(18.355 14.113)">
                            <path id="Path_18834" d="M487.8 1454.705a1.1 1.1 0 0 1-.946-1.349 1.1 1.1 0 0 1 .449-.681 1.176 1.176 0 0 1 .964-.124l11.222 2.435a1.1 1.1 0 0 1 .946 1.348 1.1 1.1 0 0 1-.449.681 1.176 1.176 0 0 1-.964.125l-1.638-.355q-1.062-.231-1.783-.419a8.839 8.839 0 0 1-.866-.251l-.026.121a3.929 3.929 0 0 1 1.046 1.18 4.132 4.132 0 0 1 .561 1.8l2.153.467a1.1 1.1 0 0 1 .946 1.349 1.1 1.1 0 0 1-.449.681 1.176 1.176 0 0 1-.964.124l-2-.434a5.648 5.648 0 0 1-3.1 3.52 6.7 6.7 0 0 1-2.121.556 9.8 9.8 0 0 1-2.139-.019l5.427 8.069a1.546 1.546 0 0 1 .248 1.2 1.409 1.409 0 0 1-.575.892 1.324 1.324 0 0 1-1.086.177 2.1 2.1 0 0 1-.629-.248 1.759 1.759 0 0 1-.557-.581l-6.357-9.636a2.082 2.082 0 0 1-.35-.727 1.53 1.53 0 0 1-.01-.685 1.356 1.356 0 0 1 .571-.876 1.275 1.275 0 0 1 1.023-.175l.394.086a10.727 10.727 0 0 0 1.9.238 5.546 5.546 0 0 0 1.793-.214 4.327 4.327 0 0 0 1.486-.773 3.394 3.394 0 0 0 1.016-1.463l-6.157-1.336a1.1 1.1 0 0 1-.946-1.348 1.1 1.1 0 0 1 .449-.681 1.175 1.175 0 0 1 .964-.124l6.005 1.3q-.236-2.719-4.088-3.554z" class="cls-5" transform="translate(-484.718 -1452.507)"/>
                        </g>
                    </g>
                    <g id="Group_14715" transform="translate(9.057 9.268)">
                        <path id="Path_18835" d="M419.338 1442.542a16.294 16.294 0 1 1 11.521-4.772 16.187 16.187 0 0 1-11.521 4.772zm0-31.615a15.322 15.322 0 1 0 15.322 15.322 15.339 15.339 0 0 0-15.322-15.323z" class="cls-5" transform="translate(-403.044 -1409.954)"/>
                    </g>
                </g>
            </g>
            <g id="Group_14721" transform="translate(27.936)">
                <path id="Path_18836" d="M728.249 1331.469a11.889 11.889 0 0 1-4.134 4.417h-9.582s15.113-6.848 13.716-4.417z" class="cls-12" transform="translate(-697.95 -1286.51)"/>
                <g id="Group_14718">
                    <path id="Path_18837" d="M768.594 1490.266a.886.886 0 0 0-.158.947 5.89 5.89 0 0 0 1.861 2.041c.112.091.212.173.3.249l.067.06.052.047c.818.754.51.927 1.979 2.456 1.675 1.743 2.829 1.775 3.157 1.616.278-.135-.286-1.06-.911-2.1l-.091-.152-.249-.417c-.732-1.25-.544-1.837-.371-3.7.141-1.512 2.353-8.449 2.353-8.449l-3.21-.553s-.967 5.524-2.032 6.375c-.57.453-1.207.459-1.755.8-.039.023-.077.047-.114.072a4.2 4.2 0 0 0-.878.708z" class="cls-18" transform="translate(-745.654 -1420.648)"/>
                    <path id="Path_18838" d="M768.594 1546.071a.886.886 0 0 0-.158.948 6.822 6.822 0 0 0 1.864 2.034c.111.092.208.177.3.256l.067.06.052.046c.818.754.51.927 1.979 2.457 1.675 1.743 2.829 1.774 3.157 1.615.278-.135-.286-1.06-.911-2.1a7.142 7.142 0 0 1-2.986-2.2c-1.009-1.287-1.682-2.941-2.368-3.9-.039.023-.077.047-.114.072a4.213 4.213 0 0 0-.882.712z" class="cls-12" transform="translate(-745.654 -1476.453)"/>
                    <path id="Path_18839" d="M977.769 1480.655c.2.991 1.611.826 3.189.44s1.2.073 3.449-.176 2.926-1.086 2.995-1.42c.061-.3-1.049-.4-2.239-.538l-.45-.054c-1.344-.169-2.328-1.036-3.549-1.748-1.156-.675-2.882-3.424-2.882-3.424l-3.08.244s1.616 2.455 2.242 3.522a3.722 3.722 0 0 1 .3 2.1 3.953 3.953 0 0 0 .025 1.054z" class="cls-18" transform="translate(-928.941 -1413.043)"/>
                    <path id="Path_18840" d="M1000.577 1521.769c1.578-.386 1.2.073 3.449-.176s2.926-1.086 3-1.42c.061-.3-1.049-.4-2.239-.538l-.011.023a6.333 6.333 0 0 1-3.217 1c-1.524.037-3.138-.4-4.19-.383a3.962 3.962 0 0 0 .024 1.054c.193.991 1.607.826 3.184.44z" class="cls-12" transform="translate(-948.561 -1453.717)"/>
                    <path id="Path_18841" d="M811.812 1323.074l-2.88 7.748-3.759 10.117a6.09 6.09 0 0 1-2-.182 8.658 8.658 0 0 1-1.932-.94s1.044-10.863 2.991-17.1a11.1 11.1 0 0 1 1.675-3.624c3.022-3.567 5.905 3.981 5.905 3.981z" class="cls-12" transform="translate(-774.789 -1275.158)"/>
                    <path id="Path_18842" d="M651.556 1241.373c-1.887-.609-7.267.173-12.672 1.231l-1.132-1.867-11.675-.912s-3.852 8.543-1.743 13.987a2.059 2.059 0 0 0 2.127 1.154s6.966.17 9.223.17c5.806 0 12.287-3.991 13.126-4.159 1.372-.275 1.921 2.47 3.294 5.352S665 1269.1 665 1269.1a10.145 10.145 0 0 0 2.5-.257 2.466 2.466 0 0 0 1.075-.679s-12.765-25.418-17.019-26.791z" class="cls-14" transform="translate(-617.461 -1205.764)"/>
                    <path id="Path_18843" d="M588.26 941.327a4.139 4.139 0 0 0-2.245-.58 6.744 6.744 0 0 1-1.115-.073c-4.424-.594-7.086 5.834-7.243 7.782-.289 3.59-2.188 4.138-4.861 6.386-5.36 4.509-3.788 9.747-.857 11.694 1.759 1.168 4.858 0 4.858 0 .044.031 8.478-4.715 12.635-7 6.232-.89 1.332-16.718-1.172-18.209z" class="cls-12" transform="translate(-569.209 -940.635)"/>
                    <path id="Path_18844" d="M671.621 1038.621a5.493 5.493 0 0 1-3.425.105 6.107 6.107 0 0 1-2.263-2.711c.591-.027 1.239-.543 1.738-3.931l.252.09 4.228 1.521s-.306 1.357-.5 2.648c-.172 1.085-.261 2.124-.03 2.278z" class="cls-18" transform="translate(-654.883 -1021.673)"/>
                    <path id="Path_18845" fill="#ed975d" d="M687.641 1034.4s-.306 1.357-.5 2.648c-2.429-.437-3.382-2.857-3.724-4.17z" transform="translate(-670.373 -1022.375)"/>
                    <path id="Path_18846" d="M684.973 978.865s-5.785-.776-5.246-4.372.155-6.116 3.872-5.773 4.227 1.823 4.339 3.067-1.446 7.187-2.965 7.078z" class="cls-18" transform="translate(-667.075 -965.495)"/>
                    <path id="Path_18847" d="M674.808 967.343s-3.7 3.191-6.222 3.449-3.472-.551-3.472-.551a9.836 9.836 0 0 0 2.378-3.222 1.771 1.771 0 0 1 1.46-1.044c1.798-.157 5.208-.228 5.856 1.368z" class="cls-12" transform="translate(-654.156 -963.021)"/>
                    <path id="Path_18848" d="M729.934 970.694a9.119 9.119 0 0 1 1.629 2.086 7 7 0 0 1 .19 3.722s1.93-3.753.837-5.577a1.542 1.542 0 0 0-2.656-.231z" class="cls-12" transform="translate(-711.598 -966.659)"/>
                    <path id="Path_18849" d="M637.851 1076.682c-.175 11.71-.048 9.263-1.329 10.374a4.919 4.919 0 0 1-2.318.5c-3.591.238-9.9-.353-10.143-1.017-.828-2.3-.244-3.009-.935-6.525-.072-.374-.161-.778-.266-1.219-.576-2.415-1.137-3.236.907-7.115 1.854-3.514 3.779-6.365 3.953-6.262 4.891 2.9 5.285.463 5.285.463s4.932 5.089 4.846 10.801z" class="cls-20" transform="translate(-616.242 -1051.212)"/>
                    <path id="Path_18850" d="M808.932 1366.486l-3.759 10.117a6.094 6.094 0 0 1-2-.182 8.662 8.662 0 0 1-1.932-.94s1.044-10.863 2.991-17.1z" class="cls-14" transform="translate(-774.789 -1310.822)"/>
                    <path id="Path_18851" d="M716.12 1069.5s5.032.853 5.623 3.02l4.068 14.9s-2.558.46-3.74-.722-4.112-10.964-4.112-10.964z" class="cls-20" transform="translate(-699.356 -1054.831)"/>
                    <path id="Path_18852" fill="#ebf3ff" d="M640.424 1163.229c-3.591.238-9.9-.353-10.143-1.017-.828-2.3-.244-3.009-.935-6.525l1.732-4.877s-.286 5.431 1.315 6.859 6.557 2.757 7.336 3.951a4.365 4.365 0 0 1 .695 1.609z" transform="translate(-622.462 -1126.883)"/>
                    <path id="Path_18853" d="M690.509 1235.557s3.543-.789 4.114-.474a8.324 8.324 0 0 1 2.144 1.858c.175.4-1.273-.3-1.743-.429a4.194 4.194 0 0 0-1.5.329 5 5 0 0 1-2.7.271z" class="cls-18" transform="translate(-676.661 -1201.495)"/>
                    <path id="Path_18854" d="M580.351 1065.42s-4.757.293-6.4 2.59c-2.318 3.233-6.916 17.011-4.281 18.848 2.968 2.069 13.507.541 13.507.541a4.281 4.281 0 0 0-.137-2.432c-.488-.793-8.418-2.074-8.784-2.44s4.575-7.137 4.575-8.234 1.52-8.873 1.52-8.873z" class="cls-20" transform="translate(-568.876 -1051.213)"/>
                    <path id="Path_18855" d="M728.152 1244.32a6.853 6.853 0 0 0 .986 1.072.726.726 0 0 0 .4.086l-.5-.9z" class="cls-18" transform="translate(-710.019 -1209.746)"/>
                    <path id="Path_18856" d="M726.645 1235.659l2.158 1.048a.385.385 0 0 1-.358.138 5.153 5.153 0 0 1-.936-.257z" class="cls-18" transform="translate(-708.683 -1202.071)"/>
                </g>
                <g id="Group_14720" transform="translate(13.848 24.343)">
                    <g id="Group_14719">
                        <path id="Path_18857" d="M736.809 1167.223h17.071l5.135-12.77H741.97z" class="cls-22" transform="translate(-731.537 -1154.453)"/>
                        <path id="Path_18858" d="M713.051 1262.246h-22.542v.5h22.342z" class="cls-23" transform="translate(-690.509 -1249.974)"/>
                    </g>
                    <path id="Path_18859" d="M835.99 1204.209a.591.591 0 0 0-.58-.813 1.164 1.164 0 0 0-1.046.813.591.591 0 0 0 .58.813 1.164 1.164 0 0 0 1.046-.813z" class="cls-20" transform="translate(-817.957 -1197.824)"/>
                </g>
            </g>
        </g>
        <g id="Group_14734" transform="translate(299.554 279.691)">
            <g id="Group_14732" transform="translate(0 0)">
                <g id="Group_14726" transform="translate(39.066 59.546)">
                    <path id="Path_18861" d="M1511.128 1139.266s-.427 3.983 1.659 5.677 5.9.458 5.9.458.427-3.983-1.659-5.677-5.9-.458-5.9-.458z" class="cls-8" transform="translate(-1511.092 -1131.332)"/>
                    <g id="Group_14724" transform="translate(8.848)">
                        <path id="Path_18862" d="M1589.123 1110.76a45.153 45.153 0 0 1 2.031-19.67 36.8 36.8 0 0 0 1.465-18.124h2.44a79.8 79.8 0 0 1-2.366 19.614c-2.338 10.02 2.028 18.18 1.1 18.18z" class="cls-8" transform="translate(-1588.805 -1072.966)"/>
                    </g>
                    <g id="Group_14725" transform="translate(13.898 1.155)">
                        <path id="Path_18863" d="M1633.555 1110.161c.013-.052 1.177-6.733 4.31-7.493a5.827 5.827 0 0 0-4.175 3.052c-.74 1.388-.481 1.781-.495 1.837z" class="cls-8" transform="translate(-1633.162 -1100.442)"/>
                        <path id="Path_18921" d="M1663.081 1087.215c-1.61.446-3.473-1.2-3.473-1.2s.747-2.375 2.356-2.822 3.473 1.2 3.473 1.2-.746 2.376-2.356 2.822z" class="cls-8" transform="translate(-1656.597 -1083.112)"/>
                    </g>
                    <path id="Path_18922" d="M1571.026 1200.721c0-.069.377-7.811-3.364-9.593l.264-.254a7.63 7.63 0 0 1 4.372 5.06c.565 1.941.135 2.367.138 2.441z" class="cls-8" transform="translate(-1561.221 -1177.451)"/>
                </g>
                <path id="Path_18864" d="M1208.771 901.521s-3.379-4.772-7.218-6.173c0 0 1.435 11.192-.664 11.331s-.7-12.587-.7-12.587-10-5.552-14.059-5.4c0 0 5.748 11.183 3.68 10.8s-8.591-11.742-8.591-11.742-10.435-2.572-12.494 3.581.493 9.438 2.033 9.92 11.576.939 11.239 2.227-7.231 2.974-10.939 1.581c0 0 3.565 10.533 9.065 10.332s7.392-3.487 10.793-3.55 5.823.994 4.076 1.807-7.441-.136-10.312 2.029-5.169 3.468-.151 4.807 12.592-.173 16.186-2.568c.01-.007 2.943-.24 5.252 13.335.89 5.233.206 13 .206 13l1.862-.284a66.31 66.31 0 0 0-4.458-27.867s9.317-6.888 5.194-14.579z" class="cls-8" transform="translate(-1167.954 -848.821)"/>
                <g id="Group_14840" transform="translate(63.212 32.205)">
                    <path id="Path_18865" d="M1731.26 950.04s-11.227-4.717-7.208-13.3c0 0 3.384-5.373 7.463-7.118 0 0-.9 12.22 1.386 12.247s.019-13.689.019-13.689 10.515-6.608 14.926-6.68c0 0-5.575 12.464-3.354 11.928s8.624-13.237 8.624-13.237 11.163-3.4 13.757 3.147.021 10.263-1.62 10.876-12.5 1.7-12.055 3.075 8.016 2.8 11.954 1.07c0 0-3.246 11.63-9.222 11.736s-8.22-3.346-11.912-3.214-6.255 1.421-4.313 2.2 8.06-.585 11.3 1.593 5.809 3.456.447 5.2-15.3 2.159-17.744-1.841z" class="cls-24" transform="translate(-1723.183 -909.461)"/>
                    <path id="Path_18866" d="M1811.911 978.438s-28.477 12.918-30.644 24a22.6 22.6 0 0 1-1.652 10.595l.239 2.111s2.284-7.529 3.862-8.706c0-.002-7.668-8.543 28.195-28z" class="cls-8" transform="translate(-1773.19 -961.858)"/>
                    <path id="Path_18867" d="M1766.027 1270.878a19.622 19.622 0 0 0-.222 15.571l1.137-.448s-2.189-9.153-.332-14.091-.583-1.032-.583-1.032z" class="cls-8" transform="translate(-1759.602 -1219.706)"/>
                    <path id="Path_18870" d="M1874.713 840.939c-2.4 2.781-7.827 2.033-7.827 2.033s-1.532-5.258.869-8.04 7.827-2.033 7.827-2.033 1.532 5.259-.869 8.04z" class="cls-8" transform="translate(-1850.099 -832.808)"/>
                </g>
                <g id="Group_14839" transform="translate(13.408 9.248)">
                    <path id="Path_18868" d="M1303.008 728.35s-9.854 1.785-14.455-3.111-2.208-14.62-2.208-14.62z" class="cls-8" transform="translate(-1285.723 -701.292)"/>
                    <path id="Path_18869" d="M1305.644 713.73c4.6 4.9 2.208 14.62 2.208 14.62l-16.662-17.731s9.853-1.785 14.454 3.111z" class="cls-24" transform="translate(-1290.567 -701.292)"/>
                    <path id="Path_18872" d="M1387.235 634.522c1.1 2.616-1.274 6.117-1.274 6.117s-4.167-.741-5.27-3.357 1.275-6.117 1.275-6.117 4.166.741 5.269 3.357z" class="cls-8" transform="translate(-1369.62 -631.165)"/>
                </g>
                <g id="Group_14731" transform="translate(16.331)">
                    <circle id="Ellipse_1137" cx="24.553" cy="24.553" r="24.553" class="cls-13" transform="translate(2.125 34.723) rotate(-45)"/>
                    <g id="Group_14729" transform="translate(0 0.267)">
                        <circle id="Ellipse_1138" cx="24.553" cy="24.553" r="24.553" class="cls-4" transform="translate(0 34.723) rotate(-45)"/>
                        <g id="Group_14728" transform="translate(25.201 20.741)">
                            <path id="Path_18873" d="M1534.413 737.483a1.5 1.5 0 0 1-1.658-1.53 1.5 1.5 0 0 1 .4-1.042 1.609 1.609 0 0 1 1.254-.446h15.729A1.5 1.5 0 0 1 1551.8 736a1.5 1.5 0 0 1-.4 1.042 1.611 1.611 0 0 1-1.254.446h-2.3q-1.489 0-2.508-.043a12.059 12.059 0 0 1-1.233-.085v.17a5.384 5.384 0 0 1 1.743 1.275 5.661 5.661 0 0 1 1.275 2.253h3.018a1.5 1.5 0 0 1 1.658 1.531 1.5 1.5 0 0 1-.4 1.042 1.612 1.612 0 0 1-1.254.446h-2.806a7.736 7.736 0 0 1-3.125 5.611 9.176 9.176 0 0 1-2.678 1.36 13.414 13.414 0 0 1-2.869.6l9.607 9.225a2.117 2.117 0 0 1 .68 1.53 1.93 1.93 0 0 1-.51 1.36 1.815 1.815 0 0 1-1.4.553 2.876 2.876 0 0 1-.914-.149 2.411 2.411 0 0 1-.914-.616L1533.9 752.49a2.855 2.855 0 0 1-.68-.871 2.1 2.1 0 0 1-.212-.914 1.858 1.858 0 0 1 .51-1.339 1.746 1.746 0 0 1 1.318-.531h.553a14.689 14.689 0 0 0 2.615-.234 7.6 7.6 0 0 0 2.338-.808 5.926 5.926 0 0 0 1.764-1.467 4.649 4.649 0 0 0 .935-2.253h-8.63a1.5 1.5 0 0 1-1.658-1.53 1.5 1.5 0 0 1 .4-1.042 1.609 1.609 0 0 1 1.254-.446h8.417q-1.106-3.571-6.5-3.571z" class="cls-5" transform="translate(-1532.755 -734.465)"/>
                        </g>
                    </g>
                    <g id="Group_14730" transform="translate(12.385 12.905)">
                        <path id="Path_18874" d="M1445.359 707.854a22.37 22.37 0 1 1 14.876-8.477 22.225 22.225 0 0 1-14.876 8.477zm-5.422-43.066a21.036 21.036 0 1 0 23.5 18.243 21.06 21.06 0 0 0-23.5-18.244z" class="cls-5" transform="translate(-1420.191 -663.285)"/>
                    </g>
                </g>
            </g>
            <g id="Group_14733" transform="translate(32.196 94.146)">
                <path id="Path_18875" d="M1504.592 1384.1v.02l-.489 7.521-1.818 27.925H1468.3l-2-27.543-.551-7.591-.024-.333z" class="cls-25" transform="translate(-1464.02 -1383.281)"/>
                <path id="Path_18876" d="M1504.778 1384.279l-.489 7.521a59.532 59.532 0 0 0-18.943-3.035c-11.705 0-18.859 3.417-18.859 3.417l-.551-7.591z" class="cls-26" transform="translate(-1464.207 -1383.436)"/>
                <path id="Path_18877" d="M1492.5 1381.671h-41.281l-.473-4.8h42.278z" class="cls-25" transform="translate(-1450.749 -1376.872)"/>
                <path id="Path_18878" d="M1514.042 1695.711h-35.235l-.4-1.672h36.086z" class="cls-26" transform="translate(-1475.254 -1657.93)"/>
            </g>
        </g>
        <g id="Group_14745" transform="translate(291.125 352.276)">
            <g id="Group_14743" transform="translate(0 0)">
                <path id="Path_18881" d="M1112.08 1402.181a8.74 8.74 0 0 0-3.061-2.98s.32 5.065-.626 5.067.05-5.67.05-5.67-4.327-2.782-6.154-2.83c0 0 2.256 5.187 1.339 4.955s-3.516-5.519-3.516-5.519-4.609-1.457-5.712 1.245-.052 4.251.625 4.512 5.169.757 4.98 1.325-3.332 1.126-4.956.393c0 0 1.295 4.831 3.77 4.9s3.419-1.351 4.948-1.281 2.585.615 1.777.929-3.336-.277-4.687.612-2.421 1.407-.207 2.154a10.612 10.612 0 0 0 7.34-.684s1.328-.022 1.971 6.138a28.594 28.594 0 0 1-.284 5.84l.844-.073a29.825 29.825 0 0 0-1.194-12.638s4.381-2.823 2.753-6.395z" class="cls-8" transform="translate(-1093.919 -1371.208)"/>
                <g id="Group_14837" transform="translate(18.317 26.784)">
                    <path id="Path_18879" d="M1254.946 1439.755a20.312 20.312 0 0 1 .914-8.848 16.553 16.553 0 0 0 .659-8.152h1.1a35.9 35.9 0 0 1-1.064 8.823c-1.052 4.507.912 8.177.494 8.177z" class="cls-8" transform="translate(-1254.803 -1422.755)"/>
                    <path id="Path_18880" d="M1274.932 1439.485c.006-.023.53-3.029 1.939-3.37a2.621 2.621 0 0 0-1.878 1.373c-.333.624-.216.8-.222.826z" class="cls-8" transform="translate(-1272.484 -1434.594)"/>
                    <path id="Path_18882" d="M1288.213 1429.165c-.724.2-1.562-.542-1.562-.542s.336-1.068 1.06-1.269 1.562.542 1.562.542-.336 1.068-1.06 1.269z" class="cls-8" transform="translate(-1283.025 -1426.8)"/>
                </g>
                <g id="Group_14738" transform="translate(29.326 7.669)">
                    <g id="Group_14838">
                        <path id="Path_18883" d="M1351.508 1300.874s4.12 1.82 6.649.164 2.507-6.16 2.507-6.16z" class="cls-8" transform="translate(-1351.508 -1289.559)"/>
                        <path id="Path_18884" d="M1354.015 1294.714c-2.528 1.656-2.507 6.16-2.507 6.16l9.156-6s-4.12-1.816-6.649-.16z" class="cls-24" transform="translate(-1351.508 -1289.559)"/>
                        <path id="Path_18885" d="M1369.383 1255.769c-.758 1.028-.088 2.809-.088 2.809s1.9.115 2.658-.912.088-2.809.088-2.809-1.9-.116-2.658.912z" class="cls-8" transform="translate(-1367.028 -1254.853)"/>
                    </g>
                </g>
                <g id="Group_14742" transform="translate(5.067)">
                    <circle id="Ellipse_1139" cx="11.044" cy="11.044" r="11.044" class="cls-13" transform="translate(0 15.619) rotate(-45)"/>
                    <g id="Group_14740" transform="translate(2.666 3.736)">
                        <circle id="Ellipse_1140" cx="11.038" cy="11.038" r="11.038" class="cls-4" transform="matrix(0.996, -0.091, 0.091, 0.996, 0, 2.01)"/>
                        <g id="Group_14739" transform="translate(7.681 5.003)">
                            <path id="Path_18886" d="M1231.4 1265.6a.675.675 0 0 1-.555-.849.675.675 0 0 1 .29-.41.723.723 0 0 1 .6-.057l6.857 1.725a.674.674 0 0 1 .555.849.676.676 0 0 1-.29.41.724.724 0 0 1-.6.057l-1-.252q-.649-.164-1.089-.294a5.38 5.38 0 0 1-.528-.172l-.019.074a2.418 2.418 0 0 1 .62.747 2.544 2.544 0 0 1 .309 1.122l1.316.331a.675.675 0 0 1 .555.849.675.675 0 0 1-.29.41.724.724 0 0 1-.6.057l-1.223-.308a3.478 3.478 0 0 1-1.978 2.1 4.124 4.124 0 0 1-1.317.3 6.043 6.043 0 0 1-1.316-.055l3.177 5.076a.952.952 0 0 1 .129.742.867.867 0 0 1-.372.537.815.815 0 0 1-.672.087 1.3 1.3 0 0 1-.382-.165 1.086 1.086 0 0 1-.331-.369l-3.717-6.059a1.284 1.284 0 0 1-.2-.454.943.943 0 0 1 .008-.422.834.834 0 0 1 .369-.528.785.785 0 0 1 .633-.087l.241.061a6.611 6.611 0 0 0 1.166.185 3.417 3.417 0 0 0 1.108-.1 2.661 2.661 0 0 0 .93-.446 2.09 2.09 0 0 0 .655-.88l-3.762-.947a.675.675 0 0 1-.555-.849.676.676 0 0 1 .29-.41.723.723 0 0 1 .6-.057l3.67.923q-.09-1.678-2.444-2.27z" class="cls-5" transform="translate(-1229.307 -1264.249)"/>
                        </g>
                    </g>
                    <g id="Group_14741" transform="translate(4.615 5.805)">
                        <path id="Path_18887" d="M1190.281 1258.525a10.062 10.062 0 1 1 6.691-3.813 10 10 0 0 1-6.691 3.813zm-2.439-19.371a9.462 9.462 0 1 0 10.57 8.206 9.473 9.473 0 0 0-10.57-8.207z" class="cls-5" transform="translate(-1178.96 -1238.477)"/>
                    </g>
                </g>
            </g>
            <g id="Group_14744" transform="translate(11.247 42.347)">
                <g id="Group_14842">
                    <path id="Path_18888" d="M1216.924 1562.708v.009l-.22 3.383-.818 12.561H1200.6l-.9-12.389-.248-3.414-.011-.15z" class="cls-8" transform="translate(-1198.674 -1562.338)"/>
                    <path id="Path_18889" d="M1217.007 1562.786l-.22 3.383a26.778 26.778 0 0 0-8.521-1.365 21.293 21.293 0 0 0-8.483 1.537l-.248-3.415z" class="cls-7" transform="translate(-1198.758 -1562.407)"/>
                    <path id="Path_18890" d="M1211.486 1561.613h-18.568l-.213-2.159h19.017z" class="cls-8" transform="translate(-1192.705 -1559.454)"/>
                    <path id="Path_18891" d="M1221.174 1702.87h-15.849l-.181-.752h16.232z" class="cls-7" transform="translate(-1203.727 -1685.876)"/>
                </g>
            </g>
        </g>
        <g id="Group_14746" transform="translate(361.286 304.621)">
            <path id="Path_18892" d="M1874.413 1140.409s-1.746-.341-2.145 0-2.292 2.264-1.887 2.9 2.349-.523 2.753-.632 1.534-.55 1.534-.55z" class="cls-18" transform="translate(-1852.092 -1097.98)"/>
            <path id="Path_18893" d="M2069.162 1231.085l1.871.7s8.127-11.272 9.128-21.191a15.066 15.066 0 0 0-.267-5.07l.219-1.256c.064-.374.144-.825.234-1.341.264-1.514.628-3.586 1.043-5.944.956-5.428 2.2-12.367 3.158-17.468l-.5-.162-5.455-1.76-1.127-3.581-4.062-1.069s-.907 1.775-1.719 10.161c-.15 1.1-.286 2.313-.388 3.628a71.818 71.818 0 0 0 .387 14.689q.279 2.186.713 4.508a20.1 20.1 0 0 1 .156 4.452c-.415 8.104-3.391 20.704-3.391 20.704z" class="cls-14" transform="translate(-2028.293 -1126.941)"/>
            <path id="Path_18894" d="M2087.868 1186.728l8.821 17.537c.064-.374.144-.825.234-1.341.264-1.514.628-3.586 1.043-5.944.956-5.428 2.2-12.367 3.158-17.468l-.5-.162-5.456-1.76-1.127-3.581-4.062-1.069s-.908 1.775-1.719 10.161c-.154 1.099-.29 2.312-.392 3.627z" class="cls-12" transform="translate(-2044.869 -1126.941)"/>
            <path id="Path_18895" d="M2121.954 1159.312l.2-1.751c3.421.909 12.562-2.539 12.562-2.539s3.314 2.913 2.879 9.9c-.212 3.409-.6 17.893-1.005 22.179-.146 1.553-.275 2.659-.327 3.1a.615.615 0 0 0 .1.379 20.111 20.111 0 0 1 1.5 3.145c3.977 10.6-.613 23.65-.613 23.65l-1.191-.48s-2.612-14.525-4.734-20.942a12.714 12.714 0 0 0-1.022-2.455 27.726 27.726 0 0 1-2.556-6.816 167.675 167.675 0 0 1-3.438-18.084c-.109.002-2.355-9.286-2.355-9.286z" class="cls-14" transform="translate(-2075.074 -1111.063)"/>
            <path id="Path_18896" d="M1906.234 990.75l.255 1.714s.113 0 .311-.014c.623-.042 2.138-.127 3.852-.312 2.577-.255 5.636-.708 6.854-1.458 1.855-1.133 4.9-4.6 6.882-8.072a2.3 2.3 0 0 0 .142-.255 12.457 12.457 0 0 0 1.813-5.126 7.327 7.327 0 0 0-.241-2.323 5.922 5.922 0 0 0-1.048-2.1 1.057 1.057 0 0 0-.2-.241 4.893 4.893 0 0 0-1.345-1.147c-.34-.142-.708.028-1.09.439v.014a6.5 6.5 0 0 0-.977 1.444c-.014.014-.028.028-.028.042-.071.127-.142.269-.227.425a.358.358 0 0 0-.057.1q-.234.489-.467 1.02c-1.742 3.8-3.6 9.545-5.14 11.258-.666.736-3.71 2.181-6.132 3.257-1.741.768-3.157 1.335-3.157 1.335z" class="cls-18" transform="translate(-1883.914 -948.321)"/>
            <path id="Path_18897" d="M2064.547 907.03a10.653 10.653 0 0 0 3.94.923c5.882.322 7.217-4.834 7.46-8.256a4.932 4.932 0 0 0-2.018-.255c-.417.023-.853.066-1.211.11-.72-.376-2.012-2.2-2.759-5.255l-.253.118-4.244 2s.451 1.381.784 2.7a5.377 5.377 0 0 1 .29 2.313c-.334.136-.535.222-.535.222a29.117 29.117 0 0 0-1.454 5.38z" class="cls-18" transform="translate(-2024.203 -880.021)"/>
            <path id="Path_18898" d="M2047.782 950.062c.044.118.093.232.147.35 1.49 3.208 4.247 16.5 4.247 16.5-.393 2.389 17.957-.469 18-2.645.646-2.307-2.293-6.013-3.951-7.872a5.281 5.281 0 0 1-.556-.749 5.219 5.219 0 0 1-.752-2.194 75.781 75.781 0 0 1-.229-7.732c-.324-.24-.637-.461-.929-.672a8.3 8.3 0 0 1-1.131-.938 1.71 1.71 0 0 1-.542-1.068 5.706 5.706 0 0 1 .023-.9c.014-.142.032-.284.054-.426a12.128 12.128 0 0 1 .853-2.846 11.028 11.028 0 0 0-4.385-.258v.411c.009 1.025 0 3.657-.329 4.156-.411.62-7.929 3.338-8.326 2.5s.68-4.707.719-4.853a11.858 11.858 0 0 0-3.418 1.818c1.529.977-.668 4.306.505 7.418z" class="cls-22" transform="translate(-2008.91 -919.194)"/>
            <path id="Path_18899" d="M2043.436 772.054c.009-.255.207-3 4.392-3.146 0 0-2.058.245-2.414 1.15 0 0 1.4-1.118 2.543-.758s1.811 2.359 1.818 3.017-.628 2.778-1.352 2.958a2.207 2.207 0 0 1-.877 0 9.829 9.829 0 0 1 .562 1c1.67 3.428-.052 6.779-1.466 6.409-.907-.237-1.164 1.31-1.164 1.31l-8.81-7.132s3.232-6.692 6.768-4.808z" class="cls-27" transform="translate(-1999.499 -768.908)"/>
            <path id="Path_18900" fill="#ed985f" d="M2072.57 897.332s.451 1.38.784 2.7c2.481-.692 3.234-3.3 3.461-4.7z" transform="translate(-2031.313 -880.943)"/>
            <path id="Path_18901" d="M2038.609 841.676s5.935-1.374 5.023-5.057-.761-6.34-4.589-5.619-4.213 2.308-4.208 3.612 2.207 7.327 3.774 7.064z" class="cls-18" transform="translate(-1997.874 -823.826)"/>
            <path id="Path_18902" d="M2029.848 827.3c.638-1.335 1.389-1.264 1.859-1.027a4.258 4.258 0 0 1 5.524-.472 7.247 7.247 0 0 0 3.334 3.583s-.912.934-3.554.913a4.35 4.35 0 0 1-2.357-.888 14.211 14.211 0 0 0 3.095 2.308c-3.308-.633-5.526-4.463-5.753-4.87a4.773 4.773 0 0 0-.862 2.039c-.061 1.011.287 2.974-.292 3.048-.001-.002-1.951-2.634-.994-4.634z" class="cls-27" transform="translate(-1993.22 -818.602)"/>
            <path id="Path_18903" d="M2034.5 974.816s-1.429 2.493-1.643 3.134a2.978 2.978 0 0 1 2.6 1.354s.178-4.152-.957-4.488z" class="cls-22" transform="translate(-1996.118 -951.374)"/>
            <path id="Path_18904" d="M2120.93 1006.081c3.619-.038 6.684-3.8 8.557-6.8a5.219 5.219 0 0 1-.752-2.194 75.852 75.852 0 0 1-.229-7.732c-.324-.24-.637-.461-.929-.672a8.309 8.309 0 0 1-1.131-.938c-2.963 5.009-10.423 18.388-5.516 18.336z" class="cls-23" transform="translate(-2072.723 -962.831)"/>
            <path id="Path_18905" d="M2013.454 966.854l.5 1.813s.623-.113 1.615-.3c.3-.057.467-.1.467-.1.793-.156 1.742-.368 2.776-.595h.014c1.77-.425 3.753-.935 5.424-1.5a14.9 14.9 0 0 0 2.889-1.289 1.726 1.726 0 0 0 .2-.142c1.657-1.2 3.625-4.744 5.155-8.539.212-.524.411-1.048.609-1.558a38.775 38.775 0 0 0 1.614-5.381 15.189 15.189 0 0 0 .383-2.563 6.266 6.266 0 0 0 .014-.722c-.028-4.107-2.067-4.673-2.067-4.673-.043-.014-.085-.028-.142-.042-.354-.057-.722.184-1.1.651a12.866 12.866 0 0 0-1.515 2.676c-.807 1.827-1.657 4.192-2.45 6.542-.439 1.289-.864 2.577-1.289 3.767-.241.722-.482 1.4-.708 2.025a19.5 19.5 0 0 1-1.19 2.761 6.863 6.863 0 0 1-1.742 1.572 63.468 63.468 0 0 1-5.608 3.484c-.793.453-1.543.864-2.167 1.2-1.017.559-1.682.913-1.682.913z" class="cls-18" transform="translate(-1978.927 -921.635)"/>
            <path id="Path_18906" d="M2161.268 944.656a5.325 5.325 0 0 1 4.829 1.377c-.034-4.1-2.075-4.661-2.075-4.661-.822-.34-1.772 1.082-2.754 3.284z" class="cls-22" transform="translate(-2109.913 -921.693)"/>
            <path id="Path_18907" d="M2195.47 1669.914h9.425a5.173 5.173 0 0 0-.266-2.526c-.472-1.046-1.21-1.521-1.033-2.786a3.4 3.4 0 0 1-2.938 1.124 10.327 10.327 0 0 1-1.635 2.12c-.617.442-3.363.284-3.553 2.068z" class="cls-12" transform="translate(-2140.221 -1562.628)"/>
            <path id="Path_18908" d="M2017.725 1673.2h9.425a3.917 3.917 0 0 0-.266-2.526 1.816 1.816 0 0 1 .068-2.169 3.665 3.665 0 0 1-1.588.3 3.322 3.322 0 0 1-1.4-.493 33.951 33.951 0 0 1-2.685 2.821c-.618.445-3.364.288-3.554 2.067z" class="cls-12" transform="translate(-1982.712 -1565.918)"/>
            <path id="Path_18909" fill="#c94c43" d="M1756.135 1154.486l-2.24-5.464a1.514 1.514 0 0 0-1.8-.882 9.339 9.339 0 0 0-2.922-3.324 6.953 6.953 0 0 0-3.944-1.3 5.586 5.586 0 0 0-2.1.417c-3.185 1.305-4.612 5.329-3.443 9.28l-.174.071s-.544-.038-1.457-.038c-2.884 0-9.441.383-14.041 3.578a1.27 1.27 0 0 0-.3.778 1.22 1.22 0 0 0 .1.515s7.384-4.781 14.213.132c.42.3.826.579 1.222.838l.613 1.5a4.883 4.883 0 0 0 6.353 2.659l6.255-2.563 1.3-.534a4.35 4.35 0 0 0 2.365-5.663zm-12.126-4.429l-2.547 1.045a1.493 1.493 0 0 0-.878 1.743l-.273.112c-1.036-3.6.228-7.23 3.072-8.4a4.8 4.8 0 0 1 1.225-.323 5.938 5.938 0 0 1 3.9.945 8.58 8.58 0 0 1 2.954 3.2l-.376.154a1.5 1.5 0 0 0-1.848-.626l-2.549 1.045a1.26 1.26 0 0 0-1.64-.688l-.353.145a1.26 1.26 0 0 0-.687 1.649z" transform="translate(-1722.169 -1100.87)"/>
            <path id="Path_18910" d="M1739.242 1250.586c-.4-.258-.8-.537-1.222-.837-6.829-4.913-14.213-.132-14.213-.132a1.22 1.22 0 0 1-.1-.515 14.248 14.248 0 0 1 9.708-2.171c5.627.906 6.645 1.689 5.827 3.655z" class="cls-30" transform="translate(-1722.169 -1192.367)"/>
            <path id="Path_18911" d="M1916.431 1160.146l-1.3.534c1.954-1.067-.466-5.574-1.881-8.549s-3.556-1.615-3.556-1.615a1.7 1.7 0 0 0-1.542-.944 1.189 1.189 0 0 0-.788-1.154l.353-.145a1.26 1.26 0 0 1 1.64.688l2.549-1.045a1.5 1.5 0 0 1 1.848.626l.376-.154a8.583 8.583 0 0 0-2.954-3.2 5.938 5.938 0 0 0-3.9-.945 2.771 2.771 0 0 0 .623-.72 6.953 6.953 0 0 1 3.944 1.3 9.338 9.338 0 0 1 2.922 3.324 1.514 1.514 0 0 1 1.8.882l2.24 5.464a4.35 4.35 0 0 1-2.374 5.653z" class="cls-30" transform="translate(-1884.834 -1100.87)"/>
            <path id="Path_18912" d="M1956.632 1160.573c.906.382 2.181 1.713 4.22.906a31.659 31.659 0 0 1 3.753-1.147c.3-.057.467-.1.467-.1l-.807-2.351a.451.451 0 0 1-.1.028 14.274 14.274 0 0 1-4.432.4c-1.4-.326-3.753 1.359-3.753 1.359s-.255.532.652.905z" class="cls-18" transform="translate(-1927.967 -1113.598)"/>
            <path id="Path_18913" d="M1713.263 1279.378c0-.851-1.54-3.476-1.54-3.476s-1.54 2.625-1.54 3.476a1.54 1.54 0 0 0 3.08 0z" class="cls-8" transform="translate(-1710.183 -1218.181)"/>
        </g>
        <g id="Group_14747" opacity="0.5" transform="translate(393.945 263.871)">
            <path id="Path_18914" d="M2009.286 410.482l-2.26.492-.054.012a.551.551 0 0 0-.43.6l.2 1.921a.549.549 0 0 1 0 .094.542.542 0 0 1-.36.475 9.639 9.639 0 0 0-3.267 1.961.6.6 0 0 1-.128.087.56.56 0 0 1-.549-.037l-1.337-.9a.561.561 0 0 0-.582-.02.613.613 0 0 0-.149.124l-1.522 1.806a.564.564 0 0 0 .034.762l1.518 1.515a.544.544 0 0 1 .127.57c-.1.289-.188.58-.263.88a9.61 9.61 0 0 0-.262 1.684.556.556 0 0 1-.391.5l-2.081.644-.1.034a.543.543 0 0 0-.372.636l.5 2.311a.568.568 0 0 0 .613.442l2.138-.226a.549.549 0 0 1 .561.319 9.674 9.674 0 0 0 1.657 2.478.553.553 0 0 1 .049.681l-1.064 1.587a.563.563 0 0 0 .106.746l1.813 1.529a.538.538 0 0 0 .727-.032l1.784-1.781a.564.564 0 0 1 .578-.136q.375.127.766.224a9.788 9.788 0 0 0 1.468.248.535.535 0 0 1 .473.379l.771 2.5a.554.554 0 0 0 .646.377l2.319-.5a.557.557 0 0 0 .433-.516.383.383 0 0 0 0-.08l-.25-2.372a.547.547 0 0 1 .275-.541.293.293 0 0 1 .052-.027 1.641 1.641 0 0 0 .156-.074 9.628 9.628 0 0 0 1.768-1.055.534.534 0 0 1 .629-.013l1.677 1.123a.562.562 0 0 0 .743-.107l.339-.4 1.179-1.4a.554.554 0 0 0-.031-.75l-1.495-1.493a.535.535 0 0 1-.107-.6 9.714 9.714 0 0 0 .827-3.045l.437-.134 1.79-.555a.535.535 0 0 0 .381-.492.489.489 0 0 0-.013-.141l-.5-2.327a.558.558 0 0 0-.6-.43l-1.461.157a.552.552 0 0 1-.573-.353 9.691 9.691 0 0 0-1.495-2.666.535.535 0 0 1-.027-.642l1.346-2.005a.533.533 0 0 0-.1-.7l-1.835-1.543a.539.539 0 0 0-.732.03l-1.855 1.854a.548.548 0 0 1-.607.117 9.35 9.35 0 0 0-1.406-.464q-.395-.1-.789-.162a.556.556 0 0 1-.439-.38l-.74-2.4a.562.562 0 0 0-.654-.4zm-4.544 10.832a5.954 5.954 0 0 1 1.025-1.746 3.418 3.418 0 0 1 .355-.363 5.235 5.235 0 0 1 7.428 7.343l-.162.2a5.068 5.068 0 0 1-2.364 1.426 6.458 6.458 0 0 1-1.191.151 5.2 5.2 0 0 1-5.091-7.011z" class="cls-8" transform="translate(-1997.046 -410.47)"/>
        </g>
        <g id="Group_14748" opacity="0.8" transform="translate(419.31 271.704)">
            <path id="Path_18915" d="M2241.232 479.379l-3.557.321-.084.008a.852.852 0 0 0-.772.831l-.056 2.982a.863.863 0 0 1-.014.144.837.837 0 0 1-.643.659 14.878 14.878 0 0 0-5.381 2.378.921.921 0 0 1-.214.108.865.865 0 0 1-.834-.162l-1.875-1.636a.867.867 0 0 0-.887-.142.938.938 0 0 0-.252.161l-2.678 2.476a.87.87 0 0 0-.094 1.173l2.034 2.612a.841.841 0 0 1 .085.9c-.208.423-.4.852-.572 1.3a14.857 14.857 0 0 0-.724 2.53.857.857 0 0 1-.7.688l-3.311.588-.166.031a.839.839 0 0 0-.692.9l.327 3.636a.877.877 0 0 0 .854.8l3.319.063a.848.848 0 0 1 .8.6 14.932 14.932 0 0 0 2.063 4.114.854.854 0 0 1-.056 1.052l-1.935 2.227a.869.869 0 0 0 .019 1.163l2.484 2.69a.831.831 0 0 0 1.12.091l3.074-2.387a.871.871 0 0 1 .912-.1q.55.266 1.13.489a15.082 15.082 0 0 0 2.2.661.826.826 0 0 1 .652.672l.7 3.98a.855.855 0 0 0 .917.7l3.649-.326a.859.859 0 0 0 .761-.708.609.609 0 0 0 .011-.123l.071-3.682a.845.845 0 0 1 .525-.776.432.432 0 0 1 .084-.031 2.662 2.662 0 0 0 .254-.083 14.857 14.857 0 0 0 2.91-1.277.825.825 0 0 1 .967.1l2.353 2.042a.867.867 0 0 0 1.159-.021l.6-.55 2.076-1.923a.856.856 0 0 0 .1-1.155l-2-2.574a.826.826 0 0 1-.048-.947 15.007 15.007 0 0 0 1.239-2.5 14.839 14.839 0 0 0 .612-2l.695-.122 2.849-.507a.826.826 0 0 0 .679-.681.755.755 0 0 0 .007-.219l-.322-3.661a.861.861 0 0 0-.835-.774l-2.268-.039a.853.853 0 0 1-.809-.651 14.98 14.98 0 0 0-1.779-4.371.825.825 0 0 1 .081-.988l2.446-2.814a.822.822 0 0 0-.018-1.094l-2.515-2.716a.832.832 0 0 0-1.128-.094l-3.2 2.484a.847.847 0 0 1-.953.064 14.429 14.429 0 0 0-2.064-.98q-.586-.225-1.178-.4a.859.859 0 0 1-.6-.666l-.675-3.815a.867.867 0 0 0-.929-.723zm-9.038 15.723a9.2 9.2 0 0 1 1.9-2.479 5.261 5.261 0 0 1 .614-.488 8.083 8.083 0 0 1 9.972 12.673c-.094.091-.187.182-.285.271a7.821 7.821 0 0 1-3.9 1.731 9.953 9.953 0 0 1-1.854 0 8.025 8.025 0 0 1-6.447-11.71z" class="cls-8" transform="translate(-2219.845 -479.376)"/>
        </g>
    </g>
</svg>
