<?xml version="1.0" encoding="UTF-8" standalone="no"?>
<!DOCTYPE svg PUBLIC "-//W3C//DTD SVG 1.1//EN"
 "http://www.w3.org/Graphics/SVG/1.1/DTD/svg11.dtd">
<!-- Generated by graphviz version 2.47.3 (20210619.1520)
 -->
<!-- Title: dependencies Pages: 1 -->
<svg width="618pt" height="174pt"
 viewBox="0.00 0.00 618.00 173.80" xmlns="http://www.w3.org/2000/svg" xmlns:xlink="http://www.w3.org/1999/xlink">
<g id="graph0" class="graph" transform="scale(1 1) rotate(0) translate(4 169.8)">
<title>dependencies</title>
<polygon fill="white" stroke="transparent" points="-4,4 -4,-169.8 614,-169.8 614,4 -4,4"/>
<text text-anchor="middle" x="305" y="-8.2" font-family="sans-serif" font-size="14.00">dependencies</text>
<g id="clust1" class="cluster">
<title>cluster_MfPageDetailsModule</title>
<polygon fill="none" stroke="black" stroke-dasharray="1,5" points="8,-32.8 8,-157.8 602,-157.8 602,-32.8 8,-32.8"/>
</g>
<g id="clust2" class="cluster">
<title>cluster_MfPageDetailsModule_declarations</title>
<polygon fill="none" stroke="black" points="228,-40.8 228,-92.8 594,-92.8 594,-40.8 228,-40.8"/>
</g>
<g id="clust5" class="cluster">
<title>cluster_MfPageDetailsModule_imports</title>
<polygon fill="none" stroke="black" points="16,-40.8 16,-92.8 220,-92.8 220,-40.8 16,-40.8"/>
</g>
<!-- MfPageDetailsComponent -->
<g id="node1" class="node">
<title>MfPageDetailsComponent</title>
<polygon fill="#ffffb3" stroke="black" points="585.8,-84.8 420.2,-84.8 420.2,-48.8 585.8,-48.8 585.8,-84.8"/>
<text text-anchor="middle" x="503" y="-62.6" font-family="Times,serif" font-size="14.00">MfPageDetailsComponent</text>
</g>
<!-- MfPageDetailsModule -->
<g id="node3" class="node">
<title>MfPageDetailsModule</title>
<polygon fill="#8dd3c7" stroke="black" points="390.52,-149.8 387.52,-153.8 366.52,-153.8 363.52,-149.8 247.48,-149.8 247.48,-113.8 390.52,-113.8 390.52,-149.8"/>
<text text-anchor="middle" x="319" y="-127.6" font-family="Times,serif" font-size="14.00">MfPageDetailsModule</text>
</g>
<!-- MfPageDetailsComponent&#45;&gt;MfPageDetailsModule -->
<g id="edge1" class="edge">
<title>MfPageDetailsComponent&#45;&gt;MfPageDetailsModule</title>
<path fill="none" stroke="black" d="M503,-84.91C503,-104.14 503,-131.8 503,-131.8 503,-131.8 400.67,-131.8 400.67,-131.8"/>
<polygon fill="black" stroke="black" points="400.67,-128.3 390.67,-131.8 400.67,-135.3 400.67,-128.3"/>
</g>
<!-- MfPageHeaderComponent -->
<g id="node2" class="node">
<title>MfPageHeaderComponent</title>
<polygon fill="#ffffb3" stroke="black" points="402.06,-84.8 235.94,-84.8 235.94,-48.8 402.06,-48.8 402.06,-84.8"/>
<text text-anchor="middle" x="319" y="-62.6" font-family="Times,serif" font-size="14.00">MfPageHeaderComponent</text>
</g>
<!-- MfPageHeaderComponent&#45;&gt;MfPageDetailsModule -->
<g id="edge2" class="edge">
<title>MfPageHeaderComponent&#45;&gt;MfPageDetailsModule</title>
<path fill="none" stroke="black" d="M319,-84.91C319,-84.91 319,-103.79 319,-103.79"/>
<polygon fill="black" stroke="black" points="315.5,-103.79 319,-113.79 322.5,-103.79 315.5,-103.79"/>
</g>
<!-- MfPageDetailsRoutingModule -->
<g id="node4" class="node">
<title>MfPageDetailsRoutingModule</title>
<polygon fill="#8dd3c7" stroke="black" points="212.14,-84.8 209.14,-88.8 188.14,-88.8 185.14,-84.8 23.86,-84.8 23.86,-48.8 212.14,-48.8 212.14,-84.8"/>
<text text-anchor="middle" x="118" y="-62.6" font-family="Times,serif" font-size="14.00">MfPageDetailsRoutingModule</text>
</g>
<!-- MfPageDetailsRoutingModule&#45;&gt;MfPageDetailsModule -->
<g id="edge3" class="edge">
<title>MfPageDetailsRoutingModule&#45;&gt;MfPageDetailsModule</title>
<path fill="none" stroke="black" d="M118,-84.91C118,-104.14 118,-131.8 118,-131.8 118,-131.8 237.29,-131.8 237.29,-131.8"/>
<polygon fill="black" stroke="black" points="237.29,-135.3 247.29,-131.8 237.29,-128.3 237.29,-135.3"/>
</g>
</g>
</svg>
