<?xml version="1.0" encoding="UTF-8" standalone="no"?>
<!DOCTYPE svg PUBLIC "-//W3C//DTD SVG 1.1//EN"
 "http://www.w3.org/Graphics/SVG/1.1/DTD/svg11.dtd">
<!-- Generated by graphviz version 2.47.3 (20210619.1520)
 -->
<!-- Title: dependencies Pages: 1 -->
<svg width="533pt" height="174pt"
 viewBox="0.00 0.00 533.00 173.80" xmlns="http://www.w3.org/2000/svg" xmlns:xlink="http://www.w3.org/1999/xlink">
<g id="graph0" class="graph" transform="scale(1 1) rotate(0) translate(4 169.8)">
<title>dependencies</title>
<polygon fill="white" stroke="transparent" points="-4,4 -4,-169.8 529,-169.8 529,4 -4,4"/>
<text text-anchor="middle" x="262.5" y="-8.2" font-family="sans-serif" font-size="14.00">dependencies</text>
<g id="clust1" class="cluster">
<title>cluster_BasicModeModule</title>
<polygon fill="none" stroke="black" stroke-dasharray="1,5" points="8,-32.8 8,-157.8 517,-157.8 517,-32.8 8,-32.8"/>
</g>
<g id="clust2" class="cluster">
<title>cluster_BasicModeModule_declarations</title>
<polygon fill="none" stroke="black" points="208,-40.8 208,-92.8 509,-92.8 509,-40.8 208,-40.8"/>
</g>
<g id="clust5" class="cluster">
<title>cluster_BasicModeModule_imports</title>
<polygon fill="none" stroke="black" points="16,-40.8 16,-92.8 200,-92.8 200,-40.8 16,-40.8"/>
</g>
<!-- BasicModeComponent -->
<g id="node1" class="node">
<title>BasicModeComponent</title>
<polygon fill="#ffffb3" stroke="black" points="500.59,-84.8 355.41,-84.8 355.41,-48.8 500.59,-48.8 500.59,-84.8"/>
<text text-anchor="middle" x="428" y="-62.6" font-family="Times,serif" font-size="14.00">BasicModeComponent</text>
</g>
<!-- BasicModeModule -->
<g id="node3" class="node">
<title>BasicModeModule</title>
<polygon fill="#8dd3c7" stroke="black" points="338.81,-149.8 335.81,-153.8 314.81,-153.8 311.81,-149.8 215.19,-149.8 215.19,-113.8 338.81,-113.8 338.81,-149.8"/>
<text text-anchor="middle" x="277" y="-127.6" font-family="Times,serif" font-size="14.00">BasicModeModule</text>
</g>
<!-- BasicModeComponent&#45;&gt;BasicModeModule -->
<g id="edge1" class="edge">
<title>BasicModeComponent&#45;&gt;BasicModeModule</title>
<path fill="none" stroke="black" d="M428,-84.91C428,-104.14 428,-131.8 428,-131.8 428,-131.8 348.85,-131.8 348.85,-131.8"/>
<polygon fill="black" stroke="black" points="348.85,-128.3 338.85,-131.8 348.85,-135.3 348.85,-128.3"/>
</g>
<!-- HeaderComponent -->
<g id="node2" class="node">
<title>HeaderComponent</title>
<polygon fill="#ffffb3" stroke="black" points="337.74,-84.8 216.26,-84.8 216.26,-48.8 337.74,-48.8 337.74,-84.8"/>
<text text-anchor="middle" x="277" y="-62.6" font-family="Times,serif" font-size="14.00">HeaderComponent</text>
</g>
<!-- HeaderComponent&#45;&gt;BasicModeModule -->
<g id="edge2" class="edge">
<title>HeaderComponent&#45;&gt;BasicModeModule</title>
<path fill="none" stroke="black" d="M277,-84.91C277,-84.91 277,-103.79 277,-103.79"/>
<polygon fill="black" stroke="black" points="273.5,-103.79 277,-113.79 280.5,-103.79 273.5,-103.79"/>
</g>
<!-- BasicModeRoutingModule -->
<g id="node4" class="node">
<title>BasicModeRoutingModule</title>
<polygon fill="#8dd3c7" stroke="black" points="192.43,-84.8 189.43,-88.8 168.43,-88.8 165.43,-84.8 23.57,-84.8 23.57,-48.8 192.43,-48.8 192.43,-84.8"/>
<text text-anchor="middle" x="108" y="-62.6" font-family="Times,serif" font-size="14.00">BasicModeRoutingModule</text>
</g>
<!-- BasicModeRoutingModule&#45;&gt;BasicModeModule -->
<g id="edge3" class="edge">
<title>BasicModeRoutingModule&#45;&gt;BasicModeModule</title>
<path fill="none" stroke="black" d="M108,-84.91C108,-104.14 108,-131.8 108,-131.8 108,-131.8 205.03,-131.8 205.03,-131.8"/>
<polygon fill="black" stroke="black" points="205.03,-135.3 215.03,-131.8 205.03,-128.3 205.03,-135.3"/>
</g>
</g>
</svg>
