<?xml version="1.0" encoding="UTF-8" standalone="no"?>
<!DOCTYPE svg PUBLIC "-//W3C//DTD SVG 1.1//EN"
 "http://www.w3.org/Graphics/SVG/1.1/DTD/svg11.dtd">
<!-- Generated by graphviz version 2.47.3 (20210619.1520)
 -->
<!-- Title: dependencies Pages: 1 -->
<svg width="488pt" height="174pt"
 viewBox="0.00 0.00 488.00 173.80" xmlns="http://www.w3.org/2000/svg" xmlns:xlink="http://www.w3.org/1999/xlink">
<g id="graph0" class="graph" transform="scale(1 1) rotate(0) translate(4 169.8)">
<title>dependencies</title>
<polygon fill="white" stroke="transparent" points="-4,4 -4,-169.8 484,-169.8 484,4 -4,4"/>
<text text-anchor="middle" x="240" y="-8.2" font-family="sans-serif" font-size="14.00">dependencies</text>
<g id="clust1" class="cluster">
<title>cluster_ProfilePageModule</title>
<polygon fill="none" stroke="black" stroke-dasharray="1,5" points="8,-32.8 8,-157.8 472,-157.8 472,-32.8 8,-32.8"/>
</g>
<g id="clust5" class="cluster">
<title>cluster_ProfilePageModule_imports</title>
<polygon fill="none" stroke="black" points="278,-40.8 278,-92.8 464,-92.8 464,-40.8 278,-40.8"/>
</g>
<g id="clust2" class="cluster">
<title>cluster_ProfilePageModule_declarations</title>
<polygon fill="none" stroke="black" points="16,-40.8 16,-92.8 270,-92.8 270,-40.8 16,-40.8"/>
</g>
<!-- MfHeaderComponent -->
<g id="node1" class="node">
<title>MfHeaderComponent</title>
<polygon fill="#ffffb3" stroke="black" points="262.35,-84.8 123.65,-84.8 123.65,-48.8 262.35,-48.8 262.35,-84.8"/>
<text text-anchor="middle" x="193" y="-62.6" font-family="Times,serif" font-size="14.00">MfHeaderComponent</text>
</g>
<!-- ProfilePageModule -->
<g id="node3" class="node">
<title>ProfilePageModule</title>
<polygon fill="#8dd3c7" stroke="black" points="255.36,-149.8 252.36,-153.8 231.36,-153.8 228.36,-149.8 130.64,-149.8 130.64,-113.8 255.36,-113.8 255.36,-149.8"/>
<text text-anchor="middle" x="193" y="-127.6" font-family="Times,serif" font-size="14.00">ProfilePageModule</text>
</g>
<!-- MfHeaderComponent&#45;&gt;ProfilePageModule -->
<g id="edge1" class="edge">
<title>MfHeaderComponent&#45;&gt;ProfilePageModule</title>
<path fill="none" stroke="black" d="M193,-84.91C193,-84.91 193,-103.79 193,-103.79"/>
<polygon fill="black" stroke="black" points="189.5,-103.79 193,-113.79 196.5,-103.79 189.5,-103.79"/>
</g>
<!-- ProfilePage -->
<g id="node2" class="node">
<title>ProfilePage</title>
<polygon fill="#ffffb3" stroke="black" points="105.81,-84.8 24.19,-84.8 24.19,-48.8 105.81,-48.8 105.81,-84.8"/>
<text text-anchor="middle" x="65" y="-62.6" font-family="Times,serif" font-size="14.00">ProfilePage</text>
</g>
<!-- ProfilePage&#45;&gt;ProfilePageModule -->
<g id="edge2" class="edge">
<title>ProfilePage&#45;&gt;ProfilePageModule</title>
<path fill="none" stroke="black" d="M65,-84.91C65,-104.14 65,-131.8 65,-131.8 65,-131.8 120.5,-131.8 120.5,-131.8"/>
<polygon fill="black" stroke="black" points="120.5,-135.3 130.5,-131.8 120.5,-128.3 120.5,-135.3"/>
</g>
<!-- ProfilePageRoutingModule -->
<g id="node4" class="node">
<title>ProfilePageRoutingModule</title>
<polygon fill="#8dd3c7" stroke="black" points="455.98,-84.8 452.98,-88.8 431.98,-88.8 428.98,-84.8 286.02,-84.8 286.02,-48.8 455.98,-48.8 455.98,-84.8"/>
<text text-anchor="middle" x="371" y="-62.6" font-family="Times,serif" font-size="14.00">ProfilePageRoutingModule</text>
</g>
<!-- ProfilePageRoutingModule&#45;&gt;ProfilePageModule -->
<g id="edge3" class="edge">
<title>ProfilePageRoutingModule&#45;&gt;ProfilePageModule</title>
<path fill="none" stroke="black" d="M371,-84.91C371,-104.14 371,-131.8 371,-131.8 371,-131.8 265.51,-131.8 265.51,-131.8"/>
<polygon fill="black" stroke="black" points="265.51,-128.3 255.51,-131.8 265.51,-135.3 265.51,-128.3"/>
</g>
</g>
</svg>
