<svg xmlns="http://www.w3.org/2000/svg" width="17.795" height="17.795" viewBox="0 0 17.795 17.795">
  <defs>
    <style>
      .cls-1 {
        fill: #red;
      }
    </style>
  </defs>
  <path id="Path_707" data-name="Path 707" class="cls-1" d="M1185.148,1909.8h-.741a.766.766,0,0,1-.527-.215.752.752,0,0,1,0-1.053.766.766,0,0,1,.527-.215h.741a2.228,2.228,0,0,0,2.224-2.224v-.742a.734.734,0,0,1,.215-.526.766.766,0,0,1,.526-.215.779.779,0,0,1,.526.215.765.765,0,0,1,.215.526v.742a3.722,3.722,0,0,1-3.707,3.707Zm3.707-13.346v-.741a3.722,3.722,0,0,0-3.707-3.707h-.741a.766.766,0,0,0-.527.215.752.752,0,0,0,0,1.053.766.766,0,0,0,.527.215h.741a2.228,2.228,0,0,1,2.224,2.224v.741a.734.734,0,0,0,.215.526.766.766,0,0,0,.526.215.78.78,0,0,0,.526-.215A.765.765,0,0,0,1188.855,1896.449Zm-12.6,12.6a.765.765,0,0,0-.215-.526.78.78,0,0,0-.526-.215h-.741a2.223,2.223,0,0,1-1.572-.652,2.192,2.192,0,0,1-.652-1.572v-.742a.765.765,0,0,0-.215-.526.779.779,0,0,0-.526-.215.766.766,0,0,0-.526.215.734.734,0,0,0-.215.526v.742a3.709,3.709,0,0,0,3.707,3.707h.741a.78.78,0,0,0,.526-.215A.765.765,0,0,0,1176.25,1909.054Zm-3.707-12.6v-.741a2.192,2.192,0,0,1,.652-1.572,2.223,2.223,0,0,1,1.572-.652h.741a.78.78,0,0,0,.526-.215.752.752,0,0,0,0-1.053.78.78,0,0,0-.526-.215h-.741a3.709,3.709,0,0,0-3.707,3.707v.741a.734.734,0,0,0,.215.526.766.766,0,0,0,.526.215.78.78,0,0,0,.526-.215A.765.765,0,0,0,1172.543,1896.449Zm10.381,4.449a2.956,2.956,0,0,0-3.544-2.907,2.973,2.973,0,0,0-2.165,4.041,3.018,3.018,0,0,0,1.1,1.334,2.966,2.966,0,0,0,4.612-2.469Zm-1.483,0a1.494,1.494,0,0,1-.92,1.372,1.455,1.455,0,0,1-.853.082,1.508,1.508,0,0,1-.764-.408,1.421,1.421,0,0,1-.4-.756,1.486,1.486,0,0,1,1.453-1.772,1.494,1.494,0,0,1,1.483,1.483Z" transform="translate(-1171.06 -1892)"/>
</svg>
