<svg xmlns="http://www.w3.org/2000/svg" width="17.998" height="18.004" viewBox="0 0 17.998 18.004">
    <g>
        <path fill="#44c8f5" d="M14070.663 16166.5a1.5 1.5 0 1 1 1.5 1.5 1.5 1.5 0 0 1-1.5-1.5zm-7.421 0a1.5 1.5 0 1 1 1.5 1.5 1.5 1.5 0 0 1-1.5-1.5zm2.337-2.585a3.784 3.784 0 0 1-3.818-3.238l-1.059-8.565a.757.757 0 0 0-.763-.649h-.171a.733.733 0 1 1 0-1.465h.171a2.271 2.271 0 0 1 2.288 1.943l.032.256h12.433a2.351 2.351 0 0 1 1.77.787 2.1 2.1 0 0 1 .5 1.8l-.6 3.189a3.8 3.8 0 0 1-3.786 3.015h-9.162a2.31 2.31 0 0 0 2.167 1.465h8.03a.733.733 0 1 1 0 1.465zm-2.414-4.395h9.409a2.28 2.28 0 0 0 2.276-1.81l.6-3.189a.713.713 0 0 0-.17-.6.777.777 0 0 0-.593-.26h-12.25z" transform="translate(-0.002 0.002) translate(-14059 -16150)"/>
    </g>
</svg>
