<svg id="Group_11987" data-name="Group 11987" xmlns="http://www.w3.org/2000/svg" width="57.84" height="34" viewBox="0 0 57.84 34">
  <defs>
    <style>
      .cls-1, .cls-3 {
        fill: #fff;
      }

      .cls-1 {
        stroke: #44c8f5;
        stroke-width: 1.2px;
      }

      .cls-2 {
        fill: #039;
        stroke: #fff;
        stroke-width: 0.2px;
      }

      .cls-4, .cls-6 {
        stroke: none;
      }

      .cls-5 {
        fill: none;
      }

      .cls-6 {
        fill: #039;
      }
    </style>
  </defs>
  <g id="Rectangle_7954" data-name="Rectangle 7954" class="cls-1">
    <rect class="cls-4" width="48" height="34" rx="5"/>
    <rect class="cls-5" x="0.6" y="0.6" width="46.8" height="32.8" rx="4.4"/>
  </g>
  <g id="Group_11985" data-name="Group 11985" transform="translate(8.906 6)">
    <g id="_6271700671558096452" data-name="6271700671558096452" transform="translate(0 2.174)">
      <path id="Path_16645" data-name="Path 16645" class="cls-2" d="M28.571,20.89C30.5,18.662,33,15.583,33,10.276a.717.717,0,0,0-1.429,0A13.076,13.076,0,0,1,28,19.383a13.843,13.843,0,0,1-.714-4.521.717.717,0,0,0-1.429,0,4.482,4.482,0,0,1-.714,2.49c-.286,0-.643-.917-.714-1.834a.684.684,0,0,0-.714-.59.638.638,0,0,0-.714.59c-.214,1.114-.786,2.686-1.429,2.686-.286,0-.429-.066-.5-.2a1.559,1.559,0,0,1-.286-1.048c0-.262.071-.524.071-.786a.671.671,0,0,0-.643-.655.77.77,0,0,0-.786.524,4.8,4.8,0,0,0-.071.721c-.143,1.114-.571,3.341-2.071,3.341a1.04,1.04,0,0,1-1-.459,2.3,2.3,0,0,1,0-2.162v-.066c.071-.066.071-.2.143-.262h0a2.514,2.514,0,0,1,2.286-1.638.658.658,0,1,0,0-1.31c-3,0-3.857,2.686-4.714,5.241-1,3.145-1.929,5.241-4.571,5.241-3.643,0-5-4.324-5-7.207,0-5.634,3.357-9.172,6.429-9.172a3.361,3.361,0,0,1,2.929,1.572.735.735,0,0,0,.929.328.63.63,0,0,0,.357-.852A4.664,4.664,0,0,0,10.857,7C7,7,3,10.931,3,17.483,3,24.231,7.214,26,9.429,26c3.643,0,4.857-2.948,5.786-5.569a2.682,2.682,0,0,0,2.071.983,3.186,3.186,0,0,0,3-2.359,2.113,2.113,0,0,0,1.286.393,2.605,2.605,0,0,0,2.143-1.572,1.649,1.649,0,0,0,1.429.786,1.579,1.579,0,0,0,1.071-.459c.214.917.5,1.769.714,2.49-1,1.179-1.786,2.162-1.786,3.341A2.023,2.023,0,0,0,27.286,26a2.1,2.1,0,0,0,2.143-1.966,7.94,7.94,0,0,0-.786-2.817C28.643,21.086,28.571,21.021,28.571,20.89Zm-1.286,3.8a.644.644,0,0,1-.714-.655,3.3,3.3,0,0,1,.929-1.9,6.084,6.084,0,0,1,.5,1.9A.723.723,0,0,1,27.286,24.69Z" transform="translate(-3 -7)"/>
    </g>
    <g id="Path_16657" data-name="Path 16657" class="cls-3" transform="translate(27.086 6.045) rotate(-30)">
      <path class="cls-4" d="M 6.04478645324707 20.0776424407959 C 2.380846500396729 20.0776424407959 -0.5999935269355774 17.09680366516113 -0.5999935269355774 13.43286323547363 L -0.6000035405158997 8.731352806091309 C -0.6000035405158997 8.030173301696777 -0.0295435469597578 7.459712982177734 0.6716464757919312 7.459712982177734 C 1.372826457023621 7.459712982177734 1.943286418914795 8.030173301696777 1.943286418914795 8.731352806091309 L 1.943286418914795 10.74628257751465 C 1.943286418914795 10.78579330444336 1.975426435470581 10.81793308258057 2.014926433563232 10.81793308258057 C 2.054436445236206 10.81793308258057 2.086576461791992 10.78579330444336 2.086576461791992 10.74628257751465 L 2.086576461791992 0.6716429591178894 C 2.086576461791992 -0.02953706309199333 2.657036542892456 -0.5999970436096191 3.358216524124146 -0.5999970436096191 C 4.059396266937256 -0.5999970436096191 4.629856586456299 -0.02953706309199333 4.629856586456299 0.6716429591178894 L 4.629856586456299 8.059713363647461 C 4.629856586456299 8.099212646484375 4.661996364593506 8.131353378295898 4.701496601104736 8.131353378295898 C 4.741006374359131 8.131353378295898 4.773146629333496 8.099212646484375 4.773146629333496 8.059713363647461 L 4.773146629333496 6.044783115386963 C 4.773146629333496 5.343603134155273 5.343606472015381 4.77314281463623 6.04478645324707 4.77314281463623 C 6.74596643447876 4.77314281463623 7.316426277160645 5.343603134155273 7.316426277160645 6.044783115386963 L 7.316426277160645 8.731352806091309 C 7.316426277160645 8.770862579345703 7.34856653213501 8.803003311157227 7.388066291809082 8.803003311157227 C 7.427576541900635 8.803003311157227 7.459716320037842 8.770862579345703 7.459716320037842 8.731352806091309 L 7.459716320037842 6.716433048248291 C 7.459716320037842 6.015243053436279 8.030176162719727 5.444782733917236 8.731356620788574 5.444782733917236 C 9.432536125183105 5.444782733917236 10.00299644470215 6.015243053436279 10.00299644470215 6.716433048248291 L 10.00299644470215 9.403002738952637 C 10.00299644470215 9.442502975463867 10.03513622283936 9.474642753601074 10.07464599609375 9.474642753601074 C 10.11414623260498 9.474642753601074 10.14628601074219 9.442502975463867 10.14628601074219 9.403002738952637 L 10.14628601074219 7.388072967529297 C 10.14628601074219 6.686892986297607 10.71674633026123 6.116433143615723 11.41792678833008 6.116433143615723 C 12.11910629272461 6.116433143615723 12.68956661224365 6.686892986297607 12.68956661224365 7.388072967529297 L 12.68956661224365 13.43285274505615 C 12.68957614898682 15.20774269104004 11.99839687347412 16.87639236450195 10.74335670471191 18.13143348693848 C 9.488326072692871 19.3864631652832 7.819676399230957 20.0776424407959 6.04478645324707 20.0776424407959 Z"/>
      <path class="cls-6" d="M 6.04478645324707 19.47764205932617 C 9.38322639465332 19.47764205932617 12.08957672119141 16.77130317687988 12.08956623077393 13.43285274505615 L 12.08956623077393 7.388072967529297 C 12.08956623077393 7.017132759094238 11.78886604309082 6.716433048248291 11.41792678833008 6.716433048248291 C 11.04698657989502 6.716433048248291 10.74628639221191 7.017132759094238 10.74628639221191 7.388072967529297 L 10.74628639221191 9.403002738952637 C 10.74628639221191 9.773933410644531 10.44557666778564 10.0746431350708 10.07464599609375 10.0746431350708 C 9.703706741333008 10.0746431350708 9.402996063232422 9.773933410644531 9.402996063232422 9.403002738952637 L 9.402996063232422 6.716433048248291 C 9.402996063232422 6.345492839813232 9.102296829223633 6.044783115386963 8.731356620788574 6.044783115386963 C 8.360416412353516 6.044783115386963 8.05971622467041 6.345492839813232 8.05971622467041 6.716433048248291 L 8.05971622467041 8.731352806091309 C 8.05971622467041 9.102293014526367 7.759006500244141 9.403002738952637 7.388066291809082 9.403002738952637 C 7.017136573791504 9.403002738952637 6.716426372528076 9.102293014526367 6.716426372528076 8.731352806091309 L 6.716426372528076 6.044783115386963 C 6.716426372528076 5.673842906951904 6.415726661682129 5.373142719268799 6.04478645324707 5.373142719268799 C 5.673846244812012 5.373142719268799 5.373146533966064 5.673842906951904 5.373146533966064 6.044783115386963 L 5.373146533966064 8.059713363647461 C 5.373146533966064 8.430652618408203 5.072436332702637 8.731352806091309 4.701496601104736 8.731352806091309 C 4.33056640625 8.731352806091309 4.02985668182373 8.430652618408203 4.02985668182373 8.059713363647461 L 4.02985668182373 0.6716429591178894 C 4.02985668182373 0.3007029294967651 3.729156494140625 2.937011686299229e-06 3.358216524124146 2.937011686299229e-06 C 2.987276554107666 2.937011686299229e-06 2.686576366424561 0.3007029294967651 2.686576366424561 0.6716429591178894 L 2.686576366424561 10.74628257751465 C 2.686576366424561 11.11722278594971 2.385866403579712 11.41793251037598 2.014926433563232 11.41793251037598 C 1.643986463546753 11.41793251037598 1.343286395072937 11.11722278594971 1.343286395072937 10.74628257751465 L 1.343286395072937 8.731352806091309 C 1.343286395072937 8.36042308807373 1.042576432228088 8.059713363647461 0.6716464757919312 8.059713363647461 C 0.3007064461708069 8.059713363647461 -3.546752850525081e-06 8.36042308807373 -3.546752850525081e-06 8.731352806091309 L 6.45324689685367e-06 13.43286323547363 C 6.45324689685367e-06 16.77130317687988 2.70634651184082 19.47764205932617 6.04478645324707 19.47764205932617 M 6.04478645324707 20.67764282226562 C 2.049996376037598 20.67764282226562 -1.199993491172791 17.42765235900879 -1.199993491172791 13.43286323547363 L -1.200003504753113 8.731352806091309 C -1.200003504753113 7.699322700500488 -0.360383540391922 6.859713077545166 0.6716464757919312 6.859713077545166 C 0.963542640209198 6.859713077545166 1.24010956287384 6.926910400390625 1.486576437950134 7.046599388122559 L 1.486576437950134 0.6716429591178894 C 1.486576437950134 -0.3603870570659637 2.326186418533325 -1.199997067451477 3.358216524124146 -1.199997067451477 C 4.390246391296387 -1.199997067451477 5.229856491088867 -0.3603870570659637 5.229856491088867 0.6716429591178894 L 5.229856491088867 4.360029220581055 C 5.476323127746582 4.240340709686279 5.752890110015869 4.173142910003662 6.04478645324707 4.173142910003662 C 6.756826877593994 4.173142910003662 7.377243041992188 4.572762012481689 7.693538188934326 5.159549236297607 C 7.990739822387695 4.960777282714844 8.347746849060059 4.844782829284668 8.731356620788574 4.844782829284668 C 9.44339656829834 4.844782829284668 10.06381225585938 5.244406223297119 10.38010787963867 5.831196308135986 C 10.6773099899292 5.632425785064697 11.03431701660156 5.516432762145996 11.41792678833008 5.516432762145996 C 12.4499568939209 5.516432762145996 13.28956604003906 6.356042861938477 13.28956604003906 7.388072967529297 L 13.28956604003906 13.43285274505615 C 13.28957653045654 15.36800289154053 12.53598690032959 17.18733215332031 11.16762638092041 18.55569267272949 C 9.799266815185547 19.92405319213867 7.979936599731445 20.67764282226562 6.04478645324707 20.67764282226562 Z"/>
    </g>
  </g>
</svg>
