<svg xmlns="http://www.w3.org/2000/svg" width="360" height="181" viewBox="0 0 360 181">
    <defs>
        <linearGradient id="57u7yioi6a" x1="-.27" x2="1.072" y1=".393" y2=".549" gradientUnits="objectBoundingBox">
            <stop offset="0" stop-color="#039"/>
            <stop offset="1" stop-color="#44c8f5"/>
        </linearGradient>
        <clipPath id="976ny920eb">
            <path fill="#713b3b" d="M0 0H360V180H0z" opacity="0.53" transform="translate(8 207)"/>
        </clipPath>
    </defs>
    <g>
        <path fill="url(#57u7yioi6a)" d="M0 0H360V181H0z" transform="translate(0 -104) translate(0 104)"/>
        <g clip-path="url(#976ny920eb)" opacity="0.05" transform="translate(0 -104) translate(-8 -102)">
            <path fill="#d4f5ff" fill-rule="evenodd" d="M-672.359 308.641v.938q6.913 3.946 13.832 7.879c.329.187.631.427 1.13.774-.58.334-.991.577-1.4.813l-13.563 7.683v.964q6.848-4.058 13.685-8.13c.454-.27.908-.529 1.534-.891.045.656.1 1.084.092 1.512-.082 7.708-.2 15.415-.238 23.12a2.27 2.27 0 0 1-1.28 2.232q-6.914 4.052-13.794 8.166v.589q7.069-4 14.129-8.024a2.24 2.24 0 0 1 2.567-.039c6.691 3.859 13.413 7.659 20.124 11.481.334.191.648.424 1.212.792-1.164.674-2.092 1.224-3.029 1.757-6.076 3.439-12.163 6.859-18.222 10.331a2.231 2.231 0 0 1-2.562.051q-7.089-4.095-14.219-8.123v.69c5.746 3.314 13 7.671 14.945 9.061l.236 25.755c-.757-.151-8.846-4.8-15.181-8.6v.833q6.712 3.831 13.433 7.651c.414.237.808.506 1.373.863-.51.346-.847.609-1.213.818q-6.8 3.844-13.593 7.694v.771q6.734-3.989 13.457-7.994c.456-.272.914-.531 1.547-.9.043.639.1 1.068.1 1.492-.08 7.758-.184 15.513-.249 23.27a1.944 1.944 0 0 1-.991 1.949q-6.943 4.073-13.861 8.194v.768q7.082-4 14.151-8.02a2.016 2.016 0 0 1 2.3-.045c6.729 3.879 13.489 7.7 20.235 11.548.333.187.642.413 1.093.71-.438.3-.729.536-1.054.72l-20.406 11.56a1.793 1.793 0 0 1-2.038.042q-7.127-4.1-14.28-8.151v.734q6.921 4.13 13.847 8.247a1.572 1.572 0 0 1 .912 1.519c.051 8.066.137 16.129.2 24.2 0 .195-.034.391-.086.927-5.029-3-9.964-5.947-14.878-8.881v.917l13.644 7.781c.284.161.528.394.905.669-.491.319-.839.574-1.207.783l-13.342 7.558v.9q4.885-2.889 9.773-5.773c1.616-.953 3.25-1.888 5.124-2.976.023.685.063 1.163.057 1.644-.086 7.661-.2 15.326-.241 22.989a2.281 2.281 0 0 1-1.276 2.238q-6.737 3.951-13.437 7.962v.575q7.089-4.007 14.175-8.023a1.592 1.592 0 0 1 1.778-.079q10.5 6.013 21.008 11.99a6.814 6.814 0 0 1 .648.515c-.611.353-1.032.6-1.459.843-6.586 3.73-13.188 7.438-19.748 11.214a2.343 2.343 0 0 1-2.7-.016q-6.832-3.952-13.7-7.839v.74q6.74 4.023 13.483 8.039a1.791 1.791 0 0 1 1.135 1.694c.028 8.007.123 16.019.192 24.031.005.244-.029.49-.057.882a5.783 5.783 0 0 1-.95-.331q-6.905-4.114-13.8-8.23v.923q6.606 3.77 13.216 7.528c.369.213.71.477 1.237.83-.591.346-1 .59-1.423.824q-6.516 3.686-13.031 7.375v.778q6.914-4.1 13.823-8.2a8.821 8.821 0 0 1 .866-.371c.024.6.059.993.059 1.383q-.132 11.722-.257 23.441a1.818 1.818 0 0 1-.941 1.822q-6.785 3.987-13.549 8.02v.7q6.949-3.937 13.9-7.881a1.7 1.7 0 0 1 1.914-.106q9.889 5.671 19.8 11.29h1.33c-4.013-2.075-19.349-11.137-21.495-12.732q-.109-12.8-.231-25.764c1.174.295 20.044 11.407 22.4 13.16l.232 25.336h.507c-.023-.365-.04-.672-.036-.969.082-7.663.2-15.327.23-22.989a2.366 2.366 0 0 1 1.379-2.337c6.582-3.853 13.131-7.768 19.693-11.657.366-.217.761-.392 1.315-.677.031.641.077 1.118.072 1.593-.083 7.665-.189 15.328-.239 22.991a2.281 2.281 0 0 1-1.249 2.255c-6.58 3.858-13.126 7.78-19.682 11.678l-.187.111h.672q9.86-5.566 19.7-11.154a1.917 1.917 0 0 1 2.171-.08c6.546 3.77 13.117 7.492 19.677 11.234h.985l-21.147-12.621c-.08-8.614-.156-17.2-.233-25.827 1.165.311 20.486 11.712 22.343 13.154.073 8.3.148 16.65.226 25.293h.537a4.035 4.035 0 0 1-.061-.644q.126-11.857.257-23.717a1.6 1.6 0 0 1 .8-1.6q6.515-3.845 13.013-7.719v.006l5.754-3.419 1.893-1.124c.167-.1.357-.187.571-.289l.188-.068a8.4 8.4 0 0 1 .116 1.122c-.081 7.854-.184 15.711-.251 23.566a1.82 1.82 0 0 1-.957 1.818c-2.493 1.459-4.977 2.938-7.462 4.41v.081q-6.391 3.786-12.775 7.575h1.041l12.519-7.087q3.594-2.027 7.186-4.059a4.052 4.052 0 0 1 .406-.2 2.266 2.266 0 0 1 .239-.081c.02-.006.04-.009.06-.014a1.541 1.541 0 0 1 .682-.007 2.146 2.146 0 0 1 .5.211c6.551 3.768 13.124 7.494 19.692 11.234h1.134q-10.165-6.051-20.318-12.11a1.478 1.478 0 0 1-.868-1.4q-.073-12.236-.192-24.474a4.576 4.576 0 0 1 .092-.611c.452.228.819.4 1.146.6q9.951 5.924 19.9 11.86a1.791 1.791 0 0 1 1.129 1.7c.03 8.01.124 16.022.193 24.032 0 .125-.007.256-.018.4h.7a3.694 3.694 0 0 1-.055-.613q.126-11.855.255-23.718a1.614 1.614 0 0 1 .8-1.6q10.463-6.167 20.9-12.388c.092-.045.207-.1.342-.151l.179-.066c.031.509.07.886.066 1.252-.086 7.807-.186 15.61-.26 23.418a1.818 1.818 0 0 1-.924 1.833c-6.781 3.984-13.533 8.016-20.3 12.029h.891c6.523-3.7 13.054-7.377 19.564-11.1a2.391 2.391 0 0 1 1.88-.284 2.8 2.8 0 0 1 .409.183c6.528 3.76 13.085 7.47 19.632 11.2h1.509c-3.658-1.815-17.974-10.241-21.553-12.72q-.111-12.814-.23-25.634c.689.245 3.043 1.52 6.03 3.221l14.11 8.421c.809.514 1.51.97 2.05 1.337.079 8.388.156 16.871.233 25.375h.683a4.744 4.744 0 0 1-.063-.683c.085-7.864.186-15.725.259-23.587a2.026 2.026 0 0 1 .437-1.426c.03-.03.058-.062.091-.091a1.991 1.991 0 0 1 .258-.2c.1-.065.185-.132.292-.194q8.517-5.009 17.017-10.052c.978-.579 1.939-1.19 2.923-1.769.327-.193.692-.358 1.138-.575l.078-.033c.024.567.057.947.057 1.322q-.134 11.722-.257 23.441a1.819 1.819 0 0 1-.942 1.822c-6.776 3.983-13.53 8.014-20.292 12.024h1.068q9.858-5.595 19.719-11.184a3.548 3.548 0 0 1 .43-.21c.034-.013.069-.024.1-.037a1.979 1.979 0 0 1 .222-.056 1.383 1.383 0 0 1 .506-.009 1.9 1.9 0 0 1 .5.206q9.887 5.671 19.8 11.29h1.478c-1.67-.865-5.3-2.94-9.13-5.182q-3.049-1.82-6.108-3.625c-2.572-1.55-4.732-2.885-5.794-3.6a1.985 1.985 0 0 1-.466-.928q-.106-12.311-.223-24.769l.019-.326c.969.414 4.919 2.654 9.243 5.183l3.33 1.987v-.026c4.467 2.649 8.628 5.189 9.654 5.953l.232 25.336h.66c-.022-.365-.04-.672-.036-.969.083-7.663.2-15.327.23-22.989a2.366 2.366 0 0 1 1.379-2.337c6.582-3.853 13.131-7.768 19.693-11.657.332-.2.694-.363 1.171-.6.031.6.073 1.063.069 1.519-.084 7.665-.19 15.328-.24 22.991a2.28 2.28 0 0 1-1.248 2.255c-6.581 3.858-13.127 7.78-19.682 11.678l-.188.111h.822q9.858-5.566 19.7-11.154a2.625 2.625 0 0 1 1.017-.367 1.927 1.927 0 0 1 1.006.288c6.545 3.77 13.116 7.492 19.677 11.234h1.134l-21.147-12.621c-.08-8.6-.156-17.165-.233-25.771 2.123.909 20.391 11.7 22.194 13.1l.227 25.293h.686a4.038 4.038 0 0 1-.061-.644q.125-11.857.256-23.717a1.6 1.6 0 0 1 .8-1.6q10.484-6.189 20.94-12.422a3.73 3.73 0 0 1 .477-.191v.017c.031.495.073.868.068 1.229-.086 7.807-.191 15.613-.25 23.42a1.941 1.941 0 0 1-1.048 1.914c-6.763 3.975-13.5 7.993-20.248 11.992h1.19q9.828-5.566 19.659-11.129a2.349 2.349 0 0 1 1-.342 1.824 1.824 0 0 1 .9.261c6.534 3.759 13.094 7.476 19.648 11.209h1.132q-10.092-6.013-20.179-12.026a1.589 1.589 0 0 1-.967-1.494c-.047-8.109-.128-16.216-.194-24.327a7.234 7.234 0 0 1 .087-.756c.532.285.935.489 1.311.717 6.55 3.9 13.084 7.826 19.649 11.7a2.146 2.146 0 0 1 1.226 2.1c.029 7.714.119 15.421.186 23.135 0 .3-.011.6-.027.948h.71a4.229 4.229 0 0 1-.048-.628c.082-7.856.181-15.711.257-23.568a1.7 1.7 0 0 1 .83-1.729q10.426-6.141 20.816-12.342a4.855 4.855 0 0 1 .578-.255c.028.5.065.829.062 1.149-.089 7.861-.192 15.714-.257 23.57a1.819 1.819 0 0 1-.96 1.811c-6.758 3.976-13.49 7.992-20.233 11.992h.885c6.473-3.664 12.955-7.308 19.4-11.01a2.881 2.881 0 0 1 1.446-.452 2.857 2.857 0 0 1 1.237.419c6.421 3.722 12.885 7.369 19.335 11.042h1.481c-3.818-1.934-18.422-10.545-21.489-12.707-.078-8.363-.154-16.829-.234-25.667a35.5 35.5 0 0 1 3.546 1.819l18.359 10.956c.1.065.2.131.287.193q.114 12.68.232 25.405h.684a1.737 1.737 0 0 1-.066-.43c.08-8.012.19-16.024.248-24.037a1.832 1.832 0 0 1 1.14-1.713q8.517-5.009 17.016-10.052c.979-.579 1.94-1.19 2.923-1.769.329-.194.695-.359 1.145-.578.035.56.08.974.075 1.381l-.256 23.291a2.489 2.489 0 0 1-.243 1.268l-.016.024a1.476 1.476 0 0 1-.257.3 2.106 2.106 0 0 1-.3.228c-.02.012-.034.026-.056.039-6.794 3.989-13.563 8.023-20.333 12.043h1.074l19.758-11.2a2.141 2.141 0 0 1 .885-.307 1.527 1.527 0 0 1 .748.211q6.047 3.47 12.108 6.916v-.064q3.9 2.221 7.8 4.448h1.33c-1.649-.853-5.21-2.886-8.982-5.094v-.09q-5.333-3.185-10.684-6.34c-.275-.173-.524-.332-.751-.479a2.225 2.225 0 0 1-1.014-2.059c-.022-7.668-.116-15.333-.18-23-.006-.422.027-.845.057-1.371.593.254 2.307 1.193 4.536 2.463l7.888 4.708v-.089l.149.089v-.026c4.467 2.649 8.628 5.189 9.654 5.953l.232 25.336h.511c-.022-.365-.041-.672-.036-.969.083-7.663.2-15.327.231-22.989a2.365 2.365 0 0 1 1.378-2.337c6.583-3.853 13.132-7.768 19.693-11.657.367-.217.762-.392 1.316-.677.031.641.077 1.118.072 1.593-.083 7.665-.189 15.328-.24 22.991a2.28 2.28 0 0 1-1.248 2.255c-6.58 3.858-13.127 7.78-19.682 11.678l-.187.111h.672q9.858-5.566 19.7-11.154a1.917 1.917 0 0 1 2.171-.08c6.545 3.77 13.117 7.492 19.677 11.234h.985l-21.147-12.621c-.08-8.614-.156-17.2-.233-25.827 1.165.311 20.486 11.712 22.343 13.154.073 8.3.148 16.65.226 25.293h.537a4.033 4.033 0 0 1-.061-.644q.125-11.857.257-23.717a1.6 1.6 0 0 1 .8-1.6q10.484-6.189 20.94-12.422c.124-.071.274-.108.624-.247.031.536.078.921.073 1.3-.087 7.807-.192 15.613-.251 23.42a1.937 1.937 0 0 1-1.048 1.914c-6.763 3.975-13.5 7.993-20.248 11.992h1.041q9.829-5.566 19.659-11.129a1.8 1.8 0 0 1 2.04-.081c6.534 3.759 13.094 7.476 19.649 11.209h.983q-10.094-6.013-20.179-12.026a1.59 1.59 0 0 1-.968-1.494c-.047-8.109-.127-16.216-.194-24.327 0-.192.046-.384.1-.83.607.327 1.04.544 1.45.791 6.551 3.9 13.084 7.826 19.649 11.7a2.147 2.147 0 0 1 1.227 2.1c.029 7.714.117 15.421.185 23.135 0 .3-.011.6-.027.948h.561a4.37 4.37 0 0 1-.048-.628c.082-7.856.181-15.711.257-23.568a1.706 1.706 0 0 1 .83-1.729q10.426-6.141 20.816-12.342c.167-.1.355-.156.723-.315.029.536.069.875.067 1.209-.09 7.861-.193 15.714-.258 23.57a1.817 1.817 0 0 1-.96 1.811c-6.757 3.976-13.49 7.992-20.233 11.992h.737c6.473-3.664 12.954-7.308 19.4-11.01a2.468 2.468 0 0 1 2.832-.033c6.422 3.722 12.886 7.369 19.336 11.042h1.331c-3.817-1.934-18.421-10.545-21.488-12.707-.079-8.487-.156-17.076-.238-26.055 7.644 4.562 14.946 8.921 22.344 13.334q.114 12.692.233 25.428h.535a1.733 1.733 0 0 1-.066-.43c.08-8.012.189-16.024.247-24.037a1.832 1.832 0 0 1 1.14-1.713q8.517-5.009 17.016-10.052c.979-.579 1.94-1.19 2.924-1.769.366-.216.762-.386 1.288-.648.036.6.085 1.026.08 1.451q-.129 11.648-.255 23.291a1.824 1.824 0 0 1-.87 1.865c-6.794 3.989-13.562 8.023-20.333 12.043h.927l19.758-11.2a1.6 1.6 0 0 1 1.781-.1q6.049 3.47 12.109 6.916v-.8q-5.585-3.334-11.189-6.639a2.262 2.262 0 0 1-1.261-2.239c-.021-7.668-.116-15.333-.18-23-.007-.481.038-.955.069-1.593.539.274.931.449 1.3.671q5.631 3.357 11.261 6.721v-.864q-5.777-3.295-11.557-6.585c-.171-.094-.319-.225-.629-.444a8.045 8.045 0 0 1 .905-.712q5.639-3.2 11.28-6.39V552q-5.945 3.527-11.893 7.051a5.475 5.475 0 0 1-.617.229c-.023-.545-.065-.929-.058-1.315.084-7.8.186-15.611.254-23.418a1.816 1.816 0 0 1 .942-1.82q5.695-3.348 11.371-6.731v-.842q-5.737 3.247-11.455 6.523a2.34 2.34 0 0 1-2.7-.012c-6.594-3.815-13.23-7.558-19.846-11.334-.378-.213-.733-.465-1.248-.8.372-.265.616-.477.888-.63l20.667-11.7a1.689 1.689 0 0 1 1.91-.006q5.883 3.371 11.783 6.719v-.793c-4.081-2.432-8.131-4.848-12.2-7.276l-.237-26.157 12.438 7.426v-.862q-5.517-3.142-11.037-6.282c-.289-.168-.551-.38-1.065-.734.613-.355.989-.579 1.369-.791q5.368-3.041 10.733-6.078v-.825q-5.341 3.171-10.679 6.347c-.466.276-.939.543-1.66.962-.038-.71-.084-1.141-.076-1.572.081-7.712.191-15.421.237-23.136a2.286 2.286 0 0 1 1.282-2.242q5.456-3.2 10.9-6.44v-.661q-5.759 3.256-11.515 6.519a1.8 1.8 0 0 1-2.037.073c-6.863-3.943-13.751-7.841-20.628-11.761-.248-.141-.47-.325-.846-.586.449-.3.779-.569 1.139-.778l20.285-11.478a1.807 1.807 0 0 1 2.036-.087q5.774 3.324 11.566 6.613v-.8q-5.528-3.3-11.061-6.587a1.813 1.813 0 0 1-1.012-1.77c-.043-7.856-.128-15.716-.193-23.576 0-.379.048-.757.088-1.314.563.294 1 .488 1.4.732q5.383 3.212 10.775 6.42v-.85q-5.3-3.019-10.607-6.033c-.377-.218-.732-.471-1.245-.8.364-.264.606-.481.879-.636q5.484-3.1 10.972-6.211v-.7q-5.326 3.166-10.644 6.336c-.417.247-.834.482-1.417.821a11.882 11.882 0 0 1-.15-1.306c.083-7.865.184-15.726.256-23.59a1.831 1.831 0 0 1 .934-1.831q5.522-3.244 11.021-6.514v-.765q-5.675 3.21-11.346 6.429a1.807 1.807 0 0 1-2.041.051c-6.869-3.947-13.757-7.853-20.642-11.775-.251-.14-.476-.322-.9-.62.525-.342.839-.572 1.176-.762 6.59-3.737 13.2-7.442 19.763-11.224a2.673 2.673 0 0 1 3.1-.038q5.427 3.157 10.894 6.249v-.816l-11.837-7.064-.239-25.779c.719.14 6.438 3.363 12.076 6.7v-.708l-10.807-6.161c-.249-.138-.469-.325-.83-.578a8.773 8.773 0 0 1 .772-.564q5.432-3.084 10.866-6.148v-.855l-10.6 6.262c-.381.224-.764.445-1.278.743a6.42 6.42 0 0 1-.18-1.077l.2-18.895h-.848c.06 6.6.118 13.263.178 20.118-7.612-4.544-14.942-8.919-22.339-13.331q-.03-3.4-.063-6.787h-.837c-.019 1.856-.042 3.712-.056 5.567a1.938 1.938 0 0 1-1.034 1.922c-6.744 3.971-13.461 7.987-20.19 11.987-.292.173-.607.309-1.018.518a4 4 0 0 1-.207-.861l.2-19.134h-.845l.183 20.167c-7.649-4.567-14.961-8.928-22.4-13.368l-.063-6.8h-.837q-.032 2.842-.062 5.686a1.612 1.612 0 0 1-.8 1.6q-10.5 6.185-20.965 12.418a4.662 4.662 0 0 1-.619.214c-.024-.6-.064-1.039-.058-1.476l.2-18.446h-.85c.059 6.619.119 13.243.177 20.01-.662-.35-1.093-.554-1.5-.8-6.552-3.907-13.092-7.832-19.663-11.706a2.159 2.159 0 0 1-1.218-2.107c-.005-1.8-.023-3.6-.034-5.4h-.821c-.019 1.856-.046 3.713-.061 5.57a1.812 1.812 0 0 1-.951 1.815q-10.3 6.062-20.561 12.191c-.211.125-.441.214-.828.4-.04-.515-.1-.934-.1-1.353q.1-9.309.206-18.62h-.849q.065 9.391.16 18.781c0 .332-.046.668-.085 1.242-.608-.325-1-.521-1.379-.746q-9.881-5.9-19.773-11.78a2.025 2.025 0 0 1-1.188-1.975c0-1.841-.023-3.68-.034-5.521h-.827c-.019 1.841-.043 3.68-.059 5.521a1.822 1.822 0 0 1-.952 1.818c-6.668 3.919-13.314 7.877-19.965 11.82l-.115.069c-.178.105-.358.21-.551.321-.162.089-.341.167-.607.289a4.832 4.832 0 0 1-.152-.943l.2-18.895h-1l.177 20.03c-7.559-4.512-14.842-8.86-22.19-13.243q-.03-3.4-.063-6.787h-.987c-.019 1.856-.042 3.712-.056 5.567a1.937 1.937 0 0 1-1.034 1.922c-6.734 3.965-13.442 7.975-20.159 11.97-.259.146-.542.273-.923.455a3.075 3.075 0 0 1-.182-.78l.2-19.134h-.993l.182 20.079c-7.593-4.536-14.86-8.869-22.25-13.279l-.063-6.8h-.985q-.033 2.842-.063 5.686a2.06 2.06 0 0 1-.241 1.053 1.53 1.53 0 0 1-.209.277 1.47 1.47 0 0 1-.121.095 2.464 2.464 0 0 1-.3.221q-10.338 6.091-20.648 12.229c-.142.072-.3.154-.482.238l-.237.074c-.024-.579-.062-1-.056-1.428l.2-18.446h-1c.058 6.522.117 13.052.175 19.717 0 .071 0 .136-.007.211-.569-.3-.97-.493-1.342-.714-6.553-3.907-13.092-7.832-19.663-11.706a2.159 2.159 0 0 1-1.219-2.107c-.005-1.8-.023-3.6-.034-5.4h-.969c-.019 1.856-.046 3.713-.061 5.57a1.814 1.814 0 0 1-.951 1.815q-10.3 6.062-20.562 12.191c-.178.107-.392.2-.685.332-.039-.483-.1-.888-.093-1.288q.1-9.309.207-18.62h-1q.065 9.391.161 18.781c0 .316-.042.641-.08 1.167-.523-.278-.891-.465-1.235-.671q-9.881-5.9-19.773-11.78a2.024 2.024 0 0 1-1.189-1.975c0-1.841-.022-3.68-.034-5.521h-.975c-.019 1.841-.042 3.68-.059 5.521a1.822 1.822 0 0 1-.952 1.818c-6.87 4.037-13.715 8.117-20.565 12.177-.177.1-.374.186-.672.322l-.063-.3c-.021-.395-.042-.692-.038-.989l.2-18.549h-1l.179 20.01c-7.573-4.522-14.831-8.849-22.192-13.246l-.062-6.765h-.987c-.017 1.826-.039 3.651-.051 5.478a2.059 2.059 0 0 1-1.11 2.036c-6.7 3.938-13.375 7.93-20.061 11.9-.279.166-.583.3-1 .5-.031-.113-.065-.215-.1-.317-.02-.418-.037-.719-.034-1.022q.108-9.289.2-18.576h-1c.059 6.605.12 13.229.179 20.057-7.622-4.551-14.923-8.912-22.248-13.284l-.062-6.773h-.985c-.019 1.86-.041 3.721-.056 5.581a1.817 1.817 0 0 1-.986 1.8q-10.174 5.99-20.312 12.039c-.248.15-.533.275-.9.451-.044-.528-.1-.936-.094-1.344.066-6.174.143-12.349.2-18.525h-.973l.138 18.176c0 .506-.022 1.017-.044 1.752l-.159-.082-8.892-5.282v.047q-5.97-3.564-11.955-7.1a2.161 2.161 0 0 1-1.218-2.107c-.005-1.8-.023-3.6-.034-5.4h-.821c-.019 1.856-.046 3.713-.061 5.57a1.813 1.813 0 0 1-.95 1.815q-10.3 6.062-20.562 12.191c-.21.125-.44.214-.828.4-.039-.515-.1-.934-.1-1.353q.1-9.309.206-18.62h-.849q.065 9.391.16 18.781c0 .332-.046.668-.085 1.242-.608-.325-1-.521-1.379-.746q-9.881-5.9-19.773-11.78a2.025 2.025 0 0 1-1.188-1.975c-.005-1.841-.023-3.68-.034-5.521h-.827c-.018 1.841-.043 3.68-.058 5.521a1.825 1.825 0 0 1-.952 1.818c-6.87 4.037-13.715 8.117-20.566 12.177-.213.125-.445.212-.864.411-.027-.606-.062-.991-.058-1.378l.2-18.549h-.85c.06 6.613.12 13.251.18 20.1-5.172-3.138-10.237-6.159-15.289-9.174zm15.9 64.522a1.821 1.821 0 0 1 1.166-1.7q8.067-4.752 16.122-9.523c1.613-.953 3.242-1.884 5.078-2.947.038.581.087.97.084 1.35-.086 7.814-.189 15.628-.252 23.442a1.938 1.938 0 0 1-1.034 1.922c-6.744 3.971-13.461 7.985-20.189 11.981-.291.177-.607.314-1.018.521a3.782 3.782 0 0 1-.2-.863c.07-8.06.179-16.119.239-24.183zm90.393-1.638a1.808 1.808 0 0 1 1.063 1.738c.036 7.911.126 15.821.191 23.728 0 .321-.035.646-.074 1.167-.475-.247-.8-.407-1.107-.584l-7.764-4.634v.045q-6.032-3.6-12.081-7.176a2.253 2.253 0 0 1-1.3-2.213c-.016-7.662-.11-15.324-.174-22.986 0-.481.031-.964.055-1.616.49.228.844.365 1.163.555l12.193 7.27v.037q3.909 2.336 7.831 4.669zm417.755 108.244c.58.306 1.012.508 1.421.757 6.551 3.905 13.086 7.835 19.662 11.7a2.247 2.247 0 0 1 1.278 2.226c.023 7.667.115 15.336.181 23 0 .479-.035.958-.066 1.617-.58-.3-1.015-.506-1.422-.753-6.552-3.908-13.09-7.837-19.664-11.707a2.243 2.243 0 0 1-1.275-2.224c-.02-7.67-.113-15.337-.179-23-.011-.477.03-.953.059-1.616zm0-2.187q.125-11.858.257-23.717a1.6 1.6 0 0 1 .806-1.6q10.483-6.187 20.942-12.42a5.512 5.512 0 0 1 .619-.243c.03.539.074.924.068 1.307-.086 7.806-.186 15.614-.256 23.418a1.823 1.823 0 0 1-.926 1.831c-6.87 4.035-13.711 8.12-20.561 12.187-.211.123-.439.218-.811.4a9.711 9.711 0 0 1-.146-1.163zm21.868 14.049c-6.865-3.954-13.759-7.856-20.641-11.777-.252-.144-.483-.327-.859-.581a9.193 9.193 0 0 1 .966-.73c6.762-3.834 13.537-7.649 20.289-11.505a2.033 2.033 0 0 1 2.309-.06c6.779 3.9 13.588 7.755 20.382 11.629.294.165.563.375 1.11.741-.644.373-1.057.623-1.477.855q-9.956 5.636-19.908 11.275a1.906 1.906 0 0 1-2.179.153zm-.072-80.656c-6.644-3.837-13.329-7.609-20-11.406-.376-.216-.732-.469-1.235-.8.408-.3.688-.549 1.009-.731 6.765-3.837 13.536-7.652 20.288-11.513a2.016 2.016 0 0 1 2.3-.028c6.733 3.883 13.5 7.708 20.254 11.557.335.188.645.422 1.225.808l-1.5.874c-6.6 3.725-13.2 7.435-19.78 11.2a2.247 2.247 0 0 1-2.569.039zm.793-27.2a1.813 1.813 0 0 1-.92 1.834c-6.874 4.039-13.723 8.125-20.579 12.193-.207.124-.435.21-.8.382a9.288 9.288 0 0 1-.144-1.2c.082-7.863.2-15.727.244-23.589a2.052 2.052 0 0 1 1.185-2c6.744-3.966 13.464-7.979 20.195-11.967.249-.149.523-.252 1-.474.032.6.073.986.07 1.37-.088 7.825-.187 15.64-.259 23.452zm-.109 28.826c.075 8.524.153 17.105.233 26.016-7.6-4.533-14.931-8.9-22.342-13.324l-.236-25.806c1.136.249 19.924 11.297 22.336 13.113zm-21.829 13.962q10.495 6.016 21.009 11.987c.162.1.3.231.665.517-.6.354-1.024.6-1.452.844-6.585 3.73-13.188 7.438-19.751 11.213a2.333 2.333 0 0 1-2.7 0c-6.593-3.819-13.228-7.56-19.845-11.332-.379-.215-.737-.467-1.252-.8a10.643 10.643 0 0 1 .876-.639q10.335-5.846 20.671-11.7a1.593 1.593 0 0 1 1.77-.089zm-46.875 53.167c7.576 4.464 14.884 8.875 22.284 13.276.078 8.621.155 17.213.233 26.1-.749-.423-1.185-.656-1.606-.909-6.465-3.858-12.918-7.74-19.406-11.554a2.352 2.352 0 0 1-1.377-2.317c0-7.566-.1-15.134-.168-22.7-.016-.526.012-1.059.031-1.895zm-.04-2.486c.083-7.762.181-15.518.254-23.273a1.819 1.819 0 0 1 .914-1.836c6.908-4.059 13.792-8.173 20.688-12.266.167-.1.351-.168.652-.31a5.151 5.151 0 0 1 .185.979c-.081 8-.184 16.008-.254 24.012a1.625 1.625 0 0 1-.915 1.544q-10.288 6.069-20.561 12.181a9.114 9.114 0 0 1-.9.4c-.033-.569-.078-.999-.072-1.43zm21.637 14.258c-6.641-3.833-13.318-7.6-19.981-11.4-.376-.215-.731-.466-1.246-.8.456-.312.786-.576 1.144-.783l20.284-11.48a1.808 1.808 0 0 1 2.038-.089c6.862 3.949 13.749 7.847 20.625 11.767.25.14.474.32.948.652-.6.346-.979.571-1.364.785-6.677 3.777-13.362 7.536-20.018 11.346a2.124 2.124 0 0 1-2.439 0zm1.632 2.71a2.058 2.058 0 0 1 1.183-2c6.745-3.965 13.464-7.974 20.195-11.966.247-.148.524-.25 1-.474.031.6.072.985.069 1.37-.086 7.812-.187 15.626-.246 23.44a1.934 1.934 0 0 1-1.056 1.9c-6.743 3.97-13.466 7.979-20.193 11.974-.292.171-.6.312-1.087.557-.046-.538-.113-.952-.11-1.367.079-7.808.19-15.62.236-23.432zm22.41-15.391c-.653-.365-1.088-.6-1.511-.851-6.5-3.874-12.995-7.778-19.522-11.619a2.253 2.253 0 0 1-1.3-2.215c-.018-7.665-.112-15.322-.176-22.989-.005-.476.034-.954.061-1.61.491.233.842.37 1.163.562l20.151 12.014a1.679 1.679 0 0 1 1.039 1.6c.037 8.015.127 16.022.2 24.031-.009.279-.062.556-.109 1.079zm-22.445-41.8c.086-7.715.191-15.426.246-23.143a2.16 2.16 0 0 1 1.17-2.153c6.711-3.927 13.385-7.915 20.072-11.883.292-.172.607-.31 1.036-.534a6.415 6.415 0 0 1 .175 1.037c-.083 7.96-.184 15.923-.256 23.888a1.714 1.714 0 0 1-.919 1.686q-10.3 6.083-20.571 12.214c-.208.123-.436.207-.888.415-.038-.658-.075-1.092-.073-1.525zm22.627-38.819c-3.864-2.1-7.468-4.393-11.143-6.558-3.706-2.188-7.392-4.41-11.114-6.638l-.235-25.943a10.609 10.609 0 0 1 1.157.5q10.147 6.043 20.295 12.092a1.569 1.569 0 0 1 .913 1.519c.048 8.063.133 16.13.2 24.194-.003.193-.039.39-.081.832zm-21.7-11.759c6.734 3.883 13.5 7.71 20.254 11.555.334.19.641.424 1.2.793-1.251.726-2.267 1.326-3.3 1.9-5.946 3.37-11.911 6.707-17.836 10.111a2.456 2.456 0 0 1-2.828.045c-6.55-3.8-13.147-7.522-19.728-11.275-.419-.24-.824-.5-1.364-.836a8.242 8.242 0 0 1 .875-.69c6.805-3.86 13.624-7.7 20.416-11.582a2.025 2.025 0 0 1 2.304-.02zm-1.52-2.493a1.613 1.613 0 0 1-.813 1.591q-10.489 6.179-20.946 12.413a4.478 4.478 0 0 1-.611.231c-.029-.549-.07-.936-.065-1.317.086-7.808.187-15.61.254-23.418a1.823 1.823 0 0 1 .946-1.819q10.3-6.063 20.559-12.192c.21-.125.438-.217.772-.376a6.115 6.115 0 0 1 .163 1.02c-.088 7.957-.188 15.917-.266 23.868zm-22.394 15.2c7.515 4.482 14.852 8.861 22.281 13.295.078 8.613.158 17.214.239 25.986a6.281 6.281 0 0 1-1.008-.367q-10.278-6.121-20.551-12.256a1.466 1.466 0 0 1-.868-1.392c-.045-8.165-.128-16.331-.2-24.5-.004-.139.035-.285.099-.764zm.734 27.61c6.734 3.883 13.5 7.71 20.253 11.559.332.19.641.42 1.227.81-.664.384-1.082.631-1.5.87-6.6 3.727-13.2 7.436-19.78 11.2a2.24 2.24 0 0 1-2.564.041c-6.645-3.837-13.329-7.612-20-11.408-.378-.216-.737-.465-1.241-.789a11.749 11.749 0 0 1 1.008-.735c6.767-3.835 13.538-7.652 20.287-11.512a2.023 2.023 0 0 1 2.304-.034zm-46.368 53.4q10.335 6.155 20.663 12.318a1.473 1.473 0 0 1 .856 1.4q.076 12.236.192 24.475a5.414 5.414 0 0 1-.105.669c-.53-.27-.921-.45-1.291-.671-6.632-3.95-13.256-7.925-19.9-11.859a1.9 1.9 0 0 1-1.109-1.858c-.032-7.863-.123-15.721-.19-23.579 0-.348.026-.692.047-1.16a3.919 3.919 0 0 1 .83.267zm-.827-2.96c.085-7.666.191-15.326.242-22.991a2.282 2.282 0 0 1 1.245-2.264c6.626-3.875 13.215-7.813 19.819-11.726.368-.218.762-.392 1.315-.676.03.646.077 1.122.072 1.6-.085 7.665-.192 15.328-.24 22.993a2.274 2.274 0 0 1-1.254 2.25c-6.577 3.862-13.123 7.778-19.678 11.682-.407.24-.819.472-1.443.835-.042-.748-.089-1.225-.089-1.703zm21.516 14.213c-6.643-3.831-13.319-7.6-19.98-11.4-.369-.213-.713-.476-1.253-.844.583-.34.993-.578 1.4-.813 6.678-3.774 13.363-7.528 20.02-11.342a2.012 2.012 0 0 1 2.3 0c6.689 3.856 13.4 7.653 20.112 11.47.37.213.709.475 1.185.8-.5.321-.844.574-1.216.787-6.669 3.78-13.355 7.542-20.007 11.356a2.248 2.248 0 0 1-2.569-.012zm1.765 2.721a1.718 1.718 0 0 1 .932-1.678q10.3-6.068 20.557-12.193c.212-.123.437-.222.813-.41a9.39 9.39 0 0 1 .139 1.169c-.081 7.9-.182 15.809-.255 23.718a1.605 1.605 0 0 1-.8 1.6q-10.549 6.222-21.077 12.482a3.035 3.035 0 0 1-.5.152c-.027-.455-.07-.788-.066-1.121.084-7.903.183-15.81.249-23.718zm.12-28.581q-.12-12.877-.237-25.793c1.121.219 19.725 11.144 22.347 13.1.074 8.519.152 17.1.231 26.033-7.653-4.563-14.953-8.927-22.353-13.338zm-.225-28.148c.082-7.963.19-15.923.247-23.885a1.95 1.95 0 0 1 1.183-1.845q9.032-5.3 18.04-10.652c.972-.575 1.953-1.135 3.184-1.849.02.744.048 1.232.04 1.716-.085 7.713-.187 15.425-.241 23.14a1.949 1.949 0 0 1-1.052 1.913c-6.746 3.964-13.465 7.975-20.195 11.968-.292.176-.6.313-1.029.527a6.424 6.424 0 0 1-.185-1.032zm22.663-39.127c-.653-.367-1.087-.6-1.507-.851-6.506-3.879-13-7.778-19.523-11.619a2.254 2.254 0 0 1-1.3-2.213c-.017-7.662-.11-15.324-.174-22.986 0-.481.031-.964.055-1.616.49.228.844.365 1.163.555q10.077 6.006 20.152 12.015a1.693 1.693 0 0 1 1.045 1.6c.035 8.01.125 16.018.192 24.031-.007.278-.06.564-.11 1.085zm-21.85-11.884q10.363 5.941 20.756 11.833c.209.118.393.276.784.555-.484.317-.8.549-1.133.736q-10.141 5.74-20.275 11.487a1.914 1.914 0 0 1-2.17.042c-6.816-3.919-13.664-7.8-20.5-11.687-.25-.142-.482-.32-.863-.574a10.07 10.07 0 0 1 .952-.713l20.537-11.629a1.7 1.7 0 0 1 1.912-.05zm-1.4-2.65a1.942 1.942 0 0 1-1.071 1.9c-6.783 3.99-13.542 8.019-20.31 12.028-.254.15-.525.268-.9.453a6.453 6.453 0 0 1-.168-1.019q.128-11.938.26-23.867a1.621 1.621 0 0 1 .819-1.591q10.489-6.178 20.946-12.413a5.021 5.021 0 0 1 .6-.232c.031.552.074.937.07 1.322-.083 7.806-.187 15.615-.246 23.419zm-21.053 16.225c6.636 3.953 13.264 7.927 19.91 11.868a1.789 1.789 0 0 1 1.051 1.739c.039 7.919.126 15.834.2 23.748 0 .3-.022.593-.032.852a1.478 1.478 0 0 1-.171.111c-.041.016-.1.047-.132.031a8.6 8.6 0 0 1-.8-.389q-10.584-6.312-21.2-12.653c-.077-8.621-.157-17.174-.235-26.033.648.332 1.042.505 1.41.726zm-.506 26.8c6.692 3.85 13.416 7.658 20.125 11.476.338.193.651.428 1.239.81-.656.379-1.072.63-1.491.867q-9.96 5.633-19.909 11.273a1.915 1.915 0 0 1-2.173.142c-6.864-3.951-13.755-7.856-20.636-11.776-.252-.142-.483-.325-.851-.578a10.1 10.1 0 0 1 .973-.734c6.759-3.831 13.538-7.643 20.282-11.509a2.143 2.143 0 0 1 2.441.034zm-46.185 79.544c-.323-.213-.593-.4-.8-.547-.077-8.542-.154-17.085-.236-26 4.171 2.488 8.247 4.923 12.288 7.337v-.052l9.952 5.942.239 25.78c-.54-.095-5.127-2.672-10.043-5.545v-.117c-3.813-2.267-7.599-4.526-11.399-6.793zm.572-28.435c-.226.134-.454.265-.71.413-.219.117-.461.233-.81.4-.036-.618-.075-1.026-.068-1.424.081-7.712.192-15.421.238-23.136a2.284 2.284 0 0 1 1.282-2.242q5.456-3.2 10.894-6.44v-.081l9.015-5.354c.284-.171.606-.287 1.053-.5.047.495.112.867.109 1.234-.086 7.864-.185 15.727-.253 23.587a1.831 1.831 0 0 1-.96 1.814q-4.565 2.681-9.113 5.386v-.007q-5.338 3.179-10.676 6.355zm19.957 13.621q-4.554-2.632-9.13-5.228v-.029q-5.516-3.142-11.036-6.282c-.279-.162-.539-.369-1.019-.7.124-.091.228-.172.332-.254.4-.234.7-.407.989-.571q5.368-3.041 10.733-6.078v-.08q4.6-2.6 9.188-5.223a2.018 2.018 0 0 1 2.3-.035c6.733 3.881 13.5 7.71 20.255 11.558.334.189.644.421 1.231.809-.669.386-1.084.631-1.5.873-6.6 3.725-13.2 7.435-19.781 11.2a2.245 2.245 0 0 1-2.562.041zm1.634 2.693a1.819 1.819 0 0 1 .952-1.816c6.824-4.018 13.621-8.076 20.428-12.117.253-.152.527-.268.955-.482.041.519.107.938.1 1.358-.084 7.8-.186 15.612-.254 23.419a1.82 1.82 0 0 1-.938 1.824c-6.871 4.037-13.719 8.117-20.569 12.179-.211.123-.44.214-.871.421-.027-.6-.064-.983-.059-1.367.089-7.801.19-15.611.257-23.411zm22.426-15.442c-.468-.228-.819-.37-1.142-.561q-10.082-6.013-20.171-12.02a1.808 1.808 0 0 1-1.023-1.758c-.04-7.915-.129-15.832-.194-23.749-.005-.33.043-.664.077-1.147.422.2.731.32 1.011.483q10.144 6.054 20.294 12.1a1.8 1.8 0 0 1 1.028 1.756c.042 7.917.129 15.829.2 23.745.001.339-.045.669-.08 1.155zm-22.465-41.692c.082-7.759.186-15.514.247-23.273a1.931 1.931 0 0 1 1.013-1.932c6.738-3.96 13.449-7.973 20.172-11.967.326-.192.681-.341 1.187-.6.027.62.071 1.1.065 1.575-.082 7.656-.194 15.314-.238 22.974a2.263 2.263 0 0 1-1.271 2.233c-6.573 3.858-13.115 7.772-19.667 11.66-.41.245-.827.482-1.418.827-.041-.642-.094-1.067-.09-1.492zm.364-52.057l-.235-25.715a1.459 1.459 0 0 1 .222-.123.2.2 0 0 1 .135-.022c.266.129.54.249.794.395q10.577 6.312 21.192 12.652c.079 8.637.155 17.218.236 26.145-7.594-4.525-14.92-8.896-22.344-13.327zm.4 1.333c6.9 3.973 13.835 7.9 20.753 11.839.208.118.392.275.721.51a11.08 11.08 0 0 1-.965.707q-10.2 5.786-20.4 11.569a1.809 1.809 0 0 1-2.044.1q-4.768-2.746-9.549-5.462v-.04q-5.3-3.019-10.606-6.033c-.377-.218-.733-.471-1.246-.8.365-.264.606-.481.88-.636q5.484-3.1 10.971-6.211v-.08l5.372-3.034c1.174-.663 2.626-1.485 4.076-2.309a1.8 1.8 0 0 1 2.034-.116zm-1.353-2.549a1.939 1.939 0 0 1-1.034 1.922q-4.631 2.727-9.248 5.476v-.012q-5.324 3.166-10.644 6.336-.232.138-.478.279c-.237.128-.492.25-.807.409a9.3 9.3 0 0 1-.132-1.174c.083-7.865.183-15.726.256-23.59a1.829 1.829 0 0 1 .934-1.831q5.522-3.244 11.02-6.514v-.06l5.223-3.086c1.613-.953 3.242-1.884 5.077-2.947.037.581.087.97.083 1.35-.087 7.818-.19 15.632-.253 23.446zm-22.32 15.594l.271.085c.365.183.695.346.992.524q5.385 3.212 10.775 6.42v-.04q4.659 2.779 9.318 5.554a1.479 1.479 0 0 1 .872 1.394c.047 8.163.126 16.32.191 24.48a6.261 6.261 0 0 1-.1.678c-.525-.269-.921-.442-1.285-.659q-4.425-2.638-8.848-5.282v-.03q-5.526-3.3-11.06-6.587a1.811 1.811 0 0 1-1.012-1.77c-.043-7.856-.128-15.716-.194-23.576-.004-.346.038-.698.077-1.187zm-.009 27.111a2.2 2.2 0 0 1 .483.2q5.774 3.324 11.565 6.613v-.043l8.875 5.051c.333.187.641.413 1.092.71-.438.3-.728.536-1.053.72l-8.914 5.049q-5.759 3.256-11.515 6.519a3.627 3.627 0 0 1-.415.2 2.039 2.039 0 0 1-.256.081c-.016.005-.032.007-.05.011a1.578 1.578 0 0 1-.68-.009 2.186 2.186 0 0 1-.488-.208c-6.863-3.943-13.751-7.841-20.628-11.761-.247-.141-.47-.325-.845-.586.449-.3.778-.569 1.139-.778l20.284-11.478a2.48 2.48 0 0 1 .951-.348h.018a1.765 1.765 0 0 1 .434.062zm-42.176 55.81c5.465 3.265 10.927 6.535 16.415 9.763q.228.145.43.276a2.209 2.209 0 0 1 1.114 2.108c.023 7.667.116 15.336.182 23 0 .46-.032.924-.063 1.543-.5-.26-.907-.455-1.276-.678-6.552-3.908-13.091-7.837-19.664-11.707a2.242 2.242 0 0 1-1.275-2.224c-.02-7.67-.114-15.337-.18-23-.005-.421.025-.846.053-1.39.564.248 2.162 1.122 4.261 2.309zm-4.255-4.723q.126-11.858.258-23.717a1.6 1.6 0 0 1 .805-1.6q10.483-6.187 20.943-12.42a3.088 3.088 0 0 1 .473-.189c.03.508.071.884.065 1.253-.087 7.806-.186 15.614-.256 23.418a1.886 1.886 0 0 1-.613 1.608c-.055.043-.107.086-.17.126-.047.033-.09.065-.143.1-6.87 4.035-13.712 8.12-20.562 12.187-.129.075-.278.148-.451.23l-.222.1a8.365 8.365 0 0 1-.13-1.091zm22.2 14.207c-.02-.006-.042-.017-.063-.025a2.332 2.332 0 0 1-.269-.133c-6.865-3.954-13.76-7.856-20.641-11.777-.253-.144-.483-.327-.86-.581a9.292 9.292 0 0 1 .966-.73c6.762-3.834 13.537-7.649 20.29-11.505a2.546 2.546 0 0 1 1.117-.374 2.134 2.134 0 0 1 1.042.314c6.779 3.9 13.589 7.755 20.383 11.629.281.158.547.362 1.049.7-.456.3-.787.533-1.128.733l-.289.163q-9.957 5.636-19.908 11.275a5.393 5.393 0 0 1-.481.247 1.685 1.685 0 0 1-1 .132 1.891 1.891 0 0 1-.21-.063zm1.85-51.753q10.22 6.083 20.419 12.178a1.456 1.456 0 0 1 .912 1.364c.042 8.218.118 16.428.183 24.643a1.936 1.936 0 0 1-.108.425c-3.749-2.051-7.321-4.31-10.954-6.458-3.7-2.188-7.391-4.414-11.107-6.632-.078-8.616-.156-17.149-.233-25.858a4.99 4.99 0 0 1 .886.343zm-.87-2.958c.086-7.806.185-15.613.252-23.421a1.821 1.821 0 0 1 .961-1.808c6.822-4.014 13.621-8.076 20.428-12.119.22-.128.468-.238.782-.393a8.779 8.779 0 0 1 .119 1.137c-.082 7.859-.187 15.715-.252 23.566a1.824 1.824 0 0 1-.953 1.822c-6.855 4.031-13.689 8.1-20.535 12.16-.2.108-.422.2-.75.353-.027-.551-.063-.925-.054-1.292zm.087 57.379a2.283 2.283 0 0 1 1.279-2.239c6.528-3.828 13.026-7.7 19.533-11.566l1.312-.76a4.694 4.694 0 0 1 .183.978q-.12 12.013-.26 24.032c0 .105-.013.2-.023.295a2.16 2.16 0 0 1-1.023 1.346q-10.347 6.12-20.674 12.271a2.98 2.98 0 0 1-.481.182l-.042-.169c-.021-.533-.049-.958-.041-1.378.081-7.66.19-15.32.239-22.988zm18.176-98.743l-16.943-10.1-.248-.163a1.429 1.429 0 0 1-.727-1.311c-.048-8.165-.129-16.329-.194-24.494a3.059 3.059 0 0 1 .053-.433c.542.217 2.029 1.016 3.987 2.115 5.93 3.538 11.784 7.032 17.677 10.552.194.13.369.249.512.351l.238 25.775a44.819 44.819 0 0 1-4.357-2.288zm-17.971-9.455a2.848 2.848 0 0 1 .544.243c6.732 3.883 13.5 7.708 20.254 11.557.317.178.62.4 1.143.754-.425.29-.733.52-1.043.709l-.38.219c-6.492 3.666-12.995 7.318-19.468 11.019-.106.06-.213.119-.319.18a3.857 3.857 0 0 1-.634.295l-.032.009a2.1 2.1 0 0 1-.463.089 2.34 2.34 0 0 1-1.281-.357c-6.644-3.837-13.329-7.609-20-11.406-.377-.216-.733-.469-1.236-.8.408-.3.689-.549 1.009-.731 6.765-3.837 13.537-7.652 20.289-11.513a2.567 2.567 0 0 1 1.014-.352 2.1 2.1 0 0 1 .6.09zm-1.033-2.483a2.41 2.41 0 0 1-.231 1.16 2.062 2.062 0 0 1-.74.7c-6.812 4-13.6 8.052-20.4 12.085-.188.1-.4.208-.643.329l-.147.068a7.935 7.935 0 0 1-.135-1.132c.082-7.863.2-15.727.243-23.589a2.054 2.054 0 0 1 1.185-2c6.745-3.966 13.465-7.979 20.195-11.967a9.013 9.013 0 0 1 .858-.409c.032.56.069.936.066 1.305-.082 7.828-.181 15.643-.252 23.455zm-13.142 20.87l9.112 5.438c1.906 1.17 3.359 2.1 3.921 2.519.074 8.393.15 16.847.229 25.613a45.305 45.305 0 0 1-4.451-2.341l-16.906-10.084c-.338-.222-.619-.413-.834-.567l-.234-25.684c.915.373 4.841 2.589 9.161 5.111zm-9.158 21.769a1.787 1.787 0 0 1 .362.149q10.495 6.016 21.008 11.987a5.922 5.922 0 0 1 .567.438 6.97 6.97 0 0 1-.759.581l-.1.058-2.4 1.362q-6.805 3.85-13.6 7.718c-1.446.823-2.9 1.64-4.341 2.464a2.672 2.672 0 0 1-1.11.358 2.589 2.589 0 0 1-1.336-.409c-6.592-3.819-13.227-7.56-19.845-11.332-.378-.215-.736-.467-1.251-.8a10.639 10.639 0 0 1 .875-.639q10.335-5.846 20.671-11.7a2.51 2.51 0 0 1 .67-.268 1.712 1.712 0 0 1 .588.038zm-46.37 53.449l.4.195c7.212 4.255 14.193 8.461 21.245 12.658a1.559 1.559 0 0 1 .5.776c.075 8.256.149 16.493.223 24.993-.014.151-.031.315-.048.515-.622-.348-1.025-.566-1.4-.794-6.465-3.858-12.918-7.74-19.406-11.554a2.352 2.352 0 0 1-1.377-2.317c0-7.566-.1-15.134-.168-22.7-.012-.504.012-1.014.031-1.772zm-.035-2.613c.083-7.762.181-15.518.254-23.273a1.817 1.817 0 0 1 .914-1.836c6.908-4.059 13.792-8.173 20.688-12.266a5.582 5.582 0 0 1 .517-.249 4.326 4.326 0 0 1 .17.918c-.08 8-.183 16.008-.253 24.012a1.737 1.737 0 0 1-.216.886c-.025.042-.06.08-.089.119a1.99 1.99 0 0 1-.611.538q-10.29 6.069-20.562 12.181a6.548 6.548 0 0 1-.749.342c-.028-.54-.07-.959-.064-1.373zM-357.8 491.5c-6.64-3.833-13.318-7.6-19.98-11.4-.376-.215-.732-.466-1.247-.8.456-.312.787-.576 1.145-.783l20.284-11.48a2.542 2.542 0 0 1 .95-.349 1.8 1.8 0 0 1 .452.057 2.188 2.188 0 0 1 .486.2c6.862 3.949 13.749 7.847 20.626 11.767.233.13.452.3.864.591-.4.279-.684.507-.991.682-.1.056-.193.11-.29.163q-9.088 5.142-18.169 10.3c-.626.356-1.254.709-1.879 1.065a3.324 3.324 0 0 1-.559.254l-.076.022a1.923 1.923 0 0 1-.371.061 2.314 2.314 0 0 1-1.245-.35zm1.632 2.71a2.06 2.06 0 0 1 1.183-2c6.745-3.965 13.465-7.974 20.195-11.966a8.942 8.942 0 0 1 .825-.393c.016.091.032.167.05.25.026.417.052.731.05 1.039-.087 7.812-.188 15.626-.247 23.44a1.932 1.932 0 0 1-1.056 1.9c-6.743 3.97-13.465 7.979-20.192 11.974-.249.146-.519.273-.889.458l-.056.026c-.046-.5-.106-.9-.1-1.295.081-7.805.191-15.617.237-23.429zm22.271-15.47c-.572-.318-.98-.538-1.37-.773-6.5-3.874-13-7.778-19.522-11.619a2.252 2.252 0 0 1-1.3-2.215c-.018-7.665-.112-15.322-.176-22.989 0-.459.031-.924.058-1.543a11.021 11.021 0 0 1 1.017.495l20.151 12.014a1.679 1.679 0 0 1 1.039 1.6c.037 8.015.128 16.022.2 24.031 0 .267-.049.539-.1 1.003zm-22.303-41.717c.086-7.715.192-15.426.247-23.143a2.158 2.158 0 0 1 1.17-2.153c6.71-3.927 13.385-7.915 20.072-11.883.256-.152.545-.286.9-.467a5.431 5.431 0 0 1 .161.97c-.083 7.96-.184 15.923-.257 23.888a2.158 2.158 0 0 1-.179.922 1.57 1.57 0 0 1-.087.148 1.437 1.437 0 0 1-.14.188 1.741 1.741 0 0 1-.125.139 2.245 2.245 0 0 1-.388.29q-4.27 2.522-8.527 5.063l-4.847 2.876q-3.465 2.06-6.933 4.116c-.252.141-.534.277-.876.449l-.133.059c-.027-.621-.058-1.044-.058-1.462zm22.487-38.9c-3.811-2.076-7.373-4.341-11-6.479-3.706-2.188-7.393-4.41-11.114-6.638l-.235-25.884a7.89 7.89 0 0 1 1.009.437q10.145 6.043 20.295 12.092a1.568 1.568 0 0 1 .912 1.519c.049 8.063.134 16.13.2 24.194.001.184-.032.375-.069.761zm-22.26-11.926a2.846 2.846 0 0 1 .553.246c6.734 3.883 13.5 7.71 20.253 11.555.307.173.6.39 1.072.709a8.16 8.16 0 0 1-.652.537c-.5.29-.962.561-1.413.821l-4.362 2.472q-5.273 2.978-10.536 5.971-2.122 1.2-4.244 2.405a2.9 2.9 0 0 1-1.088.352 2.623 2.623 0 0 1-1.39-.413c-6.55-3.8-13.146-7.522-19.728-11.275-.4-.227-.791-.481-1.292-.791l-.062-.053a8.012 8.012 0 0 1 .865-.682c6.805-3.86 13.625-7.7 20.416-11.582a2.8 2.8 0 0 1 .82-.314 2.12 2.12 0 0 1 .786.045zm-.967-2.247a1.613 1.613 0 0 1-.813 1.591q-10.489 6.179-20.947 12.413a.406.406 0 0 1-.036.018c-.1.045-.221.083-.427.156-.029-.517-.067-.893-.062-1.26.085-7.808.186-15.61.253-23.418a1.826 1.826 0 0 1 .946-1.819q10.3-6.063 20.559-12.192a6.966 6.966 0 0 1 .636-.313 5.315 5.315 0 0 1 .151.956c-.085 7.958-.186 15.918-.263 23.869zm-22.26 15.283c7.467 4.453 14.762 8.807 22.145 13.213l.238 25.938a4.62 4.62 0 0 1-.859-.319q-10.276-6.121-20.55-12.256a1.467 1.467 0 0 1-.869-1.392c-.045-8.165-.127-16.331-.194-24.5a6.518 6.518 0 0 1 .089-.684zm.032 27.278a2.873 2.873 0 0 1 .565.251c6.735 3.883 13.5 7.71 20.254 11.559.31.177.609.395 1.121.738-.373.274-.64.5-.929.672-.162.094-.317.184-.468.269q-8.458 4.778-16.907 9.567l-2.938 1.662a2.771 2.771 0 0 1-1.095.372 2.345 2.345 0 0 1-1.256-.362c-6.645-3.837-13.329-7.612-20-11.408-.378-.216-.737-.465-1.24-.789a11.584 11.584 0 0 1 1.008-.735c6.767-3.835 13.538-7.652 20.286-11.512a2.5 2.5 0 0 1 1.071-.365 2.016 2.016 0 0 1 .527.081zm-45.8 53.651q10.335 6.155 20.663 12.318a1.474 1.474 0 0 1 .857 1.4q.076 12.236.192 24.475a4.345 4.345 0 0 1-.093.6c-.455-.229-.82-.4-1.154-.6-6.632-3.95-13.256-7.925-19.9-11.859a1.9 1.9 0 0 1-1.11-1.858c-.032-7.863-.122-15.721-.189-23.579 0-.338.024-.676.045-1.123a2.637 2.637 0 0 1 .686.226zm-.677-2.96c.084-7.666.19-15.326.241-22.991a2.283 2.283 0 0 1 1.246-2.264c6.626-3.875 13.214-7.813 19.819-11.726.333-.2.694-.363 1.17-.6.03.608.073 1.068.069 1.522-.086 7.665-.192 15.328-.241 22.993a2.274 2.274 0 0 1-1.253 2.25c-6.578 3.862-13.123 7.778-19.678 11.682-.374.22-.757.437-1.3.751-.037-.697-.078-1.161-.077-1.619zm21.515 14.213c-6.642-3.831-13.319-7.6-19.979-11.4-.37-.213-.714-.476-1.254-.844.584-.34.993-.578 1.406-.813 6.678-3.774 13.363-7.528 20.019-11.342a2.381 2.381 0 0 1 1.074-.349 2.334 2.334 0 0 1 1.077.349c6.688 3.856 13.4 7.653 20.112 11.47.369.213.709.475 1.185.8-.5.321-.845.574-1.216.787-6.67 3.78-13.355 7.542-20.008 11.356a2.579 2.579 0 0 1-1.206.385 2.64 2.64 0 0 1-1.214-.399zm1.766 2.721a1.717 1.717 0 0 1 .931-1.678q10.3-6.068 20.558-12.193c.179-.105.389-.2.673-.342a8.046 8.046 0 0 1 .13 1.1c-.081 7.9-.183 15.809-.256 23.718a2.785 2.785 0 0 1-.087.683 1.828 1.828 0 0 1-.791.965q-10.508 6.2-20.994 12.433a1.575 1.575 0 0 1-.353.111c-.027-.431-.067-.759-.063-1.08.082-7.903.18-15.81.248-23.718zm17.645-18.119c-5.922-3.536-11.7-6.987-17.525-10.462q-.12-12.853-.237-25.744c1.224.483 7.834 4.273 13.577 7.691v.04l5.074 3.027c1.692 1.044 2.985 1.873 3.545 2.29.073 8.384.15 16.835.228 25.61a46.987 46.987 0 0 1-4.666-2.452zm-17.751-38.61c.082-7.963.191-15.923.248-23.885a1.95 1.95 0 0 1 1.183-1.845q9.03-5.3 18.04-10.652c.928-.549 1.869-1.087 3.022-1.755.007.082.015.147.023.224.018.567.035.989.03 1.4-.085 7.713-.187 15.425-.241 23.14a1.95 1.95 0 0 1-1.053 1.913c-6.745 3.964-13.465 7.975-20.194 11.968-.257.155-.542.286-.894.461a5.4 5.4 0 0 1-.168-.97zm22.52-39.207c-.571-.32-.979-.539-1.366-.773-6.506-3.879-13-7.778-19.524-11.619a2.254 2.254 0 0 1-1.3-2.213c-.017-7.662-.11-15.324-.174-22.986 0-.464.028-.932.052-1.55a10.848 10.848 0 0 1 1.016.488q10.079 6.006 20.153 12.015a1.693 1.693 0 0 1 1.045 1.6c.035 8.01.125 16.018.192 24.031a9.988 9.988 0 0 1-.094 1.007zm-21.85-11.806q10.363 5.941 20.756 11.833c.208.118.393.276.784.555-.484.317-.8.549-1.134.736q-10.139 5.74-20.275 11.487a2.392 2.392 0 0 1-1.011.347 2.046 2.046 0 0 1-1.01-.3c-6.817-3.919-13.665-7.8-20.5-11.687-.25-.142-.482-.32-.863-.574a9.942 9.942 0 0 1 .952-.713l20.536-11.629a2.2 2.2 0 0 1 .891-.309 1.767 1.767 0 0 1 .874.254zm-1.4-2.65a1.942 1.942 0 0 1-1.07 1.9c-6.783 3.99-13.542 8.019-20.311 12.028-.219.129-.463.242-.766.387a5.34 5.34 0 0 1-.154-.953q.126-11.938.26-23.867a1.622 1.622 0 0 1 .818-1.591q10.489-6.178 20.947-12.413a2.9 2.9 0 0 1 .458-.179c.031.522.071.9.067 1.268-.087 7.807-.192 15.616-.249 23.42zm-21.052 16.225c6.635 3.953 13.264 7.927 19.91 11.868a1.789 1.789 0 0 1 1.051 1.739c.039 7.919.125 15.834.2 23.748.005.3-.022.593-.032.852a1.587 1.587 0 0 1-.17.111l-.025.01a7.961 7.961 0 0 1-.755-.368q-10.584-6.312-21.2-12.653c-.077-8.6-.157-17.126-.234-25.957.549.281.917.448 1.253.65zm-.506 26.8c6.692 3.85 13.416 7.658 20.125 11.476.337.193.651.428 1.24.81-.656.379-1.072.63-1.492.867q-9.959 5.633-19.908 11.273a2.613 2.613 0 0 1-1.195.415 1.907 1.907 0 0 1-.829-.273c-6.864-3.951-13.755-7.856-20.636-11.776-.253-.142-.483-.325-.852-.578a10.223 10.223 0 0 1 .973-.734c6.76-3.831 13.539-7.643 20.282-11.509a2.379 2.379 0 0 1 1.145-.354 2.609 2.609 0 0 1 1.145.388zm-43.788 80.973c-1.457-.905-2.585-1.634-3.152-2.048-.074-8.489-.152-17.043-.231-25.951 7.575 4.525 14.832 8.858 22.189 13.25q.12 12.853.238 25.733c-.977-.376-5.378-2.857-10.042-5.585v-.031zm-3.368-30.573c.084-7.665.2-15.328.234-22.992a2.381 2.381 0 0 1 1.335-2.343c.593-.348 1.185-.7 1.777-1.05 6.076-3.567 12.128-7.177 18.186-10.77a9.2 9.2 0 0 1 .911-.433 11.527 11.527 0 0 1 .1 1.171c-.087 7.864-.186 15.727-.253 23.587a1.832 1.832 0 0 1-.961 1.814c-6.79 3.989-13.553 8.026-20.324 12.045-.255.154-.541.28-.969.486-.022-.656-.044-1.084-.038-1.51zm21.649 14.33c-6.645-3.84-13.329-7.61-20-11.406-.378-.218-.736-.469-1.241-.794.408-.3.687-.552 1-.734 6.763-3.835 13.538-7.65 20.29-11.51a2.5 2.5 0 0 1 1.078-.367 2.211 2.211 0 0 1 1.077.332c6.733 3.881 13.5 7.71 20.254 11.558.335.189.644.421 1.231.809-.668.386-1.084.631-1.5.873-6.6 3.725-13.2 7.435-19.782 11.2a2.806 2.806 0 0 1-1.205.412 2.422 2.422 0 0 1-1.204-.372zm1.634 2.693a1.817 1.817 0 0 1 .952-1.816c6.823-4.018 13.621-8.076 20.429-12.117.22-.133.473-.248.812-.413.04.485.1.889.1 1.289-.084 7.8-.186 15.612-.255 23.419a1.819 1.819 0 0 1-.937 1.824c-6.871 4.037-13.719 8.117-20.569 12.179-.184.108-.391.2-.726.353-.027-.556-.061-.931-.056-1.3.081-7.8.181-15.61.249-23.41zm22.282-15.509c-.392-.187-.713-.325-1-.493q-10.083-6.013-20.171-12.02a1.807 1.807 0 0 1-1.023-1.758c-.04-7.915-.13-15.832-.194-23.749-.005-.313.037-.637.071-1.082.344.158.624.275.868.418q10.142 6.054 20.294 12.1a1.8 1.8 0 0 1 1.028 1.756c.042 7.917.129 15.829.2 23.745.001.319-.04.642-.075 1.087zm-22.322-41.625c.083-7.759.187-15.514.247-23.273a1.934 1.934 0 0 1 1.013-1.932c6.739-3.96 13.449-7.973 20.173-11.967.29-.17.619-.318 1.042-.526.026.582.066 1.046.06 1.5-.082 7.656-.193 15.314-.237 22.974a2.262 2.262 0 0 1-1.272 2.233c-6.572 3.858-13.114 7.772-19.667 11.66-.374.224-.761.446-1.274.744-.042-.592-.09-1.003-.087-1.408zm.364-52.057l-.234-25.715a1.477 1.477 0 0 1 .221-.123h.023c.255.122.514.237.757.376l21.192 12.652.234 26.056c-7.54-4.496-14.82-8.839-22.195-13.241zm.249 1.333c6.9 3.973 13.835 7.9 20.753 11.839.207.118.392.275.72.51a11.071 11.071 0 0 1-.964.707q-10.2 5.786-20.4 11.569a2.589 2.589 0 0 1-.955.358 1.749 1.749 0 0 1-.94-.257c-6.9-3.976-13.832-7.9-20.752-11.839-.191-.112-.374-.263-.749-.535.323-.238.556-.436.805-.582l.24-.139 3.542-2.006q8.409-4.749 16.812-9.508a2.634 2.634 0 0 1 .956-.366 1.71 1.71 0 0 1 .93.253zm-1.353-2.549a1.939 1.939 0 0 1-1.034 1.922c-6.744 3.971-13.462 7.985-20.189 11.981-.257.156-.545.288-.888.457a3.165 3.165 0 0 1-.186-.8c.08-8.065.189-16.124.249-24.188a1.889 1.889 0 0 1 .09-.6 2.083 2.083 0 0 1 1.074-1.1q8.067-4.752 16.122-9.523c1.571-.928 3.159-1.837 4.936-2.864.036.533.081.907.077 1.267-.087 7.824-.19 15.638-.253 23.452zm-21.5 15.9q10.273 6.115 20.536 12.241a1.478 1.478 0 0 1 .871 1.394c.047 8.163.127 16.32.192 24.48a4.944 4.944 0 0 1-.089.61c-.451-.227-.817-.395-1.146-.59-6.632-3.954-13.255-7.928-19.9-11.854a1.913 1.913 0 0 1-1.123-1.857c-.033-7.86-.124-15.72-.191-23.581 0-.332.02-.671.041-1.142a3.932 3.932 0 0 1 .807.299zm-.142 27.083c6.729 3.879 13.488 7.7 20.235 11.548.333.187.641.413 1.092.71-.439.3-.728.536-1.053.72l-20.406 11.56a2.175 2.175 0 0 1-.988.322 1.921 1.921 0 0 1-.9-.28c-6.818-3.92-13.664-7.8-20.5-11.688-.273-.154-.532-.352-.962-.649.395-.27.7-.5 1.022-.7.142-.083.279-.161.413-.238q9.357-5.289 18.707-10.588c.4-.228.805-.455 1.208-.683a2.511 2.511 0 0 1 1.051-.361 2.155 2.155 0 0 1 1.079.327zm-38.566 58.015q4.334 2.588 8.68 5.159c2.047 1.243 3.706 2.278 4.573 2.867a1.908 1.908 0 0 1 .422.737c.078 8.34.154 16.754.232 25.518-.187-.1-.341-.175-.5-.258l-21.172-12.638a1.929 1.929 0 0 1-.58-1.007l-.227-24.894.014-.268c.908.388 4.501 2.419 8.556 4.784zm-8.5-7.216q.125-11.854.257-23.717a1.606 1.606 0 0 1 .8-1.6q10.487-6.184 20.941-12.417l.033-.017c.1-.048.226-.09.449-.172.031.5.069.877.067 1.244-.086 7.854-.189 15.708-.254 23.567a1.719 1.719 0 0 1-.927 1.68q-10.36 6.106-20.689 12.262a5.1 5.1 0 0 1-.548.26 8.133 8.133 0 0 1-.134-1.091zm21.9 14.058c-6.911-3.974-13.844-7.9-20.771-11.848-.212-.123-.407-.271-.758-.513a8.9 8.9 0 0 1 .931-.724q10.209-5.792 20.422-11.572c.115-.065.224-.112.334-.163a1.823 1.823 0 0 1 1.19-.095 2.018 2.018 0 0 1 .375.155q10.3 5.915 20.64 11.771c.283.161.528.394.9.669-.491.319-.837.574-1.207.783l-20.165 11.424a2.5 2.5 0 0 1-1.011.361 1.741 1.741 0 0 1-.886-.248zm1.372 2.373a2.012 2.012 0 0 1 .051-.353 2.1 2.1 0 0 1 .85-1.192c.083-.054.158-.11.249-.163q8.064-4.749 16.119-9.522c1.566-.924 3.151-1.832 4.953-2.877l.032.14c.023.558.053.984.048 1.4-.086 7.661-.2 15.326-.241 22.989a2.28 2.28 0 0 1-1.277 2.238c-6.58 3.86-13.12 7.778-19.681 11.681-.323.192-.666.388-1.079.624l-.08.029a4.712 4.712 0 0 1-.192-.961c.075-8.009.184-16.023.242-24.031zm22.237-15.3c-.365-.2-.719-.407-1.081-.609-7.116-4.247-14.065-8.4-21.032-12.555-.077-8.6-.156-17.133-.234-25.873.079.028.15.051.225.075a5.073 5.073 0 0 1 .781.348c6.768 4.028 13.524 8.077 20.3 12.089a1.571 1.571 0 0 1 .913 1.519c.051 8.066.136 16.129.2 24.2-.001.179-.034.37-.077.808zm-22.325-41.845c.082-7.656.2-15.314.238-22.972a2.267 2.267 0 0 1 1.267-2.238c6.534-3.831 13.026-7.718 19.535-11.588.219-.131.439-.259.678-.4.208-.111.433-.214.731-.363.043.56.092.962.086 1.352-.08 7.758-.184 15.513-.248 23.27a1.943 1.943 0 0 1-.992 1.949c-6.827 4.005-13.629 8.062-20.442 12.1a8.3 8.3 0 0 1-.82.391c-.023-.643-.045-1.069-.039-1.496zm14.647-43.268q-5.385-3.212-10.772-6.419c-1.446-.894-2.6-1.633-3.277-2.1a1.261 1.261 0 0 1-.234-.437l-.233-25.283.02-.132c.817.327 3.764 1.963 7.277 3.99l12.476 7.447c1.1.692 1.97 1.255 2.475 1.617q.115 12.772.235 25.706c-.841-.325-4.14-2.165-7.973-4.385zm-13.648-7.01c6.606 3.805 13.244 7.555 19.868 11.33.414.237.809.506 1.374.863-.511.346-.848.609-1.213.818q-10.086 5.705-20.172 11.416a2.841 2.841 0 0 1-.824.319 2 2 0 0 1-.7-.036 2.335 2.335 0 0 1-.5-.213c-6.822-3.921-13.671-7.8-20.511-11.7a11.1 11.1 0 0 1-.92-.655c.354-.262.622-.488.909-.658.083-.049.165-.095.245-.14 6.677-3.786 13.37-7.548 20.027-11.366a3.331 3.331 0 0 1 .635-.284c.043-.013.084-.017.126-.029a2.049 2.049 0 0 1 .378-.056 2.548 2.548 0 0 1 1.273.395zm-1.738-2.829a1.937 1.937 0 0 1-1.053 1.911c-6.745 3.966-13.466 7.978-20.194 11.971-.258.151-.546.286-.912.47a8.2 8.2 0 0 1-.137-1.134c.084-7.864.186-15.727.253-23.588a2.034 2.034 0 0 1 .517-1.506c.016-.016.026-.035.043-.05a2.57 2.57 0 0 1 .391-.294c.046-.031.082-.063.132-.093 6.778-3.986 13.531-8.016 20.294-12.029.182-.1.392-.195.682-.324l.17-.07c.031.55.068.927.063 1.3-.089 7.817-.194 15.63-.254 23.44zm-17.48 18.339l16.413 9.8q.612.4.947.642.115 12.822.236 25.658c-.829-.318-4.131-2.158-7.963-4.374l-11.016-6.571c-1.492-.926-2.647-1.67-3.217-2.089l-.231-25.644c.423.13 2.307 1.152 4.826 2.582zm-4.228 24.588c6.775 3.9 13.576 7.75 20.367 11.617.294.17.568.368.991.64a8.123 8.123 0 0 1-.837.642l-20.658 11.721a2.744 2.744 0 0 1-.375.172 2.077 2.077 0 0 1-1.168-.049 2.26 2.26 0 0 1-.222-.1q-10.361-5.941-20.755-11.834c-.193-.108-.375-.258-.753-.533.32-.24.549-.433.794-.579.131-.075.256-.149.379-.218q10.121-5.725 20.242-11.455a2.409 2.409 0 0 1 .943-.323 1.979 1.979 0 0 1 1.047.303zm-45.779 53.81q9.957 5.93 19.91 11.868a1.794 1.794 0 0 1 1.07 1.732c.033 7.915.126 15.828.19 23.741 0 .313-.045.634-.089 1.159-7.247-4.322-14.328-8.549-21.448-12.8a2.018 2.018 0 0 1-.651-1.069l-.224-25.073c0-.064 0-.121.005-.19.534.274.898.436 1.233.636zm-1.222-3.5c.084-7.606.192-15.212.237-22.822a2.28 2.28 0 0 1 1.25-2.249q6.972-4.085 13.907-8.238l6.051-3.6.434-.252c.145-.077.307-.147.547-.258a9.709 9.709 0 0 1 .112 1.173c-.083 7.854-.185 15.708-.25 23.568a1.822 1.822 0 0 1-.978 1.8c-6.824 4.014-13.626 8.069-20.438 12.1a9.336 9.336 0 0 1-.844.409c-.017-.675-.04-1.148-.032-1.624zm22.329 14.822a2.291 2.291 0 0 1-.459-.2q-10.225-5.872-20.5-11.687c-.269-.155-.529-.35-.968-.647.414-.288.73-.531 1.061-.727l.367-.21q9.946-5.621 19.895-11.259a2.611 2.611 0 0 1 1.071-.376 2.124 2.124 0 0 1 1.078.32c6.726 3.881 13.489 7.7 20.234 11.545.331.19.642.418 1.095.716-.425.3-.716.533-1.039.717q-10.2 5.783-20.4 11.559a2.571 2.571 0 0 1-.747.291 1.936 1.936 0 0 1-.692-.035zm.943 2.533a2.175 2.175 0 0 1 .782-1.882c.085-.064.169-.129.269-.192.041-.026.075-.053.119-.079 6.752-3.952 13.468-7.972 20.2-11.964a4.055 4.055 0 0 1 .4-.2l.382-.171a5.617 5.617 0 0 1 .152.961c-.084 7.966-.183 15.927-.253 23.891a1.718 1.718 0 0 1-.922 1.682q-10.3 6.072-20.578 12.2c-.181.1-.388.193-.736.354-.027-.619-.063-1.043-.059-1.458.076-7.707.181-15.421.24-23.135zm22.274-15.616c-.568-.317-.973-.535-1.361-.769-6.506-3.88-13-7.779-19.525-11.616a2.26 2.26 0 0 1-1.306-2.211c-.025-7.665-.114-15.32-.178-22.987-.005-.465.026-.933.047-1.555a10.108 10.108 0 0 1 1.01.478q10.079 6.008 20.157 12.012a1.808 1.808 0 0 1 1.05 1.745c.034 7.91.124 15.821.189 23.732 0 .322-.046.649-.088 1.178zm-22.315-41.467c.083-7.866.183-15.728.258-23.588a2.635 2.635 0 0 1 .163-.985 1.7 1.7 0 0 1 .117-.209 1.544 1.544 0 0 1 .087-.128 2.036 2.036 0 0 1 .2-.223 2.079 2.079 0 0 1 .369-.282c6.828-4.012 13.63-8.071 20.443-12.106.157-.084.333-.177.526-.272l.318-.137.027.132c.019.554.044.955.041 1.35-.087 7.711-.19 15.424-.253 23.139a2.051 2.051 0 0 1-1.08 2.054c-6.7 3.933-13.379 7.932-20.065 11.9-.291.174-.616.323-1.024.527a9.526 9.526 0 0 1-.132-1.165zm21.358-39.746c-7.139-4.256-14.045-8.379-20.988-12.524l-.232-25.906c.34.143.609.244.849.354l20.967 12.511a1.374 1.374 0 0 1 .38.568c.075 8.489.152 16.924.233 25.677-.415-.215-.815-.447-1.215-.673zm-20.357-10.977c6.6 3.819 13.242 7.568 19.865 11.341.385.218.748.461 1.25.777a6.4 6.4 0 0 1-.818.67q-10.337 5.867-20.681 11.72a3.08 3.08 0 0 1-.3.145 2.149 2.149 0 0 1-1.338-.06q-10.559-6.055-21.14-12.077a4.342 4.342 0 0 1-.472-.382c.206-.169.382-.314.545-.44a4.338 4.338 0 0 1 .382-.253c6.378-3.614 12.767-7.208 19.13-10.854.345-.2.692-.393 1.037-.59a3.66 3.66 0 0 1 .653-.3l.086-.025a2.19 2.19 0 0 1 .4-.065 2.541 2.541 0 0 1 1.397.4zm-1.739-2.594a1.609 1.609 0 0 1-.826 1.581q-10.486 6.184-20.947 12.417a3.325 3.325 0 0 1-.458.172c-.028-.528-.063-.906-.057-1.279.086-7.807.187-15.613.251-23.42a1.826 1.826 0 0 1 .961-1.812c6.823-4.014 13.623-8.075 20.431-12.116.217-.127.463-.24.758-.382a5.711 5.711 0 0 1 .145.969c-.088 7.96-.189 15.919-.262 23.877zm-22.26 15.269c7.464 4.455 14.763 8.808 22.144 13.214l.239 25.934a4.472 4.472 0 0 1-.859-.319q-10.277-6.123-20.549-12.253a1.471 1.471 0 0 1-.87-1.394c-.044-8.166-.124-16.331-.189-24.5a5.714 5.714 0 0 1 .08-.675zm.74 27.612c6.651 3.833 13.333 7.608 20 11.407.374.212.727.465 1.228.792a12.235 12.235 0 0 1-1.022.74q-10.214 5.782-20.432 11.558a3.46 3.46 0 0 1-.431.21 1.982 1.982 0 0 1-1.148-.033 1.568 1.568 0 0 1-.182-.075q-4.173-2.4-8.359-4.767v.035q-6.027-3.435-12.058-6.862c-.378-.216-.736-.465-1.24-.789a11.771 11.771 0 0 1 1.007-.735q6.147-3.484 12.291-6.964 3.969-2.25 7.933-4.508a2.626 2.626 0 0 1 1.205-.4 2.539 2.539 0 0 1 1.204.398zm-46.409 53.336q10.335 6.155 20.663 12.318a1.473 1.473 0 0 1 .856 1.4q.077 12.236.192 24.475a5.342 5.342 0 0 1-.1.669c-.53-.27-.922-.45-1.292-.671-6.631-3.95-13.256-7.925-19.9-11.859a1.9 1.9 0 0 1-1.11-1.858c-.032-7.863-.123-15.721-.19-23.579 0-.348.026-.692.047-1.16a3.9 3.9 0 0 1 .829.272zm-.827-2.96c.085-7.666.191-15.326.242-22.991a2.282 2.282 0 0 1 1.245-2.264c6.627-3.875 13.215-7.813 19.819-11.726.368-.218.761-.392 1.315-.676.03.646.077 1.122.072 1.6-.085 7.665-.192 15.328-.24 22.993a2.273 2.273 0 0 1-1.254 2.25c-6.577 3.862-13.122 7.778-19.678 11.682-.406.24-.818.472-1.442.835-.04-.743-.085-1.22-.084-1.698zm21.516 14.213c-6.643-3.831-13.319-7.6-19.979-11.4-.37-.213-.714-.476-1.254-.844.583-.34.994-.578 1.406-.813 6.677-3.774 13.363-7.528 20.019-11.342a2.014 2.014 0 0 1 2.3 0q6.354 3.663 12.733 7.275v.025l7.61 4.332c.246.142.47.322.936.645l-.09.06c-.551.318-.919.531-1.281.737l-7.175 4.064v.071q-6.339 3.585-12.661 7.2a2.248 2.248 0 0 1-2.569-.003zm1.765 2.721a1.718 1.718 0 0 1 .932-1.678q6.351-3.741 12.678-7.519v.01q3.637-2.164 7.276-4.326c.218-.132.438-.259.677-.4.187-.1.394-.2.711-.357.033.6.072 1.013.066 1.416-.081 7.758-.189 15.517-.25 23.271a1.931 1.931 0 0 1-1.041 1.914q-3.8 2.235-7.587 4.492v.073l-13.146 7.785a3.074 3.074 0 0 1-.5.152c-.028-.455-.07-.788-.066-1.121.08-7.891.178-15.798.245-23.706zm14.278-20.13c-4.751-2.837-9.446-5.641-14.158-8.451q-.12-12.877-.237-25.793c.669.131 7.568 4.077 13.578 7.652v.128l7.774 4.639c.373.244.672.447.89.6q.114 12.816.236 25.655c-.841-.305-4.202-2.174-8.088-4.423zm-14.383-36.6c.082-7.963.19-15.923.248-23.885a1.947 1.947 0 0 1 1.183-1.845q9.03-5.3 18.04-10.652c.875-.518 1.77-1.031 2.836-1.649l.188-.087c.042.5.108.908.1 1.3-.082 7.813-.181 15.627-.253 23.436a1.83 1.83 0 0 1-.931 1.831q-3.931 2.311-7.848 4.645v.074q-6.182 3.665-12.36 7.336c-.291.176-.6.313-1.029.527a6.426 6.426 0 0 1-.179-1.024zm.819-51.012q6.365 3.648 12.746 7.266v.048l7.716 4.4c.29.161.552.366 1.049.7l-.01.006-1.388.809q-3.685 2.082-7.366 4.172v.07q-6.311 3.57-12.615 7.147a1.912 1.912 0 0 1-2.169.042c-6.817-3.919-13.665-7.8-20.5-11.687-.249-.142-.482-.32-.863-.574a10.078 10.078 0 0 1 .952-.713l20.537-11.629a1.7 1.7 0 0 1 1.906-.05zm-1.4-2.65a1.942 1.942 0 0 1-1.071 1.9c-6.783 3.99-13.542 8.019-20.31 12.028-.254.15-.523.268-.9.453a6.332 6.332 0 0 1-.167-1.019q.126-11.938.259-23.867a1.623 1.623 0 0 1 .819-1.591q10.489-6.178 20.946-12.413a5.1 5.1 0 0 1 .6-.232c.031.552.074.937.07 1.322-.086 7.813-.195 15.622-.248 23.426zm-21.053 16.225c6.636 3.953 13.264 7.927 19.911 11.868a1.791 1.791 0 0 1 1.051 1.739c.039 7.919.124 15.834.2 23.748 0 .3-.022.593-.032.852a1.592 1.592 0 0 1-.17.111c-.04.016-.1.047-.132.031a8.489 8.489 0 0 1-.8-.389q-10.584-6.312-21.2-12.653c-.077-8.621-.157-17.174-.234-26.033.642.339 1.037.512 1.403.733zm-.506 26.8c6.692 3.85 13.417 7.658 20.125 11.476.338.193.651.428 1.24.81-.656.379-1.071.63-1.491.867q-9.96 5.633-19.909 11.273a1.915 1.915 0 0 1-2.173.142c-6.864-3.951-13.755-7.856-20.636-11.776-.252-.142-.482-.325-.851-.578a10.1 10.1 0 0 1 .973-.734c6.759-3.831 13.538-7.643 20.282-11.509a2.143 2.143 0 0 1 2.437.041zm-24.025 67.438a1.819 1.819 0 0 1 .952-1.816c6.824-4.018 13.622-8.076 20.429-12.117.253-.152.527-.268.955-.482.041.519.107.938.1 1.358-.084 7.8-.186 15.612-.254 23.419a1.819 1.819 0 0 1-.938 1.824c-6.871 4.037-13.719 8.117-20.568 12.179-.212.123-.44.214-.872.421-.027-.6-.064-.983-.059-1.367.09-7.809.19-15.619.255-23.419zm-1.634-2.693c-6.644-3.84-13.329-7.61-20-11.406-.378-.218-.737-.469-1.242-.794.409-.3.688-.552 1.006-.734 6.763-3.835 13.538-7.65 20.289-11.51a2.02 2.02 0 0 1 2.306-.035c6.732 3.881 13.5 7.71 20.254 11.558.334.189.644.421 1.231.809-.668.386-1.084.631-1.5.873-6.6 3.725-13.2 7.435-19.781 11.2a2.245 2.245 0 0 1-2.563.032zm24.06-12.749c-.468-.228-.819-.37-1.142-.561q-10.082-6.013-20.171-12.02a1.806 1.806 0 0 1-1.022-1.758c-.041-7.915-.13-15.832-.2-23.749-.005-.33.043-.664.077-1.147.422.2.732.32 1.011.483q10.144 6.054 20.294 12.1a1.8 1.8 0 0 1 1.028 1.756c.042 7.917.129 15.829.2 23.745.007.331-.04.661-.075 1.147zm-22.465-41.692c.082-7.759.186-15.514.247-23.273a1.932 1.932 0 0 1 1.013-1.932c6.738-3.96 13.449-7.973 20.173-11.967.325-.192.679-.341 1.186-.6.028.62.071 1.1.065 1.575-.082 7.656-.194 15.314-.238 22.974a2.261 2.261 0 0 1-1.271 2.233c-6.573 3.858-13.114 7.772-19.667 11.66-.41.245-.827.482-1.418.827-.041-.65-.094-1.075-.09-1.5zm.364-52.057l-.234-25.715a1.47 1.47 0 0 1 .221-.123.2.2 0 0 1 .135-.022c.267.129.54.249.795.395q10.575 6.312 21.191 12.652c.079 8.637.155 17.218.236 26.145-7.593-4.533-14.921-8.904-22.344-13.335zm.4 1.333c6.9 3.973 13.835 7.9 20.753 11.839.207.118.391.275.72.51a11.073 11.073 0 0 1-.965.707q-10.2 5.786-20.4 11.569a1.809 1.809 0 0 1-2.043.1c-6.9-3.976-13.833-7.9-20.753-11.839-.206-.121-.392-.28-.834-.6.576-.336.952-.558 1.328-.772q10.082-5.7 20.158-11.4a1.8 1.8 0 0 1 2.033-.118zm-2.638 51.481c-6.633-3.954-13.255-7.928-19.9-11.854a1.916 1.916 0 0 1-1.123-1.857c-.033-7.86-.123-15.72-.19-23.581 0-.345.022-.689.043-1.188a5.733 5.733 0 0 1 .961.346q10.273 6.115 20.535 12.241a1.479 1.479 0 0 1 .872 1.394c.047 8.163.126 16.32.191 24.48a6.236 6.236 0 0 1-.1.678c-.532-.273-.928-.446-1.292-.663zm-21.132 16.363a2.383 2.383 0 0 1 1.351-2.355c6.67-3.9 13.3-7.867 19.948-11.808.285-.171.606-.287 1.053-.5.047.495.112.867.109 1.234-.086 7.864-.185 15.727-.252 23.587a1.834 1.834 0 0 1-.961 1.814c-6.791 3.989-13.553 8.026-20.325 12.045-.285.172-.594.3-1.115.557-.021-.7-.048-1.144-.042-1.585.08-7.666.196-15.329.231-22.993zm-.02 51.514l-.232-26.041C-649.3 484.218-642 488.578-634.6 493q.121 12.877.239 25.78c-1.105-.197-19.375-10.911-22.339-13.08zm-.364 52.152c.082-7.755.189-15.511.248-23.269a1.934 1.934 0 0 1 1.028-1.92c6.737-3.968 13.449-7.978 20.175-11.966.322-.2.671-.341 1.151-.576.034.568.089 1 .085 1.425-.085 7.71-.2 15.417-.241 23.123a2.269 2.269 0 0 1-1.282 2.231c-6.531 3.833-13.029 7.715-19.535 11.585-.456.269-.911.529-1.536.89-.045-.665-.099-1.095-.094-1.524zm44.284 2.681q-10.208 5.789-20.422 11.567a1.692 1.692 0 0 1-1.909.1q-10.432-5.985-20.9-11.925c-.2-.114-.374-.277-.728-.541.477-.315.751-.524 1.047-.693 6.678-3.785 13.372-7.543 20.029-11.365a2.465 2.465 0 0 1 2.832-.006c6.556 3.8 13.151 7.516 19.735 11.264.414.239.813.507 1.376.859-.448.316-.738.557-1.061.739zm-20.888-14.438q-.12-12.892-.235-25.811c1.289.317 18.646 10.5 22.339 13.074.08 8.509.156 17.105.238 26.067l-22.343-13.331zm21.674-14.185q-10.293-5.912-20.629-11.758c-.247-.142-.471-.326-.843-.588.447-.308.781-.568 1.14-.777q10.144-5.737 20.284-11.478a1.8 1.8 0 0 1 2.039-.083c6.86 3.948 13.749 7.845 20.623 11.763.249.141.472.321.945.652-.561.322-.9.525-1.241.718q-10.144 5.731-20.28 11.479a1.8 1.8 0 0 1-2.039.072zm1.135 26.133c.082-7.86.184-15.726.257-23.586a1.831 1.831 0 0 1 .933-1.835c6.873-4.044 13.721-8.131 20.578-12.2a9.058 9.058 0 0 1 .866-.369c.027.594.064.985.06 1.377q-.128 11.725-.252 23.44a1.83 1.83 0 0 1-.939 1.824q-10.25 6.025-20.455 12.122c-.244.144-.512.253-.911.448a10.341 10.341 0 0 1-.138-1.221zm43.948 2.713q-3.5 1.979-7 3.954v.075q-6.416 3.62-12.818 7.264a2.12 2.12 0 0 1-2.434.024c-6.688-3.862-13.414-7.659-20.126-11.478-.342-.193-.663-.419-1.119-.711a6.222 6.222 0 0 1 .79-.668q10.332-5.864 20.679-11.724a1.6 1.6 0 0 1 1.782-.091q6.615 3.792 13.247 7.564V555l7.164 4.08c.367.211.7.474 1.26.854-.605.347-1.014.59-1.426.822zm1.67-1.57c-.182-.06-.344-.11-.494-.164l-8.024-4.787v.054q-6.428-3.836-12.858-7.667a1.474 1.474 0 0 1-.867-1.4q-.07-12.247-.2-24.5a3.608 3.608 0 0 1 .057-.436c.652.095 7.607 4.054 13.715 7.7v.16q3.752 2.241 7.511 4.477a1.806 1.806 0 0 1 1.029 1.752c.039 7.918.129 15.832.2 23.748-.001.294-.035.596-.07 1.063zm.369-27.126c-.033 0-.067 0-.1-.005a2.494 2.494 0 0 1-.452-.1 3.519 3.519 0 0 1-.7-.315c-2.538-1.474-5.09-2.923-7.638-4.379v.04q-6-3.425-12-6.839c-.465-.263-.922-.533-1.543-.9a11.8 11.8 0 0 1 1.035-.773q6.255-3.544 12.511-7.086 3.893-2.209 7.784-4.421c.062-.033.124-.062.185-.091l.2-.092a2.022 2.022 0 0 1 1.343-.09 2.887 2.887 0 0 1 .485.215c6.777 3.905 13.588 7.756 20.386 11.625.288.166.553.377 1.05.729-1.236.715-2.253 1.318-3.281 1.9-5.945 3.363-11.91 6.7-17.837 10.105a2.952 2.952 0 0 1-1.43.477zm.326 26.225c.083-8.014.192-16.023.248-24.038a1.93 1.93 0 0 1 .05-.337 2.19 2.19 0 0 1 .917-1.239c.065-.041.121-.085.19-.124q8.07-4.746 16.12-9.523c1.575-.93 3.166-1.836 4.937-2.863.045.465.1.785.1 1.1-.087 7.912-.193 15.826-.253 23.738a1.829 1.829 0 0 1-1.03 1.776q-10.176 6-20.315 12.065c-.219.13-.466.241-.776.39a4.334 4.334 0 0 1-.189-.944zm44.139 2.193l-20.4 11.567a2.31 2.31 0 0 1-1 .342 1.824 1.824 0 0 1-.894-.264c-6.859-3.946-13.748-7.847-20.623-11.764-.249-.143-.473-.328-.949-.656.677-.391 1.143-.669 1.615-.933q9.216-5.207 18.421-10.429c.455-.259.911-.514 1.366-.773a3.345 3.345 0 0 1 .56-.255l.071-.023a1.89 1.89 0 0 1 .383-.064 2.265 2.265 0 0 1 1.241.349c6.638 3.835 13.315 7.6 19.98 11.4.373.215.73.465 1.245.791-.416.289-.701.534-1.017.713zm.418-1.777q-10.073-6.011-20.15-12.006a1.8 1.8 0 0 1-1.034-1.747c-.037-7.859-.123-15.719-.19-23.577 0-.35.042-.7.083-1.246.219.114.417.215.594.306l20.946 12.5a1.928 1.928 0 0 1 .556.844l.233 25.486c-.488-.261-.775-.399-1.039-.561zm1.479-26.534a2.185 2.185 0 0 1-1.079-.332c-6.735-3.882-13.5-7.706-20.253-11.554-.324-.188-.634-.413-1.067-.7.107-.094.2-.184.295-.269a5.635 5.635 0 0 1 .675-.477q8.428-4.78 16.856-9.563 1.744-.99 3.489-1.978a3.327 3.327 0 0 1 .473-.22c.021-.008.042-.02.063-.028a1.879 1.879 0 0 1 .439-.082 2.131 2.131 0 0 1 1.123.33c6.735 3.883 13.5 7.707 20.255 11.555.317.182.621.408 1.153.764l.06.052c-.614.358-.987.579-1.367.792-6.68 3.774-13.371 7.535-20.037 11.344a2.533 2.533 0 0 1-1.078.366zm.177 25.527c.089-7.708.189-15.416.253-23.122a2.421 2.421 0 0 1 .294-1.323c.021-.031.042-.06.065-.089a1.714 1.714 0 0 1 .21-.232 2.431 2.431 0 0 1 .392-.294l.019-.013c6.784-3.985 13.539-8.023 20.3-12.037.052-.031.111-.058.165-.087.218-.11.451-.22.73-.356a10.067 10.067 0 0 1 .112 1.147c-.084 7.856-.188 15.712-.252 23.57a1.818 1.818 0 0 1-.974 1.8q-10.24 6.022-20.438 12.106c-.219.13-.468.234-.833.4-.017-.621-.046-1.049-.043-1.47zm45.028 2.363c-.459.268-.816.478-1.171.676-6.632 3.751-13.276 7.484-19.887 11.276a2.353 2.353 0 0 1-1.316.358 2.751 2.751 0 0 1-1.095-.38c-6.642-3.832-13.317-7.6-19.981-11.4-.37-.21-.711-.478-1.175-.8.5-.319.856-.572 1.231-.786q8.368-4.735 16.734-9.477 1.712-.97 3.425-1.937c.066-.038.127-.06.19-.092a3.036 3.036 0 0 1 .334-.151 1.831 1.831 0 0 1 .186-.046 1.767 1.767 0 0 1 .312-.048 2.352 2.352 0 0 1 1.116.351c6.687 3.854 13.4 7.654 20.11 11.473.362.209.7.469 1.211.813-.08.064-.149.113-.224.17zm.556-.912a3.963 3.963 0 0 1-.8-.288q-10.273-6.12-20.536-12.242a1.481 1.481 0 0 1-.873-1.4c-.049-8.155-.128-16.316-.192-24.477a5.228 5.228 0 0 1 .089-.616c.45.227.814.395 1.142.591q9.953 5.933 19.9 11.865a3.017 3.017 0 0 1 .754.585c.026.033.058.065.083.1a1.63 1.63 0 0 1 .3 1.009c.029 8.007.125 16.019.193 24.031-.001.237-.033.479-.06.842zm.324-27.087a2.82 2.82 0 0 1-1.229-.416c-6.6-3.814-13.228-7.562-19.846-11.335-.375-.215-.733-.468-1.244-.8.375-.268.618-.476.894-.634l20.668-11.7a3.212 3.212 0 0 1 .351-.167 1.509 1.509 0 0 1 .951-.048 1.782 1.782 0 0 1 .328.136q10.495 6.013 21.007 11.99a6.65 6.65 0 0 1 .649.515c-.611.353-1.032.6-1.46.843-6.585 3.73-13.187 7.438-19.747 11.214a2.6 2.6 0 0 1-1.322.402zm.445 27.2c-.041-.591-.087-1-.082-1.4.082-7.755.188-15.511.248-23.269a1.931 1.931 0 0 1 1.027-1.92c6.738-3.968 13.449-7.978 20.175-11.966.287-.174.608-.316 1.009-.508.033.531.083.946.079 1.356-.084 7.71-.2 15.417-.24 23.123a2.272 2.272 0 0 1-1.286 2.229c-6.531 3.833-13.029 7.715-19.534 11.585-.378.224-.763.444-1.237.718zm44.053 1.278q-10.209 5.789-20.421 11.567a2.408 2.408 0 0 1-.9.338 1.616 1.616 0 0 1-.863-.236q-10.432-5.985-20.9-11.925a7.307 7.307 0 0 1-.666-.493 8.159 8.159 0 0 1 .793-.624c.065-.041.128-.081.191-.117 6.68-3.785 13.372-7.543 20.028-11.365a2.907 2.907 0 0 1 1.34-.438 2.79 2.79 0 0 1 1.344.432c6.557 3.8 13.152 7.516 19.735 11.264.414.239.814.507 1.377.859-.447.311-.731.552-1.058.734zm-20.74-14.438q-.119-12.866-.234-25.759c2.1.831 18.6 10.525 22.19 13.022.08 8.481.156 17.048.238 25.978zm22.613-13.915a1.812 1.812 0 0 1-.939-.27q-10.291-5.912-20.628-11.758c-.248-.142-.471-.326-.844-.588.448-.308.782-.568 1.14-.777q10.145-5.737 20.284-11.478a2.483 2.483 0 0 1 .953-.348 1.786 1.786 0 0 1 .937.265c6.86 3.948 13.749 7.845 20.624 11.763.248.141.472.321.945.652-.561.322-.9.525-1.241.718q-10.142 5.731-20.28 11.479a2.407 2.407 0 0 1-.952.339zm.2 25.863c.082-7.86.184-15.726.257-23.586a1.831 1.831 0 0 1 .933-1.835c6.874-4.044 13.721-8.131 20.578-12.2a6.151 6.151 0 0 1 .72-.309c.027.558.061.939.057 1.316q-.128 11.725-.251 23.44a1.831 1.831 0 0 1-.94 1.824q-10.25 6.025-20.455 12.122c-.21.124-.455.231-.771.382a9.106 9.106 0 0 1-.133-1.157zm43.9 2.739c-6.642 3.751-13.289 7.487-19.913 11.269a2.6 2.6 0 0 1-1.139.384 2.335 2.335 0 0 1-1.147-.36c-6.687-3.862-13.414-7.659-20.126-11.478-.341-.193-.663-.419-1.119-.711a6.16 6.16 0 0 1 .791-.668q10.332-5.864 20.678-11.724a2.253 2.253 0 0 1 .838-.309 1.527 1.527 0 0 1 .8.218q10.565 6.055 21.153 12.078a5.483 5.483 0 0 1 .586.49c-.585.333-.994.575-1.41.808zm1.721-1.6a4.373 4.373 0 0 1-.827-.311q-10.279-6.124-20.549-12.254a1.474 1.474 0 0 1-.867-1.4q-.07-12.247-.2-24.5a2.9 2.9 0 0 1 .052-.394c1.207.448 7.88 4.256 13.72 7.743v.071q2.731 1.631 5.465 3.258c1.074.672 1.982 1.256 2.633 1.7a1.56 1.56 0 0 1 .371.671l.228 25.05c-.014.118-.024.235-.034.367zm.312-27.122a3.147 3.147 0 0 1-1.361-.47c-6.465-3.753-12.977-7.425-19.472-11.128-.466-.263-.922-.533-1.543-.9a11.828 11.828 0 0 1 1.034-.773c6.722-3.808 13.457-7.6 20.16-11.436a2.713 2.713 0 0 1 1.247-.4 2.488 2.488 0 0 1 1.174.366c6.646 3.838 13.329 7.614 20 11.408.379.214.734.465 1.353.863-1.266.734-2.28 1.333-3.305 1.915-5.142 2.907-10.293 5.8-15.418 8.736-.793.452-1.589.9-2.38 1.353a2.9 2.9 0 0 1-1.497.468zm.4 27.106c-.032-.585-.066-1.007-.063-1.412.083-7.668.2-15.33.232-22.995a2.37 2.37 0 0 1 1.375-2.338c6.555-3.836 13.077-7.733 19.61-11.6l.162-.093c.313-.18.657-.342 1.125-.576v.029c.017.657.043 1.085.038 1.5-.086 7.667-.193 15.326-.242 22.994a2.278 2.278 0 0 1-1.247 2.251l-.093.056c-6.549 3.841-13.062 7.741-19.588 11.626-.171.1-.346.2-.534.311-.211.112-.44.217-.748.37-.012-.044-.023-.079-.033-.121zm44.072 1.327l-20.4 11.571a3.5 3.5 0 0 1-.383.184 2.1 2.1 0 0 1-.279.095l-.022.005a1.562 1.562 0 0 1-.7.01 2.239 2.239 0 0 1-.509-.215c-6.86-3.946-13.745-7.845-20.623-11.764-.251-.144-.473-.326-.952-.658.588-.344.966-.565 1.351-.785l20.154-11.4a2.939 2.939 0 0 1 .741-.3 1.923 1.923 0 0 1 .741.04 2.076 2.076 0 0 1 .406.169c6.863 3.947 13.751 7.845 20.627 11.761.248.142.475.32.854.581-.407.284-.693.526-1.012.71zm1.406-1.211c-.151-.081-.285-.15-.4-.211l-21.3-12.71a1.589 1.589 0 0 1-.445-.678l-.232-25.559c.562.293.966.483 1.338.71 6.545 3.9 13.076 7.829 19.644 11.691a2.242 2.242 0 0 1 1.25 2.236c.023 7.608.115 15.219.183 22.828-.003.465-.026.943-.044 1.694zm.482-27.113a2.36 2.36 0 0 1-1.146-.358c-6.689-3.864-13.415-7.661-20.125-11.486-.339-.191-.664-.415-1.119-.707a6.232 6.232 0 0 1 .789-.666q10.337-5.867 20.68-11.726a2.844 2.844 0 0 1 .541-.236 1.812 1.812 0 0 1 .824.035 1.86 1.86 0 0 1 .268.11q10.566 6.058 21.153 12.077a5.861 5.861 0 0 1 .584.5c-.574.33-.984.572-1.4.808-6.642 3.75-13.29 7.487-19.916 11.268a3.4 3.4 0 0 1-.614.286c-.036.012-.069.012-.1.021a1.982 1.982 0 0 1-.425.075zm.268 27.005c-.038-.54-.086-.954-.082-1.368.087-7.756.19-15.508.25-23.268a1.935 1.935 0 0 1 1.029-1.92c6.74-3.968 13.451-7.978 20.175-11.969.286-.169.609-.309 1.007-.5.035.533.085.95.081 1.359-.083 7.71-.2 15.415-.238 23.124a2.276 2.276 0 0 1-1.273 2.226c-.529.311-1.056.625-1.585.937-6.087 3.577-12.152 7.191-18.228 10.792-.328.193-.688.362-1.126.583zm44.106 1.384l-9.2 5.213-1.6.9q-4.792 2.712-9.583 5.428a2.142 2.142 0 0 1-2.043.019c-6.817-3.922-13.662-7.8-20.5-11.69-.248-.143-.472-.327-.94-.652.554-.32.893-.525 1.235-.714q10.144-5.739 20.283-11.479a2.482 2.482 0 0 1 .948-.348 1.89 1.89 0 0 1 .486.072 2.146 2.146 0 0 1 .455.194c6.864 3.946 13.75 7.844 20.628 11.763.244.139.471.324.844.582-.411.296-.697.532-1.019.713zm1.387-1.389c-.151-.05-.3-.092-.432-.132a6.253 6.253 0 0 1-.589-.3q-10.077-6-20.15-12.015a1.677 1.677 0 0 1-1.036-1.6c-.033-8.009-.125-16.017-.193-24.026 0-.267.046-.543.09-1l.056.028c.549.306.943.52 1.321.746 6.5 3.878 13 7.778 19.521 11.622a2.252 2.252 0 0 1 1.3 2.217c.017 7.663.112 15.323.173 22.984-.006.444-.038.898-.067 1.477zm.651-27.129a2.052 2.052 0 0 1-.862-.063 3.633 3.633 0 0 1-.682-.316c-6.6-3.815-13.23-7.558-19.847-11.334-.377-.213-.733-.465-1.248-.8.372-.265.616-.477.889-.63l20.667-11.7a1.91 1.91 0 0 1 .907-.284 1.949 1.949 0 0 1 .853.277q5.885 3.371 11.783 6.719v-.045q4.577 2.609 9.15 5.223a6.817 6.817 0 0 1 .648.515c-.611.353-1.032.6-1.46.843q-4.167 2.36-8.338 4.716v-.007q-5.737 3.247-11.454 6.523a3.617 3.617 0 0 1-.57.259 2.381 2.381 0 0 1-.314.089c-.046.006-.087.009-.128.016zm.043 25.921c.084-7.8.186-15.611.254-23.418a1.818 1.818 0 0 1 .942-1.82q5.695-3.348 11.371-6.731v-.081l8.786-5.22c.322-.2.671-.341 1.151-.576.034.568.089 1 .085 1.425-.085 7.71-.2 15.417-.241 23.123a2.271 2.271 0 0 1-1.285 2.229q-4.331 2.542-8.645 5.109V552q-5.945 3.527-11.893 7.051a3.2 3.2 0 0 1-.47.177c-.03-.516-.067-.889-.061-1.263zm44.186 2.567q-10.209 5.789-20.421 11.567a1.692 1.692 0 0 1-1.909.1q-4.634-2.66-9.288-5.3v-.045q-5.777-3.295-11.556-6.585c-.172-.094-.32-.225-.629-.444a8.032 8.032 0 0 1 .9-.712q5.639-3.2 11.28-6.39v-.078q4.373-2.478 8.733-4.973a2.467 2.467 0 0 1 2.833-.006c6.556 3.8 13.152 7.516 19.735 11.264.413.239.813.507 1.376.859-.449.321-.734.562-1.06.744zm-20.888-14.438q-.12-12.892-.235-25.811c1.289.317 18.646 10.5 22.339 13.074.08 8.509.156 17.105.238 26.067-7.641-4.554-14.946-8.913-22.349-13.329zm21.674-14.185q-10.299-5.908-20.636-11.757c-.248-.142-.471-.326-.844-.588.448-.308.782-.568 1.141-.777q10.144-5.737 20.284-11.478a1.8 1.8 0 0 1 2.037-.083c6.86 3.948 13.749 7.845 20.624 11.763.249.141.472.321.945.652-.561.322-.9.525-1.241.718q-10.144 5.731-20.281 11.479a1.8 1.8 0 0 1-2.036.073zm1.135 26.133c.082-7.86.183-15.726.256-23.586a1.832 1.832 0 0 1 .934-1.835c6.873-4.044 13.721-8.131 20.578-12.2a9.13 9.13 0 0 1 .865-.369c.028.594.064.985.06 1.377q-.128 11.725-.251 23.44a1.829 1.829 0 0 1-.94 1.824q-10.25 6.025-20.454 12.122c-.244.144-.512.253-.911.448a10.326 10.326 0 0 1-.143-1.219zm44.045 2.739c-6.642 3.751-13.288 7.487-19.913 11.269a2.12 2.12 0 0 1-2.434.024c-6.688-3.862-13.415-7.659-20.126-11.478-.342-.193-.663-.419-1.119-.711a6.155 6.155 0 0 1 .79-.668q10.332-5.864 20.679-11.724a1.6 1.6 0 0 1 1.781-.091q10.566 6.055 21.153 12.078a5.483 5.483 0 0 1 .586.49c-.579.338-.988.58-1.403.813zm.744-1.907q-10.279-6.124-20.549-12.254a1.473 1.473 0 0 1-.866-1.4q-.07-12.247-.2-24.5a4.026 4.026 0 0 1 .057-.436c1.051.153 18.466 10.338 22.328 13.069.078 8.6.158 17.156.236 25.883a6.5 6.5 0 0 1-1.012-.36zm-.221-27.281c-6.466-3.753-12.978-7.425-19.473-11.128-.465-.263-.922-.533-1.543-.9a11.666 11.666 0 0 1 1.035-.773c6.722-3.808 13.456-7.6 20.16-11.436a2.259 2.259 0 0 1 2.569-.037c6.645 3.838 13.329 7.614 20 11.408.379.214.735.465 1.354.863-1.267.734-2.281 1.333-3.305 1.915-5.949 3.363-11.916 6.7-17.834 10.112a2.569 2.569 0 0 1-2.969-.022zm1.7 26.164c.082-7.668.2-15.33.231-22.995a2.371 2.371 0 0 1 1.376-2.338c6.582-3.852 13.131-7.767 19.693-11.654.369-.221.761-.394 1.352-.694.017.721.046 1.165.041 1.606-.086 7.667-.193 15.326-.242 22.994a2.281 2.281 0 0 1-1.25 2.255c-6.579 3.858-13.122 7.777-19.677 11.679-.41.243-.823.476-1.446.838-.047-.747-.088-1.219-.084-1.688zm44.283 2.739l-20.4 11.571a1.807 1.807 0 0 1-2.041.079c-6.86-3.946-13.746-7.845-20.624-11.764-.25-.144-.473-.326-.952-.658.588-.344.966-.565 1.352-.785l20.154-11.4a1.8 1.8 0 0 1 2.036-.092c6.863 3.947 13.751 7.845 20.627 11.761.249.142.475.32.855.581-.408.286-.694.528-1.013.712zm1.4-1.1l-22.286-13.3-.238-26.053c.648.342 1.083.54 1.488.787 6.545 3.9 13.077 7.829 19.645 11.691a2.241 2.241 0 0 1 1.249 2.236c.023 7.608.115 15.219.184 22.828 0 .499-.026.992-.045 1.816zm-.81-27.588c-6.689-3.864-13.414-7.661-20.125-11.486-.338-.191-.664-.415-1.119-.707a6.3 6.3 0 0 1 .789-.666q10.337-5.867 20.68-11.726a1.61 1.61 0 0 1 1.783-.091q10.565 6.058 21.152 12.077a5.618 5.618 0 0 1 .584.5c-.574.33-.983.572-1.4.808-6.642 3.75-13.29 7.487-19.915 11.268a2.125 2.125 0 0 1-2.432.031zm1.333 25.995c.088-7.756.191-15.508.25-23.268a1.937 1.937 0 0 1 1.03-1.92c6.74-3.968 13.45-7.978 20.175-11.969.321-.192.673-.333 1.149-.57.035.57.091 1 .086 1.428-.083 7.71-.2 15.415-.237 23.124a2.278 2.278 0 0 1-1.283 2.232c-6.618 3.88-13.2 7.811-19.8 11.723-.369.217-.76.394-1.279.661-.045-.574-.099-.999-.095-1.433zm44.338 2.752q-10.2 5.779-20.407 11.558a1.81 1.81 0 0 1-2.039.08c-6.86-3.947-13.747-7.846-20.625-11.763-.249-.143-.472-.327-.941-.652.555-.32.894-.525 1.235-.714q10.144-5.739 20.283-11.479a1.8 1.8 0 0 1 2.037-.082c6.864 3.946 13.75 7.844 20.628 11.763.244.139.471.324.845.582-.412.298-.698.534-1.02.715zm-19.548-39.688c6.5 3.878 13 7.778 19.522 11.622a2.253 2.253 0 0 1 1.294 2.217c.017 7.663.113 15.323.174 22.984.005.478-.034.962-.064 1.61-.491-.235-.842-.372-1.164-.563q-10.077-6-20.15-12.015a1.679 1.679 0 0 1-1.036-1.6c-.032-8.009-.124-16.017-.192-24.026 0-.284.051-.569.1-1.082.657.376 1.088.607 1.513.86zm20.883-15.972a1.5 1.5 0 0 1-.763 1.473q-10.49 6.2-20.957 12.438a5.646 5.646 0 0 1-.662.248c-.021-.653-.058-1.133-.051-1.612.082-7.664.192-15.325.237-22.992a2.282 2.282 0 0 1 1.278-2.239c6.624-3.884 13.217-7.819 19.82-11.736.338-.2.676-.394 1.155-.673a5.7 5.7 0 0 1 .2 1.061q-.119 12.02-.26 24.038zm-21.265-64.865q10.22 6.083 20.42 12.178a1.455 1.455 0 0 1 .911 1.364c.042 8.218.119 16.428.184 24.643a2.7 2.7 0 0 1-.129.5c-3.8-2.07-7.408-4.358-11.083-6.53-3.7-2.188-7.391-4.414-11.107-6.632-.078-8.633-.157-17.182-.234-25.908a7.019 7.019 0 0 1 1.035.392zm21.42-16a1.825 1.825 0 0 1-.952 1.822c-6.866 4.037-13.711 8.116-20.567 12.179-.207.123-.441.21-.864.411-.024-.6-.062-.99-.056-1.375.086-7.806.186-15.613.253-23.421a1.82 1.82 0 0 1 .961-1.808c6.821-4.014 13.62-8.076 20.427-12.119.254-.149.527-.26.923-.46a9.957 9.957 0 0 1 .128 1.2c-.085 7.875-.19 15.732-.256 23.582zm.09-51.853c.08 8.618.158 17.22.24 25.966a4.457 4.457 0 0 1-.888-.283q-10.338-6.155-20.677-12.324a1.479 1.479 0 0 1-.859-1.4c-.048-8.165-.128-16.329-.193-24.494 0-.144.035-.29.1-.758 7.513 4.492 14.856 8.873 22.274 13.304zm.373-52.539c-.078 8.053-.177 16.108-.254 24.162a1.51 1.51 0 0 1-.8 1.455q-10.548 6.225-21.077 12.482a3.651 3.651 0 0 1-.5.153c-.027-.5-.068-.888-.063-1.268.084-7.857.183-15.712.25-23.571a1.714 1.714 0 0 1 .93-1.677q10.293-6.072 20.555-12.2c.21-.126.437-.219.76-.378a3.774 3.774 0 0 1 .196.853zm-44.029-2.371c6.677-3.774 13.362-7.533 20.02-11.341a2.01 2.01 0 0 1 2.3.008c6.685 3.851 13.4 7.651 20.108 11.468.371.211.711.477 1.188.794-.5.324-.854.576-1.227.787-6.671 3.784-13.356 7.545-20.007 11.36a2.248 2.248 0 0 1-2.565-.016c-6.64-3.833-13.317-7.609-19.977-11.4-.37-.21-.709-.478-1.25-.844.582-.328.993-.571 1.407-.805zm-1.709 1.553a3.939 3.939 0 0 1 .841.258q10.34 6.155 20.664 12.318a1.476 1.476 0 0 1 .859 1.4q.074 12.241.193 24.478a5.411 5.411 0 0 1-.1.672c-.53-.272-.923-.452-1.291-.668q-9.951-5.939-19.9-11.862a1.9 1.9 0 0 1-1.114-1.858c-.031-7.86-.119-15.723-.191-23.581-.011-.332.017-.676.035-1.146zm.656 27.318c6.862 3.948 13.747 7.847 20.625 11.76.248.143.475.323.851.584-.448.311-.775.576-1.137.779q-10.136 5.745-20.279 11.487a1.8 1.8 0 0 1-2.035.086c-6.865-3.946-13.751-7.848-20.628-11.762-.248-.141-.474-.323-.95-.656.551-.319.888-.522 1.231-.712q10.142-5.734 20.283-11.478a1.8 1.8 0 0 1 2.036-.077zm-1.184-26.083c-.088 7.8-.187 15.609-.256 23.418a1.828 1.828 0 0 1-.936 1.829c-6.871 4.03-13.715 8.111-20.57 12.176-.208.124-.438.212-.774.374a6.55 6.55 0 0 1-.161-1.022c.08-7.956.182-15.911.258-23.865a1.618 1.618 0 0 1 .821-1.591q10.487-6.184 20.944-12.416a5.133 5.133 0 0 1 .6-.232c.031.567.074.955.074 1.341zm-44.07-2.7c6.636-3.761 13.287-7.5 19.895-11.3a2.346 2.346 0 0 1 2.7.021c6.6 3.813 13.241 7.562 19.864 11.336.381.217.744.465 1.242.779a6.146 6.146 0 0 1-.824.678q-10.344 5.861-20.69 11.708a1.594 1.594 0 0 1-1.779.076q-10.5-6.019-21.03-12c-.166-.095-.31-.234-.7-.533.571-.327.943-.543 1.318-.757zm20.672 14.562c.078 8.649.158 17.227.237 26.151-7.6-4.532-14.922-8.9-22.342-13.328l-.239-26.16zm-21.854 14.082q10.56 6.045 21.135 12.061a5.753 5.753 0 0 1 .541.473c-.559.324-.977.568-1.394.807-6.587 3.735-13.186 7.446-19.752 11.213a2.349 2.349 0 0 1-2.7.034c-6.63-3.846-13.308-7.609-19.971-11.406-.339-.19-.656-.418-1.107-.712a5.175 5.175 0 0 1 .676-.575q10.458-5.927 20.927-11.849a1.469 1.469 0 0 1 1.641-.038zm-.959-25.998c-.085 7.863-.184 15.725-.254 23.59a1.834 1.834 0 0 1-.959 1.816c-6.79 3.994-13.547 8.035-20.318 12.057-.285.169-.594.295-1.1.531-.034-.586-.075-.931-.072-1.274.086-7.863.194-15.726.251-23.59a1.948 1.948 0 0 1 1.089-1.9c6.745-3.963 13.468-7.971 20.2-11.964.285-.169.6-.3 1.039-.517a11.98 11.98 0 0 1 .124 1.251zm-44.5-2.5c6.806-3.858 13.624-7.7 20.419-11.579a2.014 2.014 0 0 1 2.308-.027c6.734 3.878 13.5 7.706 20.253 11.553.333.191.642.425 1.2.793-1.251.723-2.265 1.326-3.293 1.908-5.947 3.366-11.909 6.7-17.835 10.108a2.452 2.452 0 0 1-2.826.046c-6.508-3.782-13.061-7.474-19.6-11.2-.464-.265-.92-.537-1.517-.889a8 8 0 0 1 .895-.713zm-1.229 1.172c.577.3 1.009.5 1.416.747 6.554 3.9 13.089 7.837 19.664 11.708a2.245 2.245 0 0 1 1.287 2.219c.02 7.666.113 15.335.179 23 0 .481-.038.965-.063 1.627-.577-.3-1.011-.507-1.417-.746-6.551-3.906-13.09-7.838-19.666-11.707a2.253 2.253 0 0 1-1.28-2.223c-.022-7.665-.113-15.331-.179-23-.001-.475.036-.954.063-1.621zm.989 27.651c6.6 3.82 13.239 7.565 19.862 11.341.384.217.748.461 1.234.766a4.071 4.071 0 0 1-.64.616q-10.467 5.935-20.943 11.858a1.491 1.491 0 0 1-1.65.023q-10.572-6.049-21.155-12.074a5.443 5.443 0 0 1-.525-.427c.493-.324.841-.577 1.217-.789 6.634-3.76 13.281-7.5 19.894-11.3a2.353 2.353 0 0 1 2.71-.01zm-1.536-26.261c-.08 7.812-.179 15.627-.252 23.437a1.817 1.817 0 0 1-.932 1.828c-6.831 4.013-13.637 8.077-20.451 12.121-.247.146-.516.258-1.018.5-.017-.74-.043-1.227-.039-1.711.086-7.616.2-15.229.236-22.845a2.39 2.39 0 0 1 1.325-2.374c6.672-3.892 13.3-7.863 19.945-11.8.291-.173.606-.3 1.077-.523.051.542.117.957.113 1.371zm-44.427-2.4q5.432-3.084 10.865-6.148v-.086q4.846-2.738 9.687-5.482a1.8 1.8 0 0 1 2.041-.079c6.86 3.943 13.75 7.843 20.625 11.761.249.143.472.324.845.583-.41.289-.7.525-1.018.708l-20.407 11.559a1.8 1.8 0 0 1-2.041.072q-4.859-2.793-9.732-5.561v-.025l-10.807-6.161c-.248-.138-.469-.325-.829-.578a8.474 8.474 0 0 1 .775-.562zm5.187 4.795c5.313 3.172 10.572 6.312 15.845 9.457l.234 26.153-5.316-3.175q-2.543-1.517-5.085-3.038v-.034c-3.778-2.257-7.532-4.5-11.311-6.751a1.86 1.86 0 0 1-.531-.834q-.118-12.574-.234-25.21c.738.265 3.26 1.637 6.402 3.432zm-6.726 23.466a3.067 3.067 0 0 1 1.362.464q5.427 3.157 10.893 6.249v-.05q4.5 2.562 9.009 5.123c.334.191.648.424 1.212.792-1.164.674-2.092 1.224-3.029 1.757l-11.817 6.688q-3.3 1.864-6.589 3.734a2.166 2.166 0 0 1-1.764.238 2.394 2.394 0 0 1-.259-.112c-6.869-3.947-13.756-7.853-20.641-11.775-.252-.14-.476-.322-.9-.62.525-.342.84-.572 1.175-.762 6.59-3.737 13.2-7.442 19.763-11.224a3.143 3.143 0 0 1 1.589-.502zm-.29-26.275c-.078 8.053-.177 16.108-.254 24.162a2.357 2.357 0 0 1-.026.263 2.166 2.166 0 0 1-1.035 1.349q-10.416 6.147-20.813 12.325a1.9 1.9 0 0 1-.352.111c-.027-.482-.066-.858-.061-1.227.084-7.857.184-15.712.251-23.571a1.714 1.714 0 0 1 .929-1.677q10.293-6.072 20.555-12.2c.178-.107.381-.2.63-.316a3.143 3.143 0 0 1 .18.781zM-332.365 318c.5-.289.873-.511 1.246-.721 6.677-3.774 13.362-7.533 20.021-11.341a2.281 2.281 0 0 1 1.1-.341 2.377 2.377 0 0 1 1.05.349c6.686 3.851 13.4 7.651 20.109 11.468.371.211.71.477 1.187.794-.5.324-.853.576-1.226.787-6.672 3.784-13.356 7.545-20.008 11.36a3.368 3.368 0 0 1-.517.232 2.4 2.4 0 0 1-.334.095c-.018 0-.037.005-.056.008a1.974 1.974 0 0 1-.857-.053 3.493 3.493 0 0 1-.651-.3c-6.641-3.833-13.317-7.609-19.977-11.4-.367-.208-.7-.473-1.236-.835zm-.465.869a2.689 2.689 0 0 1 .694.221q10.34 6.155 20.663 12.318a1.535 1.535 0 0 1 .8.921l.006.016a1.845 1.845 0 0 1 .057.464c.05 8.161.129 16.317.193 24.478a4.2 4.2 0 0 1-.092.6c-.456-.232-.821-.4-1.153-.6q-9.952-5.939-19.9-11.862a1.9 1.9 0 0 1-1.114-1.858c-.031-7.86-.119-15.723-.19-23.581-.008-.332.018-.672.036-1.119zm-.43 27.02a1.566 1.566 0 0 1 .247.02c.058.007.114.012.173.024a2.2 2.2 0 0 1 .52.217c6.861 3.948 13.746 7.847 20.625 11.76.243.141.469.318.832.571-.085.068-.156.128-.23.191a9.579 9.579 0 0 1-.89.6q-10.135 5.745-20.279 11.487a2.777 2.777 0 0 1-.781.309 1.574 1.574 0 0 1-.19.038 1.615 1.615 0 0 1-.2-.016 1.723 1.723 0 0 1-.2-.025 2.177 2.177 0 0 1-.521-.219c-6.865-3.946-13.751-7.848-20.628-11.762-.249-.141-.474-.323-.95-.656.55-.319.888-.522 1.23-.712q10.144-5.734 20.284-11.478a2.509 2.509 0 0 1 .958-.352zm-.244-25.82c-.088 7.8-.187 15.609-.256 23.418a2.092 2.092 0 0 1-.367 1.319 1.969 1.969 0 0 1-.137.174 2.291 2.291 0 0 1-.23.177 2.794 2.794 0 0 1-.255.189c-6.835 4.009-13.644 8.068-20.464 12.113-.158.086-.335.174-.535.271l-.157.072a5.56 5.56 0 0 1-.148-.958c.08-7.956.182-15.911.257-23.865a1.619 1.619 0 0 1 .822-1.591q10.487-6.184 20.944-12.416a2.884 2.884 0 0 1 .458-.179c.031.522.072.901.072 1.273zm-43.922-2.7c6.637-3.761 13.287-7.5 19.9-11.3a2.586 2.586 0 0 1 1.326-.4 2.829 2.829 0 0 1 1.228.418c6.6 3.813 13.241 7.562 19.864 11.336.381.217.744.465 1.241.779a6.146 6.146 0 0 1-.823.678q-10.344 5.861-20.69 11.708c-.09.051-.174.085-.261.124a1.632 1.632 0 0 1-1.068.078 1.8 1.8 0 0 1-.3-.125q-10.5-6.019-21.031-12c-.165-.095-.309-.234-.7-.533.567-.34.94-.556 1.313-.77zm-.536 1.991l21.058 12.571c.078 8.619.158 17.169.237 26.062-7.542-4.5-14.821-8.845-22.193-13.24l-.239-26.038c.386.207.757.424 1.137.638zm-1.054 26.541a1.778 1.778 0 0 1 .258.111q10.562 6.045 21.136 12.061a3.933 3.933 0 0 1 .45.392 5.669 5.669 0 0 1-.752.57l-3.759 2.133q-5.742 3.25-11.477 6.513l-5.3 3.009a2.643 2.643 0 0 1-1.019.311 2.589 2.589 0 0 1-1.3-.4c-6.63-3.846-13.308-7.609-19.972-11.406-.338-.19-.656-.418-1.106-.712a5.044 5.044 0 0 1 .676-.575q10.458-5.927 20.926-11.849a2.428 2.428 0 0 1 .366-.171 1.7 1.7 0 0 1 .872.007zm-.7-25.895c-.085 7.863-.183 15.725-.253 23.59a2.709 2.709 0 0 1-.13.83 2.051 2.051 0 0 1-.661.857c-.045.033-.077.066-.128.1-.034.024-.073.048-.11.072-6.767 3.981-13.5 8.008-20.248 12.016-.255.152-.538.272-.953.464-.032-.542-.07-.878-.067-1.206.086-7.863.194-15.726.25-23.59a1.949 1.949 0 0 1 1.089-1.9c6.746-3.963 13.469-7.971 20.2-11.964.25-.149.536-.274.9-.45a10.682 10.682 0 0 1 .114 1.175zm-44.346-2.5c6.806-3.858 13.623-7.7 20.419-11.579a2.478 2.478 0 0 1 1.078-.365 2.224 2.224 0 0 1 1.082.339c6.734 3.878 13.5 7.706 20.253 11.553.3.172.593.387 1.057.7a5.1 5.1 0 0 1-.526.481l-1.345.784-5.82 3.3c-4.439 2.5-8.878 5.007-13.3 7.546a3.081 3.081 0 0 1-1.352.466 2.694 2.694 0 0 1-1.326-.42c-6.508-3.782-13.062-7.474-19.6-11.2-.464-.265-.921-.537-1.517-.889a7.918 7.918 0 0 1 .9-.722zm-1.233 1.246c.5.258.9.451 1.271.673 6.554 3.9 13.089 7.837 19.664 11.708a2.244 2.244 0 0 1 1.287 2.219c.02 7.666.113 15.335.179 23 0 .462-.034.93-.06 1.552-.5-.259-.9-.454-1.271-.671-6.551-3.906-13.09-7.838-19.666-11.707a2.253 2.253 0 0 1-1.28-2.223c-.022-7.665-.113-15.331-.18-23-.002-.462.033-.926.059-1.553zm-.437 27.17a2.676 2.676 0 0 1 1.281.407c6.6 3.82 13.239 7.565 19.863 11.341.383.217.748.461 1.234.766a4.073 4.073 0 0 1-.64.616q-10.467 5.935-20.943 11.858a1.84 1.84 0 0 1-.762.25 1.586 1.586 0 0 1-.74-.226q-10.572-6.049-21.155-12.074a5.482 5.482 0 0 1-.524-.427c.493-.324.841-.577 1.216-.789 6.635-3.76 13.282-7.5 19.894-11.3a2.833 2.833 0 0 1 1.278-.424zm-.255-25.854c-.08 7.812-.179 15.627-.251 23.437a1.816 1.816 0 0 1-.933 1.828c-6.831 4.013-13.636 8.077-20.45 12.121-.221.13-.468.238-.871.433-.017-.7-.041-1.174-.036-1.641.086-7.616.2-15.229.235-22.845a2.391 2.391 0 0 1 1.326-2.374c6.671-3.892 13.3-7.863 19.945-11.8.257-.153.55-.277.936-.457.045.498.105.9.101 1.296zm-44.453-2.385c.157-.091.3-.174.446-.255l2.949-1.669 7.5-4.242q4.92-2.781 9.836-5.566a2.453 2.453 0 0 1 .951-.346 1.807 1.807 0 0 1 .941.267c6.859 3.943 13.749 7.843 20.625 11.761.249.143.471.324.845.583-.41.289-.7.525-1.019.708l-20.406 11.559a2.446 2.446 0 0 1-.951.342 1.807 1.807 0 0 1-.941-.269c-6.862-3.944-13.748-7.843-20.624-11.758-.235-.136-.454-.309-.86-.594.295-.226.495-.396.71-.523zm-1.067 1.333a38.868 38.868 0 0 1 3.766 1.941c6.179 3.69 12.253 7.316 18.361 10.959l.233 26.064-5.167-3.087c-5.274-3.149-10.541-6.312-15.833-9.422a2.134 2.134 0 0 1-1.232-2.1c-.025-7.667-.114-15.333-.181-23-.001-.394.026-.797.054-1.357zm.2 26.992a3.108 3.108 0 0 1 .5.222c6.692 3.859 13.414 7.659 20.124 11.481.335.191.648.424 1.212.792-1.164.674-2.092 1.224-3.028 1.757-6.077 3.439-12.164 6.859-18.223 10.331a2.646 2.646 0 0 1-1.378.419 2.569 2.569 0 0 1-1.034-.368c-6.644-3.837-13.328-7.61-20-11.4-.379-.218-.738-.469-1.247-.789a10.058 10.058 0 0 1 1-.745c6.7-3.8 13.425-7.583 20.12-11.414l.11-.055c.085-.047.164-.075.245-.114a2.375 2.375 0 0 1 1.598-.119zm-.964-27.145c.04.547.084.939.078 1.323-.082 7.708-.2 15.415-.239 23.12a2.269 2.269 0 0 1-1.279 2.232c-6.532 3.828-13.03 7.717-19.54 11.582-.371.22-.749.437-1.229.716l-.188.053c-.027-.638-.064-1.09-.062-1.536.084-7.657.2-15.314.237-22.973a2.274 2.274 0 0 1 1.288-2.225c6.529-3.833 13.028-7.722 19.535-11.59.244-.146.492-.29.765-.448.175-.092.365-.178.62-.3l.013.044zm-44.066-1.448q4.078-2.308 8.156-4.619 1.967-1.11 3.931-2.226c2.774-1.57 5.55-3.134 8.319-4.712a2.9 2.9 0 0 1 .315-.144 1.778 1.778 0 0 1 1.173-.049 2.516 2.516 0 0 1 .4.18q10.168 5.841 20.369 11.615c.33.187.631.427 1.131.774-.581.334-.991.577-1.4.813-6.631 3.754-13.271 7.491-19.884 11.282a2.517 2.517 0 0 1-1.247.379 2.641 2.641 0 0 1-1.167-.381c-6.64-3.837-13.318-7.608-19.977-11.4-.374-.207-.716-.472-1.19-.79.441-.306.742-.537 1.07-.724zm-1.408 1.439c.118.032.234.059.339.085a7.079 7.079 0 0 1 .675.345q10.076 6 20.157 12.006a1.8 1.8 0 0 1 1.01 1.768c.043 7.858.129 15.72.2 23.581 0 .361-.049.726-.089 1.215-.4-.188-.72-.325-1-.495q-10.08-6.014-20.158-12.01a1.808 1.808 0 0 1-1.013-1.765c-.04-7.863-.122-15.721-.191-23.582-.009-.34.033-.697.069-1.151zm-.44 27.032a2.011 2.011 0 0 1 1.012.3c6.773 3.9 13.575 7.747 20.367 11.619.293.162.568.365.985.637a8.151 8.151 0 0 1-.826.645l-20.664 11.707a2.094 2.094 0 0 1-.888.3 1.818 1.818 0 0 1-.874-.264q-10.361-5.942-20.756-11.83c-.207-.119-.393-.278-.844-.6.573-.333.95-.554 1.328-.769q10.081-5.7 20.153-11.407a3.35 3.35 0 0 1 .525-.244c.047-.016.092-.02.138-.033a1.738 1.738 0 0 1 .343-.064zm-.274-25.843c-.083 7.808-.188 15.613-.245 23.418a1.955 1.955 0 0 1-1.07 1.9c-6.784 3.984-13.542 8.014-20.312 12.027-.219.129-.464.241-.768.389a5.283 5.283 0 0 1-.151-.957q.126-11.935.257-23.871a1.617 1.617 0 0 1 .823-1.584q10.483-6.188 20.941-12.417a4.635 4.635 0 0 1 .46-.177c.024.522.07.896.063 1.269zm-44.016-2.644c6.677-3.787 13.368-7.55 20.029-11.366a3.623 3.623 0 0 1 .531-.247 2.288 2.288 0 0 1 .355-.1h.023a2.046 2.046 0 0 1 .91.058 3.3 3.3 0 0 1 .6.268c6.643 3.838 13.328 7.613 20 11.41.378.213.729.467 1.236.792a12.461 12.461 0 0 1-1.011.742q-10.214 5.777-20.43 11.558a2.185 2.185 0 0 1-.979.32 1.981 1.981 0 0 1-.915-.284q-10.306-5.912-20.643-11.77c-.247-.138-.468-.332-.936-.666.558-.335.891-.53 1.229-.714zm9.5 7.873c3.7 2.189 7.388 4.407 11.124 6.64.076 8.605.155 17.157.235 26.057-7.583-4.526-14.841-8.855-22.192-13.243l-.241-25.988c3.878 2.139 7.449 4.389 11.07 6.531zm-11.51 20.562a1.972 1.972 0 0 1 1.042.3c6.775 3.9 13.577 7.75 20.369 11.62.274.155.546.345.925.592l.058.053a7.161 7.161 0 0 1-.83.633q-10.326 5.869-20.656 11.722a2.735 2.735 0 0 1-.422.194 2.025 2.025 0 0 1-1.055-.043 2.326 2.326 0 0 1-.285-.125q-4.2-2.409-8.416-4.8v.038q-5.992-3.417-11.992-6.828c-.338-.19-.656-.418-1.107-.712a5.113 5.113 0 0 1 .677-.575q10.355-5.869 20.72-11.732a2.426 2.426 0 0 1 .968-.34zm-.246-27.047c.028.606.072 1.068.067 1.52-.084 7.668-.19 15.328-.24 22.993a2.282 2.282 0 0 1-1.25 2.255c-2.59 1.52-5.17 3.058-7.752 4.592v.075q-6.1 3.62-12.186 7.244c-.286.169-.6.295-1.1.531-.034-.586-.075-.931-.072-1.274.087-7.863.2-15.726.251-23.59a1.947 1.947 0 0 1 1.089-1.9q6.091-3.579 12.165-7.194l7.853-4.655c.332-.191.693-.359 1.171-.6zm-44.327-1.28c6.806-3.858 13.625-7.7 20.421-11.579a2.013 2.013 0 0 1 2.307-.027q6.2 3.57 12.424 7.1v.025q3.778 2.152 7.559 4.3c.381.217.748.464 1.235.767a4.376 4.376 0 0 1-.665.606q-4.065 2.307-8.129 4.609v.082q-6.061 3.418-12.1 6.871a2.453 2.453 0 0 1-2.827.046c-6.508-3.782-13.061-7.474-19.6-11.2-.464-.265-.92-.537-1.517-.889a7.911 7.911 0 0 1 .889-.718zm-1.229 1.172c.577.3 1.009.5 1.417.747 6.553 3.9 13.088 7.837 19.664 11.708a2.245 2.245 0 0 1 1.286 2.219c.02 7.666.113 15.335.18 23 0 .481-.04.965-.064 1.627-.577-.3-1.011-.507-1.417-.746-6.551-3.906-13.09-7.838-19.665-11.707a2.25 2.25 0 0 1-1.28-2.223c-.023-7.665-.114-15.331-.18-23-.009-.482.029-.961.055-1.628zm.989 27.651c6.6 3.82 13.239 7.565 19.863 11.341.384.217.749.461 1.235.766a4.071 4.071 0 0 1-.641.616q-10.467 5.935-20.943 11.858a1.491 1.491 0 0 1-1.65.023q-10.572-6.049-21.155-12.074a5.57 5.57 0 0 1-.525-.427c.493-.324.841-.577 1.217-.789 6.634-3.76 13.281-7.5 19.894-11.3a2.353 2.353 0 0 1 2.703-.017zm-1.536-26.261c-.08 7.812-.179 15.627-.252 23.437a1.817 1.817 0 0 1-.932 1.828c-6.831 4.013-13.637 8.077-20.45 12.121-.248.146-.516.258-1.018.5-.017-.74-.044-1.227-.038-1.711.086-7.616.2-15.229.235-22.845a2.391 2.391 0 0 1 1.326-2.374c6.671-3.892 13.3-7.863 19.944-11.8.292-.173.606-.3 1.077-.523.042.535.109.95.105 1.364zm-44.157-2.64q10.142-5.737 20.283-11.479a1.8 1.8 0 0 1 2.041-.079c6.86 3.943 13.75 7.843 20.625 11.761.249.143.472.324.845.583-.409.289-.7.525-1.018.708l-20.407 11.559a1.8 1.8 0 0 1-2.04.072c-6.862-3.944-13.748-7.843-20.623-11.758-.252-.145-.475-.328-.94-.651.552-.328.888-.527 1.23-.719zm-1.494 1.2c7.54 4.5 14.869 8.879 22.256 13.285l.235 26.153c-2.009-1.2-3.662-2.188-5.318-3.175-5.273-3.149-10.54-6.312-15.832-9.422a2.133 2.133 0 0 1-1.232-2.1c-.026-7.667-.115-15.333-.182-23-.005-.479.036-.959.07-1.742z" transform="translate(664.467 -193.693)"/>
        </g>
    </g>
</svg>
