<svg xmlns="http://www.w3.org/2000/svg" width="48.388" height="32.034" viewBox="0 0 48.388 32.034">
  <defs>
    <style>
      .cls-1 {
        fill: #039;
        stroke: #fff;
        stroke-width: 0.2px;
      }

      .cls-2 {
        fill: #44c8f5;
      }
    </style>
  </defs>
  <g id="Group_11986" data-name="Group 11986" transform="translate(0.1 0.1)">
    <g id="_6271700671558096452" data-name="6271700671558096452">
      <path id="Union_3" data-name="Union 3" class="cls-1" d="M42.25,31.834a.854.854,0,0,1-.576-.233.836.836,0,0,1-.236-.575.82.82,0,0,1,.236-.575.839.839,0,0,1,.576-.237h1.9a2.438,2.438,0,0,0,1.717-.71,2.4,2.4,0,0,0,.711-1.712v-1.9a.794.794,0,0,1,.807-.807.836.836,0,0,1,.57.233.8.8,0,0,1,.236.575v1.9a4.038,4.038,0,0,1-4.041,4.041Zm-38.209,0A4.042,4.042,0,0,1,0,27.793v-1.9a.815.815,0,0,1,.232-.575.853.853,0,0,1,.574-.233.854.854,0,0,1,.576.233.863.863,0,0,1,.236.575v1.9A2.389,2.389,0,0,0,2.328,29.5a2.422,2.422,0,0,0,1.713.71h1.9a.836.836,0,0,1,.57.237.82.82,0,0,1,.236.575.836.836,0,0,1-.236.575.851.851,0,0,1-.57.233ZM46.807,6.518a.834.834,0,0,1-.232-.575v-1.9a2.409,2.409,0,0,0-.711-1.716,2.438,2.438,0,0,0-1.717-.71h-1.9a.854.854,0,0,1-.576-.233.836.836,0,0,1-.236-.575.82.82,0,0,1,.236-.575A.858.858,0,0,1,42.25,0h1.9a4.045,4.045,0,0,1,4.041,4.045v1.9a.789.789,0,0,1-.236.575.836.836,0,0,1-.57.232A.853.853,0,0,1,46.807,6.518Zm-46.574,0A.8.8,0,0,1,0,5.943v-1.9A4.049,4.049,0,0,1,4.041,0h1.9a.855.855,0,0,1,.57.237A.82.82,0,0,1,6.75.812a.836.836,0,0,1-.236.575.851.851,0,0,1-.57.233h-1.9A2.423,2.423,0,0,0,1.619,4.045v1.9a.847.847,0,0,1-.236.575.855.855,0,0,1-.576.232A.853.853,0,0,1,.232,6.518Z"/>
    </g>
    <path id="_7117553871579156629" data-name="7117553871579156629" class="cls-2" d="M24.641,12.785l.924-.924a1.96,1.96,0,0,0-2.773-2.773l-1.884,1.884V7.843L13.076,0H3.268A3.271,3.271,0,0,0,0,3.268V22.875a3.271,3.271,0,0,0,3.268,3.268H17.646a3.271,3.271,0,0,0,3.268-3.268V16.518l2.808-2.808.46.46-.924.924a.654.654,0,1,0,.909.939l.015-.015,1.389-1.389a.653.653,0,0,0,0-.924ZM13.725,2.507,18.4,7.189H15.686a1.961,1.961,0,0,1-1.961-1.961Zm5.882,20.368a1.961,1.961,0,0,1-1.961,1.961H3.268a1.961,1.961,0,0,1-1.961-1.961V3.268A1.961,1.961,0,0,1,3.268,1.307h9.15V5.229A3.271,3.271,0,0,0,15.686,8.5h3.921V12.28L13.551,18.33a1.946,1.946,0,0,0-.378,2.226l-.056.056a2.478,2.478,0,0,0-2.088-1,2.243,2.243,0,0,0-1.384.858c-.24.26-.4.424-.577.449-.077-.005-.281-.235-.4-.378a2.219,2.219,0,0,0-1.4-.929c-.853-.1-1.685.408-2.558,1.562a.655.655,0,1,0,1.031.807l.015-.015c.536-.71,1.031-1.1,1.363-1.052.163.02.332.2.562.475a1.858,1.858,0,0,0,1.379.842c.056,0,.117-.005.174-.01a2.243,2.243,0,0,0,1.384-.858c.245-.266.4-.424.577-.449.327-.046.822.347,1.363,1.052a.653.653,0,0,0,.516.255h.061a.639.639,0,0,0,.429-.189l.546-.546a1.928,1.928,0,0,0,2.226-.378l3.288-3.283v5.05Zm-4.207-2.7a.653.653,0,0,1-.924,0h0a.653.653,0,0,1,0-.924l7.393-7.393.924.924Zm8.318-8.318-.168-.168-.756-.756.924-.924a.767.767,0,0,1,.168-.117.571.571,0,0,1,.179-.061.835.835,0,0,1,.112-.01.464.464,0,0,1,.117.015.767.767,0,0,1,.214.077.651.651,0,0,1,.225.9.766.766,0,0,1-.1.128ZM4.575,9.8a.652.652,0,0,1,.654-.654H9.17a.654.654,0,0,1,0,1.307H5.229A.652.652,0,0,1,4.575,9.8Zm0,2.614a.652.652,0,0,1,.654-.654h7.863a.654.654,0,0,1,0,1.307H5.229A.652.652,0,0,1,4.575,12.418Z" transform="translate(13.087 2.822)"/>
  </g>
</svg>
