<?xml version="1.0" encoding="UTF-8" standalone="no"?>
<!DOCTYPE svg PUBLIC "-//W3C//DTD SVG 1.1//EN"
 "http://www.w3.org/Graphics/SVG/1.1/DTD/svg11.dtd">
<!-- Generated by graphviz version 2.47.3 (20210619.1520)
 -->
<!-- Title: dependencies Pages: 1 -->
<svg width="684pt" height="174pt"
 viewBox="0.00 0.00 684.00 173.80" xmlns="http://www.w3.org/2000/svg" xmlns:xlink="http://www.w3.org/1999/xlink">
<g id="graph0" class="graph" transform="scale(1 1) rotate(0) translate(4 169.8)">
<title>dependencies</title>
<polygon fill="white" stroke="transparent" points="-4,4 -4,-169.8 680,-169.8 680,4 -4,4"/>
<text text-anchor="middle" x="338" y="-8.2" font-family="sans-serif" font-size="14.00">dependencies</text>
<g id="clust1" class="cluster">
<title>cluster_MfLandingWithKYCNotTransactionModule</title>
<polygon fill="none" stroke="black" stroke-dasharray="1,5" points="8,-32.8 8,-157.8 668,-157.8 668,-32.8 8,-32.8"/>
</g>
<g id="clust2" class="cluster">
<title>cluster_MfLandingWithKYCNotTransactionModule_declarations</title>
<polygon fill="none" stroke="black" points="354,-40.8 354,-92.8 660,-92.8 660,-40.8 354,-40.8"/>
</g>
<g id="clust4" class="cluster">
<title>cluster_MfLandingWithKYCNotTransactionModule_imports</title>
<polygon fill="none" stroke="black" points="16,-40.8 16,-92.8 346,-92.8 346,-40.8 16,-40.8"/>
</g>
<!-- MfLandingWithKYCNotTransactionComponent -->
<g id="node1" class="node">
<title>MfLandingWithKYCNotTransactionComponent</title>
<polygon fill="#ffffb3" stroke="black" points="651.72,-84.8 362.28,-84.8 362.28,-48.8 651.72,-48.8 651.72,-84.8"/>
<text text-anchor="middle" x="507" y="-62.6" font-family="Times,serif" font-size="14.00">MfLandingWithKYCNotTransactionComponent</text>
</g>
<!-- MfLandingWithKYCNotTransactionModule -->
<g id="node2" class="node">
<title>MfLandingWithKYCNotTransactionModule</title>
<polygon fill="#8dd3c7" stroke="black" points="477.94,-149.8 474.94,-153.8 453.94,-153.8 450.94,-149.8 210.06,-149.8 210.06,-113.8 477.94,-113.8 477.94,-149.8"/>
<text text-anchor="middle" x="344" y="-127.6" font-family="Times,serif" font-size="14.00">MfLandingWithKYCNotTransactionModule</text>
</g>
<!-- MfLandingWithKYCNotTransactionComponent&#45;&gt;MfLandingWithKYCNotTransactionModule -->
<g id="edge1" class="edge">
<title>MfLandingWithKYCNotTransactionComponent&#45;&gt;MfLandingWithKYCNotTransactionModule</title>
<path fill="none" stroke="black" d="M420.05,-84.91C420.05,-84.91 420.05,-103.79 420.05,-103.79"/>
<polygon fill="black" stroke="black" points="416.55,-103.79 420.05,-113.79 423.55,-103.79 416.55,-103.79"/>
</g>
<!-- MfLandingWithKYCNotTransactionRoutingModule -->
<g id="node3" class="node">
<title>MfLandingWithKYCNotTransactionRoutingModule</title>
<polygon fill="#8dd3c7" stroke="black" points="337.56,-84.8 334.56,-88.8 313.56,-88.8 310.56,-84.8 24.44,-84.8 24.44,-48.8 337.56,-48.8 337.56,-84.8"/>
<text text-anchor="middle" x="181" y="-62.6" font-family="Times,serif" font-size="14.00">MfLandingWithKYCNotTransactionRoutingModule</text>
</g>
<!-- MfLandingWithKYCNotTransactionRoutingModule&#45;&gt;MfLandingWithKYCNotTransactionModule -->
<g id="edge2" class="edge">
<title>MfLandingWithKYCNotTransactionRoutingModule&#45;&gt;MfLandingWithKYCNotTransactionModule</title>
<path fill="none" stroke="black" d="M273.78,-84.91C273.78,-84.91 273.78,-103.79 273.78,-103.79"/>
<polygon fill="black" stroke="black" points="270.28,-103.79 273.78,-113.79 277.28,-103.79 270.28,-103.79"/>
</g>
</g>
</svg>
