<?xml version="1.0" encoding="UTF-8" standalone="no"?>
<!DOCTYPE svg PUBLIC "-//W3C//DTD SVG 1.1//EN"
 "http://www.w3.org/Graphics/SVG/1.1/DTD/svg11.dtd">
<!-- Generated by graphviz version 2.47.3 (20210619.1520)
 -->
<!-- Title: dependencies Pages: 1 -->
<svg width="480pt" height="174pt"
 viewBox="0.00 0.00 480.00 173.80" xmlns="http://www.w3.org/2000/svg" xmlns:xlink="http://www.w3.org/1999/xlink">
<g id="graph0" class="graph" transform="scale(1 1) rotate(0) translate(4 169.8)">
<title>dependencies</title>
<polygon fill="white" stroke="transparent" points="-4,4 -4,-169.8 476,-169.8 476,4 -4,4"/>
<text text-anchor="middle" x="236" y="-8.2" font-family="sans-serif" font-size="14.00">dependencies</text>
<g id="clust1" class="cluster">
<title>cluster_InvestPageModule</title>
<polygon fill="none" stroke="black" stroke-dasharray="1,5" points="8,-32.8 8,-157.8 464,-157.8 464,-32.8 8,-32.8"/>
</g>
<g id="clust2" class="cluster">
<title>cluster_InvestPageModule_declarations</title>
<polygon fill="none" stroke="black" points="206,-40.8 206,-92.8 456,-92.8 456,-40.8 206,-40.8"/>
</g>
<g id="clust5" class="cluster">
<title>cluster_InvestPageModule_imports</title>
<polygon fill="none" stroke="black" points="16,-40.8 16,-92.8 198,-92.8 198,-40.8 16,-40.8"/>
</g>
<!-- InvestPage -->
<g id="node1" class="node">
<title>InvestPage</title>
<polygon fill="#ffffb3" stroke="black" points="447.92,-84.8 370.08,-84.8 370.08,-48.8 447.92,-48.8 447.92,-84.8"/>
<text text-anchor="middle" x="409" y="-62.6" font-family="Times,serif" font-size="14.00">InvestPage</text>
</g>
<!-- InvestPageModule -->
<g id="node3" class="node">
<title>InvestPageModule</title>
<polygon fill="#8dd3c7" stroke="black" points="343.47,-149.8 340.47,-153.8 319.47,-153.8 316.47,-149.8 222.53,-149.8 222.53,-113.8 343.47,-113.8 343.47,-149.8"/>
<text text-anchor="middle" x="283" y="-127.6" font-family="Times,serif" font-size="14.00">InvestPageModule</text>
</g>
<!-- InvestPage&#45;&gt;InvestPageModule -->
<g id="edge1" class="edge">
<title>InvestPage&#45;&gt;InvestPageModule</title>
<path fill="none" stroke="black" d="M409,-84.91C409,-104.14 409,-131.8 409,-131.8 409,-131.8 353.79,-131.8 353.79,-131.8"/>
<polygon fill="black" stroke="black" points="353.79,-128.3 343.79,-131.8 353.79,-135.3 353.79,-128.3"/>
</g>
<!-- MfHeaderComponent -->
<g id="node2" class="node">
<title>MfHeaderComponent</title>
<polygon fill="#ffffb3" stroke="black" points="352.35,-84.8 213.65,-84.8 213.65,-48.8 352.35,-48.8 352.35,-84.8"/>
<text text-anchor="middle" x="283" y="-62.6" font-family="Times,serif" font-size="14.00">MfHeaderComponent</text>
</g>
<!-- MfHeaderComponent&#45;&gt;InvestPageModule -->
<g id="edge2" class="edge">
<title>MfHeaderComponent&#45;&gt;InvestPageModule</title>
<path fill="none" stroke="black" d="M283,-84.91C283,-84.91 283,-103.79 283,-103.79"/>
<polygon fill="black" stroke="black" points="279.5,-103.79 283,-113.79 286.5,-103.79 279.5,-103.79"/>
</g>
<!-- InvestPageRoutingModule -->
<g id="node4" class="node">
<title>InvestPageRoutingModule</title>
<polygon fill="#8dd3c7" stroke="black" points="190.09,-84.8 187.09,-88.8 166.09,-88.8 163.09,-84.8 23.91,-84.8 23.91,-48.8 190.09,-48.8 190.09,-84.8"/>
<text text-anchor="middle" x="107" y="-62.6" font-family="Times,serif" font-size="14.00">InvestPageRoutingModule</text>
</g>
<!-- InvestPageRoutingModule&#45;&gt;InvestPageModule -->
<g id="edge3" class="edge">
<title>InvestPageRoutingModule&#45;&gt;InvestPageModule</title>
<path fill="none" stroke="black" d="M107,-84.91C107,-104.14 107,-131.8 107,-131.8 107,-131.8 212.43,-131.8 212.43,-131.8"/>
<polygon fill="black" stroke="black" points="212.43,-135.3 222.43,-131.8 212.43,-128.3 212.43,-135.3"/>
</g>
</g>
</svg>
