<?xml version="1.0" encoding="UTF-8" standalone="no"?>
<!DOCTYPE svg PUBLIC "-//W3C//DTD SVG 1.1//EN"
 "http://www.w3.org/Graphics/SVG/1.1/DTD/svg11.dtd">
<!-- Generated by graphviz version 2.47.3 (20210619.1520)
 -->
<!-- Title: dependencies Pages: 1 -->
<svg width="214pt" height="174pt"
 viewBox="0.00 0.00 214.00 173.80" xmlns="http://www.w3.org/2000/svg" xmlns:xlink="http://www.w3.org/1999/xlink">
<g id="graph0" class="graph" transform="scale(1 1) rotate(0) translate(4 169.8)">
<title>dependencies</title>
<polygon fill="white" stroke="transparent" points="-4,4 -4,-169.8 210,-169.8 210,4 -4,4"/>
<text text-anchor="middle" x="103" y="-8.2" font-family="sans-serif" font-size="14.00">dependencies</text>
<g id="clust1" class="cluster">
<title>cluster_LifestyleComponentModule</title>
<polygon fill="none" stroke="black" stroke-dasharray="1,5" points="8,-32.8 8,-157.8 198,-157.8 198,-32.8 8,-32.8"/>
</g>
<g id="clust2" class="cluster">
<title>cluster_LifestyleComponentModule_declarations</title>
<polygon fill="none" stroke="black" points="29,-40.8 29,-92.8 177,-92.8 177,-40.8 29,-40.8"/>
</g>
<!-- LifestyleComponent -->
<g id="node1" class="node">
<title>LifestyleComponent</title>
<polygon fill="#ffffb3" stroke="black" points="168.59,-84.8 37.41,-84.8 37.41,-48.8 168.59,-48.8 168.59,-84.8"/>
<text text-anchor="middle" x="103" y="-62.6" font-family="Times,serif" font-size="14.00">LifestyleComponent</text>
</g>
<!-- LifestyleComponentModule -->
<g id="node2" class="node">
<title>LifestyleComponentModule</title>
<polygon fill="#8dd3c7" stroke="black" points="190.14,-149.8 187.14,-153.8 166.14,-153.8 163.14,-149.8 15.86,-149.8 15.86,-113.8 190.14,-113.8 190.14,-149.8"/>
<text text-anchor="middle" x="103" y="-127.6" font-family="Times,serif" font-size="14.00">LifestyleComponentModule</text>
</g>
<!-- LifestyleComponent&#45;&gt;LifestyleComponentModule -->
<g id="edge1" class="edge">
<title>LifestyleComponent&#45;&gt;LifestyleComponentModule</title>
<path fill="none" stroke="black" d="M103,-84.91C103,-84.91 103,-103.79 103,-103.79"/>
<polygon fill="black" stroke="black" points="99.5,-103.79 103,-113.79 106.5,-103.79 99.5,-103.79"/>
</g>
</g>
</svg>
