<svg version="1.2" baseProfile="tiny-ps" xmlns="http://www.w3.org/2000/svg" viewBox="0 0 204 207" width="204" height="207">
	<title>Welocome Screens with App Icon-Niloy TD-ai</title>
	<style>
		tspan { white-space:pre }
		.shp0 { fill: #ffffff } 
	</style>
	<g id="Layer 1">
		<g id="&lt;Group&gt;">
			<g id="&lt;Group&gt;">
				<path id="&lt;Path&gt;" class="shp0" d="M49.06 82.44C62.65 53.33 92.18 33.15 126.42 33.15C160.67 33.15 190.2 53.33 203.79 82.44C200.84 42.29 167.33 10.63 126.42 10.63C85.52 10.63 52.01 42.29 49.06 82.44Z" />
				<path id="&lt;Path&gt;" class="shp0" d="M67.19 149.71C43.7 127.8 33.64 93.48 44.22 60.91C54.8 28.33 83.12 6.49 115.01 2.56C75.91 -7.04 35.44 15.04 22.8 53.95C10.16 92.84 29.92 134.5 67.19 149.71Z" />
				<path id="&lt;Path&gt;" class="shp0" d="M136.79 154.34C108.68 169.92 72.93 168.88 45.23 148.75C17.52 128.62 5.49 94.94 11.61 63.41C-9.6 97.62 -1.11 142.94 31.99 166.97C65.08 191.02 110.8 185.1 136.79 154.34Z" />
				<path id="&lt;Path&gt;" class="shp0" d="M162.5 88.38C168.61 119.92 156.58 153.6 128.88 173.73C101.17 193.86 65.42 194.9 37.32 179.33C63.3 210.08 109.02 216 142.12 191.95C175.21 167.91 183.71 122.6 162.5 88.38Z" />
				<path id="&lt;Path&gt;" class="shp0" d="M200.07 95.64C187.43 56.74 146.97 34.65 107.87 44.25C139.75 48.18 168.07 70.03 178.65 102.6C189.23 135.18 179.17 169.49 155.68 191.41C192.95 176.19 212.71 134.54 200.07 95.64Z" />
			</g>
		</g>
	</g>
</svg>