<svg xmlns="http://www.w3.org/2000/svg" width="10.16" height="5.718" viewBox="0 0 10.16 5.718">
  <defs>
    <style>
      .cls-1 {
        fill: #039;
      }
    </style>
  </defs>
  <g id="Group_11589" data-name="Group 11589" transform="translate(260.586 -423.69) rotate(90)">
    <g id="Path_15599" data-name="Path 15599">
      <path id="Path_18739" data-name="Path 18739" class="cls-1" d="M429.048,255.241l-4.469-4.457a.374.374,0,0,0-.529.53h0l4.2,4.191-4.2,4.191a.374.374,0,0,0,.529.53l4.469-4.451a.372.372,0,0,0,0-.528v-.006Z"/>
      <path id="Path_18740" data-name="Path 18740" class="cls-1" d="M424.315,260.586a.624.624,0,0,1-.442-.184.622.622,0,0,1,0-.882l4.022-4.015-4.022-4.014a.624.624,0,1,1,.882-.883l4.543,4.549a.627.627,0,0,1-.073.795l-4.47,4.451A.623.623,0,0,1,424.315,260.586Zm0-9.661a.125.125,0,0,0-.087.037.121.121,0,0,0,0,.175l4.376,4.368-4.376,4.368a.125.125,0,0,0-.038.09.12.12,0,0,0,.036.085.122.122,0,0,0,.176,0l4.47-4.452a.123.123,0,0,0,.019-.151l-.091-.046v-.055l-4.4-4.384A.123.123,0,0,0,424.314,250.925Z"/>
    </g>
  </g>
</svg>
