<svg xmlns="http://www.w3.org/2000/svg" width="18" height="18" viewBox="0 0 18 18">
    <path fill="#039" d="M666.708 327.5l-2.833 4.616a3.946 3.946 0 0 1-5.632 1.169 3.558 3.558 0 0 1-5.024-4.924l-.988-.985a3.945 3.945 0 0 1 .717-6.15l4.332-2.674a6.662 6.662 0 0 1 7.757.413l1.246-1.244a.752.752 0 0 1 1.072-.009.735.735 0 0 1 .164.246.743.743 0 0 1 .056.29.747.747 0 0 1-.23.533l-1.245 1.243a6.7 6.7 0 0 1 .608 7.475zm-9.61 4.737l-2.793-2.79a2.038 2.038 0 0 0 .348 2.448 2.126 2.126 0 0 0 2.446.342zm7.452-11.7a5.18 5.18 0 0 0-6.473-.71l-4.339 2.674a2.447 2.447 0 0 0-.445 3.814l5.476 5.468a2.454 2.454 0 0 0 3.825-.45l2.821-4.594a5.2 5.2 0 0 0-.865-6.207zm.961 13.463a.75.75 0 0 1-.444-1.356 6.469 6.469 0 0 0 2.49-4.055.752.752 0 0 1 .327-.478.766.766 0 0 1 .275-.109.756.756 0 0 1 .3.006.739.739 0 0 1 .271.119.746.746 0 0 1 .3.785 8.021 8.021 0 0 1-3.071 4.945.75.75 0 0 1-.448.143zm-13.719-13.7a.752.752 0 0 1-.668-.413.753.753 0 0 1 .067-.782 8.033 8.033 0 0 1 5.042-3.094.75.75 0 1 1 .3 1.47 6.492 6.492 0 0 0-4.141 2.519.744.744 0 0 1-.264.223.757.757 0 0 1-.336.077z" transform="translate(-651.044 -316)"/>
</svg>
