<?xml version="1.0" encoding="UTF-8" standalone="no"?>
<!DOCTYPE svg PUBLIC "-//W3C//DTD SVG 1.1//EN"
 "http://www.w3.org/Graphics/SVG/1.1/DTD/svg11.dtd">
<!-- Generated by graphviz version 2.47.3 (20210619.1520)
 -->
<!-- Title: dependencies Pages: 1 -->
<svg width="562pt" height="247pt"
 viewBox="0.00 0.00 562.00 246.80" xmlns="http://www.w3.org/2000/svg" xmlns:xlink="http://www.w3.org/1999/xlink">
<g id="graph0" class="graph" transform="scale(1 1) rotate(0) translate(4 242.8)">
<title>dependencies</title>
<polygon fill="white" stroke="transparent" points="-4,4 -4,-242.8 558,-242.8 558,4 -4,4"/>
<text text-anchor="middle" x="277" y="-8.2" font-family="sans-serif" font-size="14.00">dependencies</text>
<g id="clust1" class="cluster">
<title>cluster_AppModule</title>
<polygon fill="none" stroke="black" stroke-dasharray="1,5" points="8,-32.8 8,-230.8 546,-230.8 546,-32.8 8,-32.8"/>
</g>
<g id="clust2" class="cluster">
<title>cluster_AppModule_declarations</title>
<polygon fill="none" stroke="black" points="416,-40.8 416,-92.8 538,-92.8 538,-40.8 416,-40.8"/>
</g>
<g id="clust4" class="cluster">
<title>cluster_AppModule_imports</title>
<polygon fill="none" stroke="black" points="264,-40.8 264,-92.8 408,-92.8 408,-40.8 264,-40.8"/>
</g>
<g id="clust6" class="cluster">
<title>cluster_AppModule_bootstrap</title>
<polygon fill="none" stroke="black" points="274,-170.8 274,-222.8 398,-222.8 398,-170.8 274,-170.8"/>
</g>
<g id="clust7" class="cluster">
<title>cluster_AppModule_providers</title>
<polygon fill="none" stroke="black" points="16,-40.8 16,-92.8 256,-92.8 256,-40.8 16,-40.8"/>
</g>
<!-- AppComponent -->
<g id="node1" class="node">
<title>AppComponent</title>
<polygon fill="#ffffb3" stroke="black" points="529.94,-84.8 424.06,-84.8 424.06,-48.8 529.94,-48.8 529.94,-84.8"/>
<text text-anchor="middle" x="477" y="-62.6" font-family="Times,serif" font-size="14.00">AppComponent</text>
</g>
<!-- AppModule -->
<g id="node2" class="node">
<title>AppModule</title>
<polygon fill="#8dd3c7" stroke="black" points="377.66,-149.8 374.66,-153.8 353.66,-153.8 350.66,-149.8 294.34,-149.8 294.34,-113.8 377.66,-113.8 377.66,-149.8"/>
<text text-anchor="middle" x="336" y="-127.6" font-family="Times,serif" font-size="14.00">AppModule</text>
</g>
<!-- AppComponent&#45;&gt;AppModule -->
<g id="edge1" class="edge">
<title>AppComponent&#45;&gt;AppModule</title>
<path fill="none" stroke="black" d="M477,-84.91C477,-104.14 477,-131.8 477,-131.8 477,-131.8 387.92,-131.8 387.92,-131.8"/>
<polygon fill="black" stroke="black" points="387.92,-128.3 377.92,-131.8 387.92,-135.3 387.92,-128.3"/>
</g>
<!-- AppComponent  -->
<g id="node4" class="node">
<title>AppComponent </title>
<polygon fill="#80b1d3" stroke="black" points="390.44,-214.8 281.56,-214.8 281.56,-178.8 390.44,-178.8 390.44,-214.8"/>
<text text-anchor="middle" x="336" y="-192.6" font-family="Times,serif" font-size="14.00">AppComponent </text>
</g>
<!-- AppModule&#45;&gt;AppComponent  -->
<g id="edge3" class="edge">
<title>AppModule&#45;&gt;AppComponent </title>
<path fill="none" stroke="black" stroke-dasharray="1,5" d="M336,-149.91C336,-149.91 336,-168.79 336,-168.79"/>
<polygon fill="black" stroke="black" points="332.5,-168.79 336,-178.79 339.5,-168.79 332.5,-168.79"/>
</g>
<!-- AppRoutingModule -->
<g id="node3" class="node">
<title>AppRoutingModule</title>
<polygon fill="#8dd3c7" stroke="black" points="400.27,-84.8 397.27,-88.8 376.27,-88.8 373.27,-84.8 271.73,-84.8 271.73,-48.8 400.27,-48.8 400.27,-84.8"/>
<text text-anchor="middle" x="336" y="-62.6" font-family="Times,serif" font-size="14.00">AppRoutingModule</text>
</g>
<!-- AppRoutingModule&#45;&gt;AppModule -->
<g id="edge2" class="edge">
<title>AppRoutingModule&#45;&gt;AppModule</title>
<path fill="none" stroke="black" d="M336,-84.91C336,-84.91 336,-103.79 336,-103.79"/>
<polygon fill="black" stroke="black" points="332.5,-103.79 336,-113.79 339.5,-103.79 332.5,-103.79"/>
</g>
<!-- DynamicTempleteService -->
<g id="node5" class="node">
<title>DynamicTempleteService</title>
<ellipse fill="#fdb462" stroke="black" cx="136" cy="-66.8" rx="111.71" ry="18"/>
<text text-anchor="middle" x="136" y="-62.6" font-family="Times,serif" font-size="14.00">DynamicTempleteService</text>
</g>
<!-- DynamicTempleteService&#45;&gt;AppModule -->
<g id="edge4" class="edge">
<title>DynamicTempleteService&#45;&gt;AppModule</title>
<path fill="none" stroke="black" d="M136,-84.91C136,-104.14 136,-131.8 136,-131.8 136,-131.8 284.07,-131.8 284.07,-131.8"/>
<polygon fill="black" stroke="black" points="284.07,-135.3 294.07,-131.8 284.07,-128.3 284.07,-135.3"/>
</g>
</g>
</svg>
