<?xml version="1.0" encoding="UTF-8" standalone="no"?>
<!DOCTYPE svg PUBLIC "-//W3C//DTD SVG 1.1//EN"
 "http://www.w3.org/Graphics/SVG/1.1/DTD/svg11.dtd">
<!-- Generated by graphviz version 2.47.3 (20210619.1520)
 -->
<!-- Title: dependencies Pages: 1 -->
<svg width="448pt" height="174pt"
 viewBox="0.00 0.00 448.00 173.80" xmlns="http://www.w3.org/2000/svg" xmlns:xlink="http://www.w3.org/1999/xlink">
<g id="graph0" class="graph" transform="scale(1 1) rotate(0) translate(4 169.8)">
<title>dependencies</title>
<polygon fill="white" stroke="transparent" points="-4,4 -4,-169.8 444,-169.8 444,4 -4,4"/>
<text text-anchor="middle" x="220" y="-8.2" font-family="sans-serif" font-size="14.00">dependencies</text>
<g id="clust1" class="cluster">
<title>cluster_LoginWithPhonePageModule</title>
<polygon fill="none" stroke="black" stroke-dasharray="1,5" points="8,-32.8 8,-157.8 432,-157.8 432,-32.8 8,-32.8"/>
</g>
<g id="clust4" class="cluster">
<title>cluster_LoginWithPhonePageModule_imports</title>
<polygon fill="none" stroke="black" points="180,-40.8 180,-92.8 424,-92.8 424,-40.8 180,-40.8"/>
</g>
<g id="clust2" class="cluster">
<title>cluster_LoginWithPhonePageModule_declarations</title>
<polygon fill="none" stroke="black" points="16,-40.8 16,-92.8 172,-92.8 172,-40.8 16,-40.8"/>
</g>
<!-- LoginWithPhonePage -->
<g id="node1" class="node">
<title>LoginWithPhonePage</title>
<polygon fill="#ffffb3" stroke="black" points="163.65,-84.8 24.35,-84.8 24.35,-48.8 163.65,-48.8 163.65,-84.8"/>
<text text-anchor="middle" x="94" y="-62.6" font-family="Times,serif" font-size="14.00">LoginWithPhonePage</text>
</g>
<!-- LoginWithPhonePageModule -->
<g id="node2" class="node">
<title>LoginWithPhonePageModule</title>
<polygon fill="#8dd3c7" stroke="black" points="296.7,-149.8 293.7,-153.8 272.7,-153.8 269.7,-149.8 113.3,-149.8 113.3,-113.8 296.7,-113.8 296.7,-149.8"/>
<text text-anchor="middle" x="205" y="-127.6" font-family="Times,serif" font-size="14.00">LoginWithPhonePageModule</text>
</g>
<!-- LoginWithPhonePage&#45;&gt;LoginWithPhonePageModule -->
<g id="edge1" class="edge">
<title>LoginWithPhonePage&#45;&gt;LoginWithPhonePageModule</title>
<path fill="none" stroke="black" d="M138.61,-84.91C138.61,-84.91 138.61,-103.79 138.61,-103.79"/>
<polygon fill="black" stroke="black" points="135.11,-103.79 138.61,-113.79 142.11,-103.79 135.11,-103.79"/>
</g>
<!-- LoginWithPhonePageRoutingModule -->
<g id="node3" class="node">
<title>LoginWithPhonePageRoutingModule</title>
<polygon fill="#8dd3c7" stroke="black" points="416.32,-84.8 413.32,-88.8 392.32,-88.8 389.32,-84.8 187.68,-84.8 187.68,-48.8 416.32,-48.8 416.32,-84.8"/>
<text text-anchor="middle" x="302" y="-62.6" font-family="Times,serif" font-size="14.00">LoginWithPhonePageRoutingModule</text>
</g>
<!-- LoginWithPhonePageRoutingModule&#45;&gt;LoginWithPhonePageModule -->
<g id="edge2" class="edge">
<title>LoginWithPhonePageRoutingModule&#45;&gt;LoginWithPhonePageModule</title>
<path fill="none" stroke="black" d="M242.22,-84.91C242.22,-84.91 242.22,-103.79 242.22,-103.79"/>
<polygon fill="black" stroke="black" points="238.72,-103.79 242.22,-113.79 245.72,-103.79 238.72,-103.79"/>
</g>
</g>
</svg>
