<svg xmlns="http://www.w3.org/2000/svg" id="view" width="18" height="11" viewBox="0 0 18 11">
    <defs>
        <style>
            .cls-1{fill:#b8b8b8}
        </style>
    </defs>
    <g id="Group_46">
        <g id="Group_45">
            <path id="Path_93" d="M17.886 98c-.161-.211-3.992-5.164-8.886-5.164S.275 97.788.114 98a.551.551 0 0 0 0 .672c.161.211 3.992 5.164 8.886 5.164s8.725-4.953 8.886-5.164a.55.55 0 0 0 0-.672zM9 102.7c-3.6 0-6.726-3.288-7.651-4.362.923-1.079 4.039-4.365 7.651-4.365s6.726 3.287 7.651 4.362C15.728 99.411 12.612 102.7 9 102.7z" class="cls-1" transform="translate(0 -92.835)"/>
        </g>
    </g>
    <g id="Group_48" transform="translate(5.439 2.086)">
        <g id="Group_47" transform="translate(0 0)">
            <path id="Path_94" d="M158.282 154.725a3.417 3.417 0 1 0 3.56 3.414 3.493 3.493 0 0 0-3.56-3.414zm0 5.69a2.278 2.278 0 1 1 2.374-2.276 2.329 2.329 0 0 1-2.374 2.276z" class="cls-1" transform="translate(-154.722 -154.725)"/>
        </g>
    </g>
</svg>
