<svg id="instagram" xmlns="http://www.w3.org/2000/svg" xmlns:xlink="http://www.w3.org/1999/xlink" width="18" height="18" viewBox="0 0 18 18">
  <defs>
    <style>
      .cls-1 {
        fill: url(#linear-gradient);
      }

      .cls-2 {
        fill: url(#linear-gradient-2);
      }

      .cls-3 {
        fill: url(#linear-gradient-3);
      }
    </style>
    <linearGradient id="linear-gradient" x1="0.084" y1="0.916" x2="0.916" y2="0.084" gradientUnits="objectBoundingBox">
      <stop offset="0" stop-color="#ffd600"/>
      <stop offset="0.5" stop-color="#ff0100"/>
      <stop offset="1" stop-color="#d800b9"/>
    </linearGradient>
    <linearGradient id="linear-gradient-2" x1="0.146" y1="0.854" x2="0.854" y2="0.146" gradientUnits="objectBoundingBox">
      <stop offset="0" stop-color="#ff6400"/>
      <stop offset="0.5" stop-color="#ff0100"/>
      <stop offset="1" stop-color="#fd0056"/>
    </linearGradient>
    <linearGradient id="linear-gradient-3" x1="0.146" y1="0.854" x2="0.854" y2="0.146" gradientUnits="objectBoundingBox">
      <stop offset="0" stop-color="#f30072"/>
      <stop offset="1" stop-color="#e50097"/>
    </linearGradient>
  </defs>
  <path id="Path_713" data-name="Path 713" class="cls-1" d="M17.946,5.289A6.607,6.607,0,0,0,17.527,3.1,4.411,4.411,0,0,0,16.489,1.51,4.412,4.412,0,0,0,14.9.472,6.606,6.606,0,0,0,12.711.054C11.751.01,11.444,0,9,0S6.249.01,5.289.054A6.608,6.608,0,0,0,3.1.472,4.411,4.411,0,0,0,1.51,1.51,4.412,4.412,0,0,0,.472,3.1,6.607,6.607,0,0,0,.054,5.289C.01,6.249,0,6.556,0,9s.01,2.751.054,3.711A6.606,6.606,0,0,0,.472,14.9a4.41,4.41,0,0,0,1.038,1.594A4.41,4.41,0,0,0,3.1,17.527a6.6,6.6,0,0,0,2.185.418C6.249,17.99,6.556,18,9,18s2.751-.01,3.711-.054a6.6,6.6,0,0,0,2.185-.418A4.6,4.6,0,0,0,17.527,14.9a6.605,6.605,0,0,0,.418-2.185C17.99,11.751,18,11.444,18,9s-.01-2.751-.054-3.711Zm-1.62,7.348a4.98,4.98,0,0,1-.31,1.671,2.98,2.98,0,0,1-1.708,1.708,4.98,4.98,0,0,1-1.671.31c-.949.043-1.234.052-3.637.052s-2.688-.009-3.637-.052a4.981,4.981,0,0,1-1.671-.31,2.789,2.789,0,0,1-1.035-.673,2.788,2.788,0,0,1-.673-1.035,4.98,4.98,0,0,1-.31-1.671C1.631,11.688,1.621,11.4,1.621,9s.009-2.688.052-3.637a4.983,4.983,0,0,1,.31-1.671,2.79,2.79,0,0,1,.673-1.035,2.787,2.787,0,0,1,1.035-.673,4.979,4.979,0,0,1,1.671-.31C6.312,1.631,6.6,1.621,9,1.621H9c2.4,0,2.688.009,3.637.053a4.98,4.98,0,0,1,1.671.31,2.791,2.791,0,0,1,1.035.673,2.787,2.787,0,0,1,.673,1.035,4.975,4.975,0,0,1,.31,1.671c.043.949.052,1.234.052,3.637s-.009,2.688-.052,3.637Zm0,0" transform="translate(0 0)"/>
  <path id="Path_714" data-name="Path 714" class="cls-2" d="M129.161,124.539a4.622,4.622,0,1,0,4.622,4.622A4.622,4.622,0,0,0,129.161,124.539Zm0,7.622a3,3,0,1,1,3-3A3,3,0,0,1,129.161,132.161Zm0,0" transform="translate(-120.161 -120.161)"/>
  <path id="Path_715" data-name="Path 715" class="cls-3" d="M364.09,89.705a1.08,1.08,0,1,1-1.08-1.08A1.08,1.08,0,0,1,364.09,89.705Zm0,0" transform="translate(-349.205 -85.51)"/>
</svg>
