<svg xmlns="http://www.w3.org/2000/svg" width="469.427" height="261.618" viewBox="0 0 469.427 261.618">
  <defs>
    <style>
      .cls-1 {
        opacity: 0.57;
      }

      .cls-2 {
        fill: #f6f7fb;
      }

      .cls-3 {
        fill: #0b2034;
      }
    </style>
  </defs>
  <g id="unreadable-letters-signaturely" class="cls-1">
    <rect id="Rectangle_334" data-name="Rectangle 334" class="cls-2" width="469.427" height="261.618" rx="12"/>
    <path id="Path_136" data-name="Path 136" class="cls-3" d="M276.193,27.345c-3.025,4.741-5.96,9.526-8.758,14.4s-5.509,9.8-8.082,14.764Q253.528,67.617,248.2,78.949c-1.084,1.625-2.167,3.251-3.3,4.831-2.755,3.973-5.644,7.856-8.578,11.693l.09-.09c-.045.045-.09.135-.135.181,0,.045-.045.045-.092.09a.045.045,0,0,1,.047-.045,238.7,238.7,0,0,1-26.278,28.985c0-.09.045-.226.045-.316.182-1.58.362-3.16.543-4.786a25.181,25.181,0,0,1,1.037-4.786,1.333,1.333,0,0,0-.586-1.49,1.244,1.244,0,0,0-1.58.226,38.425,38.425,0,0,1-5.462,5.373c-.949.813-1.9,1.58-2.845,2.393.09-.587.18-1.219.271-1.806a5.121,5.121,0,0,0-.045-1.445,7.018,7.018,0,0,0-.18-.948,7.535,7.535,0,0,0-.361-.9,1.4,1.4,0,0,0-1.941-.5c-3.251,2.348-6.909,4.063-10.25,6.276a4.647,4.647,0,0,0,.045-.768,9.755,9.755,0,0,0-.045-1.986,11.556,11.556,0,0,0-.226-1.219,4.921,4.921,0,0,0-.451-1.129,1.519,1.519,0,0,0-.949-.722,1.582,1.582,0,0,0-1.535.406c-4.876,4.876-10.474,8.939-15.711,13.409.135-1.535.226-3.07.406-4.605a1.694,1.694,0,0,0,0-.948,1.868,1.868,0,0,0-.859-1.084,1.906,1.906,0,0,0-2.257.271c-4.245,4.154-8.262,8.578-12.958,12.235a34.5,34.5,0,0,1-7.223,4.334,25.6,25.6,0,0,1-2.619.9c2.392-7.449,4.65-14.9,7.043-22.348a2.083,2.083,0,0,0-3.476-2.032c-5.778,5.553-11.2,11.468-16.75,17.247-3.792,3.927-7.676,7.766-11.783,11.422,3.3-4.921,6.546-9.842,9.707-14.9a192.6,192.6,0,0,0,12.189-22.168,89.735,89.735,0,0,0,7.315-22.981,2.778,2.778,0,0,0,0-1.219,2.29,2.29,0,0,0-3.386-1.4,41.854,41.854,0,0,0-7.856,5.96c-1.67,1.58-3.251,3.206-4.741,4.921.18-.5.316-.993.5-1.535a105.363,105.363,0,0,0,4.786-25.373c-2.212,6.727-4.7,13.364-7.223,19.955-1.264,3.251-2.529,6.456-3.748,9.707-1.218,3.16-2.482,6.321-3.792,9.436v-.045a.044.044,0,0,1-.045.045c-.045.135-.135.316-.18.451.045-.09.045-.135.09-.226-.135.316-.271.587-.406.9-2.484,3.792-4.786,7.72-6.954,11.693a197.016,197.016,0,0,0-10.293,22.122c-1.264,3.3-2.438,6.592-3.476,9.978a67.243,67.243,0,0,0-1.806,7.044c-1.038,2.618-2.032,5.237-2.98,7.9-1.761,4.923-3.3,9.889-4.7,14.9a2.364,2.364,0,0,0,1.083,2.618,2.2,2.2,0,0,0,1.761.226,2.235,2.235,0,0,0,1.4-1.083,241.023,241.023,0,0,1,15.08-25.509c1.445-.994,2.845-1.986,4.245-3.07a134.306,134.306,0,0,0,11.783-10.248c5.959-5.78,11.558-11.874,17.291-17.879-1.761,5.824-3.612,11.6-5.372,17.428a1.939,1.939,0,0,0,.5,1.941,2.059,2.059,0,0,0,.859.5,2.026,2.026,0,0,0,1.039,0,24.78,24.78,0,0,0,7.945-2.527,37.5,37.5,0,0,0,7.134-4.7,97.88,97.88,0,0,0,9.211-8.624c-.047,1.219-.137,2.483-.272,3.7,0,.09-.045.226-.045.316a1.538,1.538,0,0,0,0,.9,1.738,1.738,0,0,0,2.89.767c5.282-5.192,11.377-9.436,16.75-14.493-.045,1.355-.226,2.754-.18,4.109a1.514,1.514,0,0,0,.723,1.309,1.5,1.5,0,0,0,1.806-.226,7.849,7.849,0,0,0,.677-.587c3.115-2.348,6.682-4.063,9.932-6.231a8.117,8.117,0,0,1-.09.993c-.09.722-.226,1.445-.316,2.212a7.405,7.405,0,0,0,.135,2.438,1.356,1.356,0,0,0,2.258.587,47.9,47.9,0,0,1,5.011-4.56c.857-.722,1.67-1.445,2.482-2.167-.271,2.077-.451,4.154-.722,6.231a20.213,20.213,0,0,1-.543,2.8,1.307,1.307,0,0,0,.588,1.445,1.363,1.363,0,0,0,1.58-.181,218.113,218.113,0,0,0,21.58-22.213c4.018-4.741,7.856-9.571,11.558-14.583-7.5,16.524-14.673,33.184-22.168,49.708a10.147,10.147,0,0,1-1.083-.361,16.369,16.369,0,0,1-3.07-1.851,29.315,29.315,0,0,1-4.786-4.967c-1.174-1.58-2.257-3.206-3.3-4.876a2.515,2.515,0,0,0-1.535-1.174,2.664,2.664,0,0,0-2.484.632,43.09,43.09,0,0,0-7.223,8.442,64.154,64.154,0,0,0-5.553,10.43,95.7,95.7,0,0,0-6.728,24.921,99,99,0,0,0-.857,18.285,60.869,60.869,0,0,0,.994,8.534,49.433,49.433,0,0,0,1.941,7.178,2.073,2.073,0,0,0,1.4,1.4,1.974,1.974,0,0,0,2.212-.9c2.89-4.786,5.688-9.617,8.442-14.493,2.709-4.876,5.372-9.842,7.9-14.809,5.1-9.978,9.887-20.136,14.538-30.339.09-.227.225-.453.316-.678a12.6,12.6,0,0,0,2.258.045,20.459,20.459,0,0,0,9.705-3.566,59.659,59.659,0,0,0,9.166-7.72c3.386-3.341,6.637-6.908,9.978-10.294-.135,1.716-.225,3.431-.451,5.1-.09.632-.226,1.264-.361,1.9a2.5,2.5,0,0,0,.632,2.348,2.416,2.416,0,0,0,2.349.632,41.213,41.213,0,0,0,9.074-4.7,47.229,47.229,0,0,0,8.172-7.088c4.966-5.237,8.985-11.332,12.913-17.337-6.637,5.869-12.867,12.235-19.865,17.653a59.414,59.414,0,0,1-4.876,3.431,28.833,28.833,0,0,1-3.025,1.716c.045-.5.09-.948.135-1.445.18-1.9.271-3.792.5-5.689a25.711,25.711,0,0,1,.543-2.664,2.49,2.49,0,0,0-1.129-2.8,2.463,2.463,0,0,0-2.98.406c-3.837,3.522-7.4,7.314-11.016,11.061a99.056,99.056,0,0,1-10.248,9.706,27.3,27.3,0,0,1-5.462,3.342,16.161,16.161,0,0,1-3.206.9c-.18,0-.361.045-.586.045,8.352-18.691,16.3-37.518,24.831-56.119,1.173-2.573,2.392-5.192,3.612-7.765A306.957,306.957,0,0,0,278.4,28.519l.137-.316a1.946,1.946,0,0,0,0-.722,1.409,1.409,0,0,0-.633-.813,1.272,1.272,0,0,0-.677-.181A2.576,2.576,0,0,0,276.193,27.345ZM142.78,89.695a92.938,92.938,0,0,1-4.47,13.364,183.2,183.2,0,0,1-14.583,26.818c-5.147,8.127-10.609,16.072-15.936,24.154-.723.453-1.4.9-2.123,1.355.5-1.219.994-2.437,1.535-3.657a.641.641,0,0,0-.09.271c4.245-10.023,8.9-19.82,13.364-29.707,1.9-4.2,3.793-8.4,5.6-12.6,1.9-2.935,3.927-5.824,6.05-8.578A63.833,63.833,0,0,1,142.78,89.695Zm-4.38,13.183c0,.045-.045.09-.045.135A.166.166,0,0,1,138.4,102.878Zm72.1,16.7a.272.272,0,0,1-.045.181C210.5,119.718,210.5,119.673,210.5,119.583Zm-12.055.406a.341.341,0,0,1-.045.181A.341.341,0,0,0,198.447,119.989Zm-28.352,5.328a.572.572,0,0,1-.045.271C170.05,125.5,170.095,125.407,170.095,125.317Zm34.9,9.842a52.01,52.01,0,0,0,3.341,4.425,30.843,30.843,0,0,0,5.011,4.694,16.906,16.906,0,0,0,4.47,2.349c-.271.631-.586,1.265-.857,1.9-4.515,9.752-9.211,19.459-14.177,28.985-4.29,8.217-8.8,16.344-13.77,24.2-.227-1.264-.407-2.484-.588-3.748a87.672,87.672,0,0,1,.226-22.8,96.537,96.537,0,0,1,6.411-24.108,63.3,63.3,0,0,1,7.225-12.732A25.655,25.655,0,0,1,204.994,135.159Zm-10.068,16.118c0,.045-.045.09-.045.135A.166.166,0,0,1,194.926,151.277Zm-72.192-45.239a.642.642,0,0,0,.09-.271A.642.642,0,0,0,122.735,106.038Zm113.5-10.384.045-.045c.045-.045.045-.045.045-.09C236.328,95.564,236.283,95.609,236.238,95.654Z" transform="translate(46.418 13.338)"/>
  </g>
</svg>
