<svg xmlns="http://www.w3.org/2000/svg" width="16.975" height="16.965" viewBox="0 0 16.975 16.965">
    <path fill="#dedfe4" d="M667.392 970.421l-5.365-5.366a3.542 3.542 0 0 0-5 0l-5.365 5.366a2.106 2.106 0 0 0-.622 1.5v6.944a2.123 2.123 0 0 0 2.122 2.122h12.731a2.123 2.123 0 0 0 2.122-2.122v-6.944a2.106 2.106 0 0 0-.622-1.5zm-5.744 9.151H657.4v-2.783a2.122 2.122 0 0 1 4.244 0zm4.951-.707a.708.708 0 0 1-.707.707h-2.829v-2.783a3.536 3.536 0 0 0-7.073 0v2.783h-2.829a.708.708 0 0 1-.707-.707v-6.944a.713.713 0 0 1 .207-.5l5.365-5.363a2.128 2.128 0 0 1 3 0l5.365 5.366a.714.714 0 0 1 .207.5z" transform="translate(-651.039 -964.021)"/>
</svg>
