<svg xmlns="http://www.w3.org/2000/svg" id="Component_99_1" width="16.975" height="16.975" viewBox="0 0 16.975 16.975">
    <defs>
        <style>
            .cls-1{fill:#dedfe4}
        </style>
    </defs>
    <path id="Path_15009" d="M797.308 1691.56h-14.146a.728.728 0 0 1-.5-.205.708.708 0 0 1-.207-.5v-14.146a.708.708 0 0 0-.207-.5.712.712 0 0 0-1 0 .708.708 0 0 0-.207.5v14.146a2.124 2.124 0 0 0 2.122 2.122h14.146a.728.728 0 0 0 .5-.205.712.712 0 0 0 0-1 .728.728 0 0 0-.501-.212z" class="cls-1" transform="translate(-781.04 -1676)"/>
    <path id="Path_15010" d="M795.747 1693.366a.728.728 0 0 0 .5-.205.708.708 0 0 0 .207-.5v-4.951a.708.708 0 0 0-.207-.5.712.712 0 0 0-1 0 .708.708 0 0 0-.207.5v4.951a.708.708 0 0 0 .207.5.728.728 0 0 0 .5.205z" class="cls-1" transform="translate(-785.138 -1679.219)"/>
    <path id="Path_15011" d="M787.747 1693.366a.728.728 0 0 0 .5-.205.708.708 0 0 0 .207-.5v-4.951a.708.708 0 0 0-.207-.5.712.712 0 0 0-1 0 .708.708 0 0 0-.207.5v4.951a.708.708 0 0 0 .207.5.728.728 0 0 0 .5.205z" class="cls-1" transform="translate(-782.796 -1679.219)"/>
    <path id="Path_15012" d="M799.747 1691.9a.728.728 0 0 0 .5-.205.708.708 0 0 0 .207-.5v-8.488a.708.708 0 0 0-.207-.5.712.712 0 0 0-1 0 .708.708 0 0 0-.207.5v8.488a.708.708 0 0 0 .207.5.728.728 0 0 0 .5.205z" class="cls-1" transform="translate(-786.308 -1677.756)"/>
    <path id="Path_15013" d="M791.747 1691.9a.728.728 0 0 0 .5-.205.708.708 0 0 0 .207-.5v-8.488a.708.708 0 0 0-.207-.5.712.712 0 0 0-1 0 .708.708 0 0 0-.207.5v8.488a.708.708 0 0 0 .207.5.728.728 0 0 0 .5.205z" class="cls-1" transform="translate(-783.967 -1677.756)"/>
</svg>
