<?xml version="1.0" encoding="UTF-8" standalone="no"?>
<!DOCTYPE svg PUBLIC "-//W3C//DTD SVG 1.1//EN"
 "http://www.w3.org/Graphics/SVG/1.1/DTD/svg11.dtd">
<!-- Generated by graphviz version 2.47.3 (20210619.1520)
 -->
<!-- Title: dependencies Pages: 1 -->
<svg width="532pt" height="174pt"
 viewBox="0.00 0.00 532.00 173.80" xmlns="http://www.w3.org/2000/svg" xmlns:xlink="http://www.w3.org/1999/xlink">
<g id="graph0" class="graph" transform="scale(1 1) rotate(0) translate(4 169.8)">
<title>dependencies</title>
<polygon fill="white" stroke="transparent" points="-4,4 -4,-169.8 528,-169.8 528,4 -4,4"/>
<text text-anchor="middle" x="262" y="-8.2" font-family="sans-serif" font-size="14.00">dependencies</text>
<g id="clust1" class="cluster">
<title>cluster_DashboardPageModule</title>
<polygon fill="none" stroke="black" stroke-dasharray="1,5" points="8,-32.8 8,-157.8 516,-157.8 516,-32.8 8,-32.8"/>
</g>
<g id="clust2" class="cluster">
<title>cluster_DashboardPageModule_declarations</title>
<polygon fill="none" stroke="black" points="232,-40.8 232,-92.8 508,-92.8 508,-40.8 232,-40.8"/>
</g>
<g id="clust5" class="cluster">
<title>cluster_DashboardPageModule_imports</title>
<polygon fill="none" stroke="black" points="16,-40.8 16,-92.8 224,-92.8 224,-40.8 16,-40.8"/>
</g>
<!-- DashboardPage -->
<g id="node1" class="node">
<title>DashboardPage</title>
<polygon fill="#ffffb3" stroke="black" points="499.85,-84.8 396.15,-84.8 396.15,-48.8 499.85,-48.8 499.85,-84.8"/>
<text text-anchor="middle" x="448" y="-62.6" font-family="Times,serif" font-size="14.00">DashboardPage</text>
</g>
<!-- DashboardPageModule -->
<g id="node3" class="node">
<title>DashboardPageModule</title>
<polygon fill="#8dd3c7" stroke="black" points="382.9,-149.8 379.9,-153.8 358.9,-153.8 355.9,-149.8 235.1,-149.8 235.1,-113.8 382.9,-113.8 382.9,-149.8"/>
<text text-anchor="middle" x="309" y="-127.6" font-family="Times,serif" font-size="14.00">DashboardPageModule</text>
</g>
<!-- DashboardPage&#45;&gt;DashboardPageModule -->
<g id="edge1" class="edge">
<title>DashboardPage&#45;&gt;DashboardPageModule</title>
<path fill="none" stroke="black" d="M448,-84.91C448,-104.14 448,-131.8 448,-131.8 448,-131.8 392.98,-131.8 392.98,-131.8"/>
<polygon fill="black" stroke="black" points="392.98,-128.3 382.98,-131.8 392.98,-135.3 392.98,-128.3"/>
</g>
<!-- MfHeaderComponent -->
<g id="node2" class="node">
<title>MfHeaderComponent</title>
<polygon fill="#ffffb3" stroke="black" points="378.35,-84.8 239.65,-84.8 239.65,-48.8 378.35,-48.8 378.35,-84.8"/>
<text text-anchor="middle" x="309" y="-62.6" font-family="Times,serif" font-size="14.00">MfHeaderComponent</text>
</g>
<!-- MfHeaderComponent&#45;&gt;DashboardPageModule -->
<g id="edge2" class="edge">
<title>MfHeaderComponent&#45;&gt;DashboardPageModule</title>
<path fill="none" stroke="black" d="M309,-84.91C309,-84.91 309,-103.79 309,-103.79"/>
<polygon fill="black" stroke="black" points="305.5,-103.79 309,-113.79 312.5,-103.79 305.5,-103.79"/>
</g>
<!-- DashboardPageRoutingModule -->
<g id="node4" class="node">
<title>DashboardPageRoutingModule</title>
<polygon fill="#8dd3c7" stroke="black" points="216.02,-84.8 213.02,-88.8 192.02,-88.8 189.02,-84.8 23.98,-84.8 23.98,-48.8 216.02,-48.8 216.02,-84.8"/>
<text text-anchor="middle" x="120" y="-62.6" font-family="Times,serif" font-size="14.00">DashboardPageRoutingModule</text>
</g>
<!-- DashboardPageRoutingModule&#45;&gt;DashboardPageModule -->
<g id="edge3" class="edge">
<title>DashboardPageRoutingModule&#45;&gt;DashboardPageModule</title>
<path fill="none" stroke="black" d="M120,-84.91C120,-104.14 120,-131.8 120,-131.8 120,-131.8 225.12,-131.8 225.12,-131.8"/>
<polygon fill="black" stroke="black" points="225.12,-135.3 235.12,-131.8 225.12,-128.3 225.12,-135.3"/>
</g>
</g>
</svg>
